<?xml version="1.0" encoding="UTF-8"?>
<svg id="Layer_1" data-name="Layer 1" xmlns="http://www.w3.org/2000/svg" version="1.1" viewBox="0 0 480 270">
  <defs>
    <style>
      .cls-1 {
        opacity: .1;
      }

      .cls-2 {
        fill: #1e212b;
      }

      .cls-2, .cls-3, .cls-4 {
        stroke-width: 0px;
      }

      .cls-3 {
        fill: #cc1c1c;
      }

      .cls-4 {
        fill: #fff;
      }
    </style>
  </defs>
  <rect class="cls-2" width="480" height="270"/>
  <g class="cls-1">
    <path class="cls-4" d="M85.3,360.7h1.7l-21.3-36.9h84.4l-21.3,36.9h1.7l21.3-36.9h41.8l-21.3,36.9h1.7l20.9-36.2,20.9,36.2h1.7l20.9-36.2,20.9,36.2h1.7l20.9-36.2,20.9,36.2h1.7l-21.3-36.9h41.8l21.3,36.9h1.7l-21.3-36.9h84.4l-21.3,36.9h1.7l21.3-36.9h41.8l-21.3,36.9h1.7l20.9-36.2,20.9,36.2h1.7l20.9-36.2v-3l-20.4-35.4h20.4v-1.5h-20.4l20.4-35.4v-3l-21.7,37.7-20.9-36.2,21.3-36.9h21.3v-1.5h-64.8l-20.9-36.2h85.2s.4.8.4.8v-2.3h-42.2l42.2-73.1v-3l-20.4-35.4h20.4v-1.5h-20.4l20.4-35.4v-3l-21.7,37.7-20.9-36.2,21.3-36.9h21.3v-1.5h-64.8s-20.9-36.2-20.9-36.2h85.2s.4.8.4.8v-2.3h-42.2l21.3-36.9h-1.7l-21.3,36.9h-41.8l21.3-36.9h-1.7l-20.9,36.2-20.9-36.2h-1.7l-20.9,36.2-20.9-36.2h-1.7l-20.9,36.2-20.9-36.2h-1.7l21.3,36.9h-41.8l-21.3-36.9h-1.7l21.3,36.9h-84.4l21.3-36.9h-1.7l-21.3,36.9h-41.8l21.3-36.9h-1.7l-20.9,36.2-20.9-36.2h-1.7l-20.9,36.2-20.9-36.2h-1.7l-20.9,36.2-20.9-36.2h-1.7l21.3,36.9H21.4L0-91.3h-1.7l21.3,36.9H-22.6v2.3L-2.1-16.7h-20.4v1.5H-2.1L-22.6,20.2v3L-.8-14.5,20.1,21.7-1.3,58.6h-21.3v1.5h63.9L-.8,133.2l-21.7-37.7v3l42.2,73.1H-22.6v2.3L-2.1,209.3h-20.4v1.5H-2.1l-20.4,35.4v3L-.8,211.5l20.9,36.2L-1.3,284.6h-21.3v1.5h63.9S-.8,359.2-.8,359.2l-21.7-37.7v3L-1.7,360.7H0l20.9-36.2,20.9,36.2h1.7l-21.3-36.9h41.8l21.3,36.9ZM42.7,211.5l42.2,73.1H.5l42.2-73.1ZM389.3,284.6h-41.8l-21.3-36.9,20.9-36.2,42.2,73.1ZM348.4,210.8h41.8l21.3,36.9-20.9,36.2-42.2-73.1ZM87.5-15.2h41.8l21.3,36.9-20.9,36.2L87.5-15.2ZM128.3,58.6h-41.8l-21.3-36.9,20.9-36.2,42.2,73.1ZM194.9,98.5l20.9,36.2-21.3,36.9h-41.8l42.2-73.1ZM151.4,170.9l-20.9-36.2,21.3-36.9h41.8l-42.2,73.1ZM280.6,171.6h-84.4l42.2-73.1,42.2,73.1ZM261,134.7l20.9-36.2,42.2,73.1h-41.8l-21.3-36.9ZM174,59.4l20.9-36.2,42.6,73.8-20.9,36.2-42.6-73.8ZM217.9,60.1h84.4l-42.2,73.1-42.2-73.1ZM304.1,60.1h85.2l-20.9,36.2h-85.2s20.9-36.2,20.9-36.2ZM324.9,97.8l21.3,36.9-20.9,36.2-42.2-73.1h41.8ZM324.1,173.1l-42.2,73.1-42.2-73.1h84.4ZM258.8,209.3h-85.2l-20.9-36.2h85.2s20.9,36.2,20.9,36.2ZM171.8,209.3h-84.4l42.2-73.1,42.2,73.1ZM64.4,246.2l-20.9-36.2,42.6-73.8,20.9,36.2-42.6,73.8ZM64.4,170.9L22.2,97.8h41.8l21.3,36.9-20.9,36.2ZM65.7,97.8h84.4l-42.2,73.1-42.2-73.1ZM109.2,96.3l42.2-73.1,42.2,73.1h-84.4ZM131-15.2h84.4l-42.2,73.1L131-15.2ZM217.1-15.2h41.8l-42.2,73.1-20.9-36.2,21.3-36.9ZM260.1-14.5l20.9,36.2-21.3,36.9h-41.8l42.2-73.1ZM303.6-14.5l42.2,73.1h-84.4l42.2-73.1ZM326.2,21.7l20.9-36.2,42.2,73.1h-41.8l-21.3-36.9ZM348.4-15.2h41.8l21.3,36.9-20.9,36.2-42.2-73.1ZM412.3,23.2l42.2,73.1h-84.4s42.2-73.1,42.2-73.1ZM411,97.8l-42.2,73.1-42.2-73.1h84.4ZM368,172.4l-42.6,73.8-20.9-36.2,42.6-73.8,20.9,36.2ZM345.8,284.6h-84.4l42.2-73.1,42.2,73.1ZM259.7,284.6h-41.8l42.2-73.1,20.9,36.2-21.3,36.9ZM216.6,283.8l-20.9-36.2,21.3-36.9h41.8l-42.2,73.1ZM173.1,283.8l-42.2-73.1h84.4l-42.2,73.1ZM150.5,247.7l-20.9,36.2-42.2-73.1h41.8l21.3,36.9ZM128.3,284.6h-41.8l-21.3-36.9,20.9-36.2,42.2,73.1ZM63.1,173.1l-42.2,73.1-42.2-73.1H63.1ZM20.9,98.5l42.2,73.1H21.4L0,134.7l20.9-36.2ZM43.1,60.1h85.2l-20.9,36.2H22.2s20.9-36.2,20.9-36.2ZM42.7-14.5l42.2,73.1H.5L42.7-14.5ZM63.1-52.9L20.9,20.2-21.3-52.9H63.1ZM107-53.6L64.4,20.2,43.5-16l42.6-73.8,20.9,36.2ZM171.8-16.7h-84.4s42.2-73.1,42.2-73.1l42.2,73.1ZM237.9-52.9l20.9,36.2h-85.2s-20.9-36.2-20.9-36.2h85.2ZM324.1-52.9l-42.2,73.1-42.2-73.1h84.4ZM368-53.6l-42.6,73.8-20.9-36.2,42.6-73.8,20.9,36.2ZM432.8-16.7h-84.4s42.2-73.1,42.2-73.1l42.2,73.1ZM434.1,57.9l-42.2-73.1h84.4l-42.2,73.1ZM477.6,133.2l-42.6-73.8,20.9-36.2,42.6,73.8-20.9,36.2ZM413.7,171.6l42.2-73.1,20.9,36.2-21.3,36.9h-41.8ZM412.3,170.9l-20.9-36.2,21.3-36.9h41.8l-42.2,73.1ZM432.8,209.3h-84.4l42.2-73.1,42.2,73.1ZM434.1,283.8l-42.2-73.1h84.4l-42.2,73.1ZM435,285.4l20.9-36.2,42.6,73.8-20.9,36.2-42.6-73.8ZM370.2,322.3l42.2-73.1,42.2,73.1h-84.4ZM283.2,322.3l20.9-36.2h85.2s-20.9,36.2-20.9,36.2h-85.2ZM217.9,286.1h84.4s-42.2,73.1-42.2,73.1l-42.2-73.1ZM174,285.4l20.9-36.2,42.6,73.8-20.9,36.2-42.6-73.8ZM109.2,322.3l42.2-73.1,42.2,73.1h-84.4ZM22.2,322.3l20.9-36.2h85.2s-20.9,36.2-20.9,36.2H22.2Z"/>
  </g>
  <g>
    <path class="cls-3" d="M213.9,111.8c-.6-.2-2.2.7-3.2,1-3.7,1.4-7.3,2.9-11,4.4-1.4.6-2.7.9-3.9,1.6-5.1,2.7-10.2,5.2-15.6,6.8-1.8.6-3.9,1.2-5.3,2.8-1,1.3-2.4,2-3.9,2.5-1.6.6-3.1,1.4-4.2,2.8-.2.2-.5.3-.9.7-.7-1.8-1.3-3.6-1.8-5.3,0-.2.2-.8.6-.9,5.5-3.8,11.1-7.5,17.1-10.4,2.8-1.3,5.5-2.5,7.8-4.6.2-.2.5-.7.5-.8s-.7-.2-.9-.2c-1.2.2-2.3.5-3.3.9-2.8,1.3-5.5,2.5-8.2,3.9-3.6,1.7-7,3.6-10.5,5.4-.9.5-1.7,1-2.7,1.5-.5.3-.9.6-1.5.9-.2-1.4-.3-2.5-.6-3.8-.2-.8,0-1.3.8-1.6,3-1.6,6.1-3,9-5,5.3-3.6,11-6.5,16.7-9.3,1-.6,2.8-1.4,3.1-1.8.3-.3,0-1.2-.5-1.2s-2.2.3-3.2.7c-3,1.2-6.1,2.3-9,3.7-2.1,1-4,2.4-6.1,3.5-3.8,1.8-7.7,3.6-11.2,6.1,0,0-.5,0-.8.2-.5-3-.8-5.9-1.4-8.8-.6-2.8-.9-5.7-2.7-8.2-.5-.7-.6-1.6-.7-2.4-.2-1.8-.8-3.6-1-5.5,0-1.4,0-1.8.2-2.5.5-2.5.7-2.2,1.4-4.7.3-1.2,1.2-2.2.3-3.6-.9,1.7-1.6,3.1-2.7,5.4-.2-1.2-.2-6.8-.2-7.8s-.3-3,0-4.3c1.2-2.9,2.8-5.5,4.2-8.2.7-1.4,1.2-2.9,1.7-4.4,0-.3.5-1.4,0-1.3s-6.9,12.1-10.6,18.1c0,0-1.5,3.3-1.6,3.7-1.7,5-3.6,9-5.2,14-.8,2.3-.9,4.8-1.6,7.3-1,4-2.3,8-3.5,11.9-.9,3.6-1.8,7.2-2.7,10.7-.7,2.8-1.3,5.7-2,8.4-.2.9-2,2.5-3.1,3v-.2c1-4.5,2-9.1,3-13.6.7-3.2,1.8-6.3,3-9.5,1.6-4.6,2.8-9.5,4.3-14.1,1.2-3.5,2.4-6.8,3.6-10.2,1-2.9,2.1-5.7,3.2-8.5.2-.5,1.7-4,2-4.7,2.1-4.6,4.6-9.1,5.3-14.2,0-.7.2-1.5,0-1.7,0-.3,0-.5-.5-.3-.3,0-1.4.8-1.6,1.4-1,2-1.7,3.9-2.7,6-1.7,3.8-3.6,7.6-5.2,11.5-1.3,3-2.1,6.2-3.2,9.2s-2.4,6-3.6,9c-.2.6-.6,1-.7,1.6-.5,2.1-.7,4.2-1.2,6.2-.3,1.8-.9,3-1.6,4.8-.5,1.2-.6,1.6-.7,2.2-.2,1.4-.3,2.2-.9,3.5-1.2,2.3-2.3,4.7-3.3,7.2-.3.8-.7,1.6-.6,2.4.2,3.2-.6,6.2-1.3,9.3-.2,1.3-3.2,6.8-4,7.5-1.5,1.5-3,3.1-4.6,4.6-1.7,1.7-3.6,3.3-5.2,5.3-1.3,1.5-2.7,2.7-4.3,3.8-1,.7-2,1.8-2.8,2.9-1.2,1.4-2,3.1-3.6,4.2-1.2.8-2.2,1.8-3.1,3-2.5,3.1-5.1,6.3-7.5,9.6-1.7,2.3-3.5,4.6-5.1,7-2.2,3.5-4.2,6.9-6.1,10.5-.5.9-.5,2.1-.2,3.1.2.8,1.8,1.3,2.8,1.2,1.2-.1,2-.5,2.8-1.4,1.4-1.7,2.8-3.3,4.2-5,1.4-1.5,2.9-2.8,4.3-4.3,1.5-1.7,2.8-3.7,4.4-5.2,3.5-3,7-6,10.7-8.7,3-2.3,6-3.2,8.4-6.1,0,0,.7-.7,1-.7-.2.8-.5,1.4-.6,2.1-.6,3.6-.9,7.2-1.6,10.6-.9,4.5-1.4,6-2.1,13.4-.3,4.2-.5,8.5-.5,12.8s-.3,2.7,0,2.9c.5.1,3-.6,3.3-.7.3,0,.9-.7.9-1.3v-8.2c0-4.8.3-9.5,1.2-14.2.3-2.2.8-3.6,1-5.3.6-3.8,1.3-7.6,1.8-11.5,0-.9,0-2.2.6-2.8.9-1,2.5-2,3.9-2.8,0,.3-1.5,8.8-2.1,12.8-.5,3.1-.5,6.2-.7,9.5-.2,3.6-.5,7.3-.7,10.8-.2,3.2-.7,6.5-.8,9.7,0,1.3.3,3.8.8,3.9.5.1,1.4-.7,1.8-1.2.3-.3.7-.8.7-1.3.3-3.6.7-7.3,1-10.8.3-4,.6-8.2.9-12.2.2-3.3.5-6.7.8-10,.5-3.5,1.5-6.8,1.6-10.3,0-2.7,1.4-4.2,3.1-5.7.3-.3,1.5-1.2,1.5-1.2-.2,1-.5,2.7-.6,3.8-.2,2.1-.3,4.2-.6,6.2-.7,5.9-1.5,11.9-2.1,17.8-.3,4-.2,8.1-.3,12.2,0,4-.3,7.6-.5,11.5,0,.9-.6,3.2-.2,3.5.3.1,1.6-.7,2.2-1,.7-.3.9-.7.9-1.5v-3.2c.2-2.7.6-5.3.8-8,.2-2.8,0-5.4.3-8.2.2-3.5.6-6.8.8-10.2.3-3.9.7-7.8,1.8-11.8.9-2.9,1.2-6.1,1.5-9.1.2-1.6.2-3.1.3-4.7,0-.3.2-.9.6-1.2,2.5-1.5,5.2-3.1,7.8-4.5,1.8-.9,2-.8,2.3,1.2v.2c1,3.8,2.1,7.5,3.1,11.3,1,3.9,2.3,7.8,3.1,11.9,1,5.4,2.9,10.4,4.8,15.5,1.6,4.4,3.3,8.7,5.1,13,.3.8.6,2.1.8,2.1.3,0,1.4-.8,1.2-1.8-.3-2.5-.6-5.1-1.2-7.5s-1.4-4.8-2.2-7.3c-1.8-5.7-3.9-11.1-5.7-16.7-1.6-5.4-2.7-11-4.2-16.4-.8-2.8-1.3-5.4-1.4-8.3,0-.2,0-.6.2-.7,1.2-.7,2.2-1.6,3.6-1.6.5,1.7.7,3.3,1.2,5.1,1,3.7,2.1,7.4,3.1,11.1.7,2.5,1.6,5,2.4,7.5.7,2.3,1.2,4.7,2,7,.8,2.4,2,4.8,2.9,7.3,1.3,3.3,2.2,6.9,3.6,10.3,1.2,2.8,3.3,7.7,3.9,8.2.6.5,2.1-2.4,1.3-4.2-.2-.6-.5-1.2-.7-1.7-.9-2.5-1.7-5.2-2.7-7.7-1.2-3.1-2.7-6.2-3.7-9.3-2.1-6.3-3.8-12.8-5.7-19.2-1.2-4-2.2-8.2-3.3-12.2-.3-1-.7-2.1-1.2-3,1.2-.7,1.5-.6,1.8.6,1.3,4,2.4,8,3.7,12,1.3,3.8,2.7,7.6,3.9,11.4,1,3,1.7,6,2.9,8.9,1.8,4.6,3.9,9.2,6,13.9,1.5,3.2,2.7,5.9,4.2,9.1,0,.2.6,1.3.9,1.4.3,0,.6-.7.8-1.2.7-1.4.7-1.8,0-3.3-1.7-4.2-3.2-8.5-5-12.7-.9-2.3-8.7-19.2-9.5-26-.2-1.8-.5-3.9-1.4-5.4-2-3.1-2.7-6.6-3.5-10,0-.7,0-1,.7-1.4,2.1-1,4-2.2,6.1-3.3,6.6-3.6,13-7.3,19.6-10.6,5.8-2.9,11.7-5.5,17.4-8.3,1-.5,2-1.3,2.9-2,.2,0,.7-.8.1-1l.5-.7h.2ZM119.3,160.9c-4.4,3.3-8.8,6.6-13,10.2-2.3,2-4.3,4.3-6.3,6.3-.2.3-.7.7-.9.7s-.3-.7,0-1c1.4-1.5,2.8-3.1,4.3-4.4,5.5-4.8,11.1-9.6,16.5-14.4.2-.2.6-.3,1.2-.7-.3,1.4-.5,2.5-1.5,3.3h-.1ZM121.2,152.6c-7.8,6.3-15.1,13.4-22.3,20.5-.7.7-1.4,1.5-2.1,2.2,0,.1-.3.2-.6.3,0,0-.3-.1-.3-.2s1.6-2.3,2.7-3.3c5.3-5.4,10.7-10.8,16.2-16.3,1.7-1.7,3.6-3.1,5.4-4.7.9-.8,1.7-1.7,2.7-2.8.3,2-.2,3.1-1.6,4.3ZM125.9,156.5c-.7-2.2.2-3.8,2.8-5.1.3,2.7-.3,4-2.8,5.1ZM127.4,148.3c0-2.5,0-5,2.7-6.3.9,2.7.2,4.3-2.7,6.3ZM153.4,94.7c.9,3.8,3.5,17.8,4.5,21.6.2.9,0,1.6-1.3,1.8-.8-4.7-1.6-9.6-2.5-14.3,0-.8-1.3-8.3-1-8.3,0-.7.2-1.2.3-.9h0ZM151.6,81.3s1.6,7.7,1.5,8.2c-.2.5-.7,2.2-.9,2.1-.3,0-.7-9.7-.7-9.7l.2-.5h-.1ZM146.1,93.2c.9-2.4,2-4.8,2.9-7.3,0,0,.3-1.4.5-1.4.2,1.4.6,3.7.7,5.1.2,1.6.5,3.2.3,4.8,0,.9-.5,1.8-.8,2.7-.7,2-1.5,3.9-2.4,6.1-.3-.3-.5-.6-.5-.8-.5-2.2-.9-4.4-1.2-6.7,0-.8,0-1.7.5-2.5ZM145,130.7c.8-.6,1.4-1.2,2.2-1.7.7-.6,1.2-.5,1.3.3.2,1,.3,2.2.5,3.2,0,.2,0,.7-.2.8-1.8,1.3-3.7,2.4-5.5,3.7h-.6c.6-2.4.3-5,2.5-6.5h-.1ZM144.3,127.5c.6-3.5,1.7-9.5,1.7-10s0-.8.2-.8c.3,1,.9,2.9,1.2,3.9,0,.3,0,.7.2,1,.3,3.1,0,4-3.2,5.9h-.1ZM133.3,151.8c-.5-4,.8-5.9,3.8-7,.5,2.9-.8,5.3-3.8,7ZM139,138.8c0,.2-.2.5-.3.7-1.3.9-2.5,1.7-4,2.9,0-1,0-1.7.2-2.4.5-1.3.9-2.4,1.5-3.7,0-.3.5-.6.8-.7.9-.2,1.7-.5,2.8-.6-.3,1.3-.6,2.7-.9,3.9h0ZM140.8,129.1c0,.5-.6.9-1,1.3-.8.6-1.7,1-2.8,1.5.7-3.6,1.2-7,2-10.4.8-3.5,1.7-6.8,2.5-10.2.8-3.3,2.3-9.8,2.4-10.2s0-.8.2-.7c.3,2.7,1.3,6.1.5,8.9-.3,1.2-.3,2.5-.6,3.8-.5,2.8-1.2,5.5-1.4,8.3,0,2.7-1,5.2-1.8,7.7h0ZM148.7,142.9c-2.1,1.4-4.2,2.9-6.2,4.3-.3.2-.6.3-.8.6v-5.1c0-.3.2-.8.5-1,2-1.5,3.9-2.9,5.9-4.3.7-.6,1.2-.6,1.8.3,1.3,2.1.9,3.9-1,5.2h-.1ZM150.4,123c0-1-.2-2-.3-2.8-.6-3.6-1.2-7.3-1.8-10.8-.3-1.7.2-3.2.7-4.8.5-1.2,1-2.3,1.6-3.5,0-.2.3-1.7.7-2,.3,1.5.6,4.2.8,5.4.2,1.4.5,2.8.5,4.2-.2,3.1.7,6.1,1.5,9,.6,2.3.7,2.3-1.2,3.6-.7.6-1.4,1-2.3,1.6h-.1ZM155.4,123.4c.3,1.5.7,2.9.9,4.4v.5c-1.3,1.4-2.8,2.4-4.6,3.2-.8-4.7,0-6.7,3.8-8h-.1ZM157.9,138.1c-1.5.7-3,1.2-4.6,1.8-.2-1.4-.5-2.9-.7-4.4,0-.2.2-.5.3-.6,1.3-.9,2.7-1.7,4-2.7.2.3.5.8.6,1.4.3,1.2.6,2.3.8,3.5,0,.3-.2.8-.6,1h.1ZM159.2,126.5s-.9-.6-1-.9c-.2-.9-.2-3.5-.2-3.7s.3-.5.5-.5.3.2.5.5c.3,1.2.6,2.4.8,3.7,0,.2-.3,1-.5,1h0ZM161.6,135.8c-.5,0-.7-.6-.8-.9-.5-1.6-.8-3.2-1-5,0-.2.7-.7.7-.6.8,1.7,1.5,3.5,2.3,5.5-.2.5-.8.9-1.2.9Z"/>
    <g>
      <path class="cls-4" d="M205.1,148.8c-.1-4,1.6-6.8,3.3-8.4,3.8-3.6,11.3-4.4,16.4-4.4s12.5.9,16.2,4.5c2.8,2.7,3.1,6.1,3.1,8.5v14.2c0,1.4,0,2.9.7,3.7.6.7,1.5.8,1.8.8s.9,0,1.3-.2v6.5c-1.7.3-3,.5-4.8.5s-3.9,0-5.7-1c-2-1-2.7-2.7-2.8-3.8-2.5,2.8-5.3,3.9-6.1,4.2-.6.2-3.5,1.3-9.1,1.3s-7.8-.2-11.2-2.7c-2-1.5-4-4-4-8.4s.9-5.1,2.7-6.9c2.1-2.1,4.5-2.9,7.3-3.5,3-.6,5.5-.7,8-.9l2.9-.2c4.5-.5,6.7-.9,7.8-1.8.8-.7.9-1.6.9-2.4,0-2.1-.9-3.2-2.8-4-1.8-.9-4.4-1.2-6.2-1.2-4.2,0-6.3,1.2-6.5,1.3-1.5.8-2.8,2.2-2.7,4.7h-10.5ZM233.6,156.4c-.9.7-1.6.9-2.5,1.2-1.7.5-3.3.6-5,.7l-3.3.3c-2.4.2-4.4.5-5.9,1.5-1.5.9-2,2.2-2,3.8s.6,2.5,1.7,3.3c1.6,1.3,3.8,1.4,5.3,1.4,2.3,0,5.2-.2,7.7-2.2,3-2.3,3.9-5.7,3.9-9.5v-.5h0Z"/>
      <path class="cls-4" d="M280.4,144.4h-.6c-4.4,0-8.9.5-12,3.5-2.8,2.8-3.6,6.9-3.6,12v14.4h-10.5v-36.7h10.2v6.3h.1c1.5-2.8,3.6-4.5,5.7-5.5,2.7-1.3,5.9-1.6,9.5-1.6h1.3v7.6Z"/>
      <path class="cls-4" d="M283.8,148.8c-.1-4,1.6-6.8,3.3-8.4,3.8-3.6,11.3-4.4,16.4-4.4s12.5.9,16.2,4.5c2.8,2.7,3.1,6.1,3.1,8.5v14.2c0,1.4,0,2.9.7,3.7.6.7,1.5.8,1.8.8s.9,0,1.3-.2v6.5c-1.7.3-3,.5-4.8.5s-3.9,0-5.7-1c-2-1-2.7-2.7-2.8-3.8-2.5,2.8-5.3,3.9-6.1,4.2-.6.2-3.5,1.3-9.1,1.3s-7.8-.2-11.2-2.7c-2-1.5-4-4-4-8.4s.9-5.1,2.7-6.9c2.1-2.1,4.5-2.9,7.3-3.5,3-.6,5.5-.7,8-.9l2.9-.2c4.5-.5,6.7-.9,7.8-1.8.8-.7.9-1.6.9-2.4,0-2.1-.9-3.2-2.8-4-1.8-.9-4.4-1.2-6.2-1.2-4.2,0-6.3,1.2-6.5,1.3-1.5.8-2.8,2.2-2.7,4.7h-10.5ZM312.3,156.4c-.9.7-1.6.9-2.5,1.2-1.7.5-3.3.6-5,.7l-3.3.3c-2.4.2-4.4.5-5.9,1.5-1.5.9-2,2.2-2,3.8s.6,2.5,1.7,3.3c1.6,1.3,3.8,1.4,5.3,1.4,2.3,0,5.2-.2,7.7-2.2,3-2.3,3.9-5.7,3.9-9.5v-.5h0Z"/>
      <path class="cls-4" d="M340.7,162.9h0c0,1.3.3,3.2,2.7,4.5.7.3,2.4,1.2,6.5,1.2s5.1-.5,6-.9c2.2-1,2.4-2.8,2.4-3.7,0-1.8-1.2-3-2.7-3.6-.3-.1-1.8-.8-6.5-1.5l-4.5-.7c-5.3-.9-7.8-1.5-9.3-2.4-2.2-1.3-4.5-3.7-4.5-8.1s1-6.7,5.5-9.2c2.4-1.4,6.2-2.5,12.9-2.5s9.3.5,12.6,2.1c5,2.4,5.9,6.1,5.9,9.2h-10.4c0-1.6-.6-2.8-2.3-3.7-1.8-.9-4.5-1-6.1-1-2.4,0-4.2.3-5.4,1.2-1.5.9-2.2,2.3-2.2,3.6s.9,2.3,2.2,2.9c1.6.8,4,1,8.2,1.8l5,.9c3.6.7,6.9,1.5,9.2,3.2,2.4,1.8,3.3,4.5,3.3,7.5s-1.4,6.1-2.8,7.6c-3.8,4.2-10.6,4.4-16.6,4.4s-12.9-.2-16.9-4.4c-2.8-2.8-3-6.1-3-8.1v-.2h10.7,0Z"/>
    </g>
  </g>
</svg>