<?xml version="1.0" encoding="utf-8"?>
<!-- Generator: Adobe Illustrator 28.2.0, SVG Export Plug-In . SVG Version: 6.00 Build 0)  -->
<svg version="1.1" id="Layer_1" xmlns="http://www.w3.org/2000/svg" xmlns:xlink="http://www.w3.org/1999/xlink" x="0px" y="0px"
	 viewBox="0 0 135.8605347 135.8605347" style="enable-background:new 0 0 135.8605347 135.8605347;" xml:space="preserve">
<style type="text/css">
	.st0{fill:#CE2127;}
</style>
<g>
	<polygon class="st0" points="68.6522217,61.7686768 49.3953247,34.2213745 39.1223145,34.2213745 62.9857178,68.3555908 
		65.9847412,72.645813 65.9825439,72.6480103 86.4107056,101.8659668 96.6837158,101.8659668 71.6512451,66.0588989 	"/>
	<path class="st0" d="M67.9302979,0C30.4134521,0,0,30.4133911,0,67.9302368s30.4134521,67.9302979,67.9302979,67.9302979
		s67.9302368-30.4134521,67.9302368-67.9302979S105.4471436,0,67.9302979,0z M83.2634277,106.6730957L62.5909424,76.5892334
		L36.710022,106.6730957h-6.6893921l29.5996704-34.4067993L30.0206299,29.187439H52.597168l19.5753784,28.4873047
		L96.6815186,29.187439h6.6894531L75.1453857,61.9976807h-0.0043945l30.6989746,44.675415H83.2634277z"/>
</g>
</svg>
