<?xml version="1.0" encoding="utf-8"?>
<!-- Generator: Adobe Illustrator 28.2.0, SVG Export Plug-In . SVG Version: 6.00 Build 0)  -->
<svg version="1.1" id="Layer_1" xmlns="http://www.w3.org/2000/svg" xmlns:xlink="http://www.w3.org/1999/xlink" x="0px" y="0px"
	 viewBox="0 0 135.8605347 135.8605347" style="enable-background:new 0 0 135.8605347 135.8605347;" xml:space="preserve">
<style type="text/css">
	.st0{fill:#CE2127;}
</style>
<g>
	<polygon class="st0" points="58.0695801,52.5151367 58.0695801,67.9302368 58.0695801,83.3453979 70.7952881,75.6378174 
		83.5210571,67.9302368 70.7952881,60.2227173 	"/>
	<path class="st0" d="M67.9302368,0C30.4133911,0,0,30.4133911,0,67.9302368s30.4133911,67.9302979,67.9302368,67.9302979
		s67.9302979-30.4134521,67.9302979-67.9302979S105.4470825,0,67.9302368,0z M114.8796997,80.5497437
		c0,11.6131592-9.4143066,21.0276489-21.0275269,21.0276489h-51.84375c-11.6132812,0-21.0276489-9.4144897-21.0276489-21.0276489
		V55.3106689c0-11.6132202,9.4143677-21.0275269,21.0276489-21.0275269h51.84375
		c11.6132202,0,21.0275269,9.4143066,21.0275269,21.0275269V80.5497437z"/>
</g>
</svg>
