<?xml version="1.0" encoding="utf-8"?>
<!-- Generator: Adobe Illustrator 27.5.0, SVG Export Plug-In . SVG Version: 6.00 Build 0)  -->
<svg version="1.1" id="Layer_1" xmlns="http://www.w3.org/2000/svg" xmlns:xlink="http://www.w3.org/1999/xlink" x="0px" y="0px"
	 viewBox="0 0 127.9 176.9" style="enable-background:new 0 0 127.9 176.9;" xml:space="preserve">
<style type="text/css">
	.st0{fill:#FFFFFF;stroke:#FFFFFF;stroke-width:2;stroke-miterlimit:10;}
	.st1{fill:#FFFFFF;stroke:#FFFFFF;stroke-width:1.531;stroke-miterlimit:10;}
</style>
<g>
	<g>
		<path class="st0" d="M119.4,175.9c-41.1,0-69.8,0-110.9,0c-0.3-0.1-0.6-0.2-0.9-0.3c-3.9-0.8-6.6-4-6.6-7.9C1,123,1,78.3,1,33.6
			c0-4.5,3.6-8,8.1-8c4.3,0,2.4,0,6.6,0c0.6,0,1.4-0.3,1.8-0.7c1.4-1.2,3-2,4.8-2.1c3.7-0.2,7.4-0.2,11.1-0.3
			c3.4-0.2,6.9-0.3,10.3-0.9c3-0.5,3.7-1.8,3.8-4.8c0.2-9.7,9.6-17.3,19.2-15.5c8,1.5,13.4,7.9,13.6,16c0,2,0.8,3.4,2.7,3.9
			c1.5,0.4,3.1,0.9,4.6,0.9c5,0.2,10,0.2,15,0.3c2.7,0.1,5.4,0.3,7.6,2.3c0.5,0.4,1.3,0.7,2,0.7c4.3,0.1,2.4,0,6.6,0
			c3.3,0,6.2,2,7.4,5c0.3,0.6,0.5,1.3,0.7,2c0,45.5,0,90.9,0,136.4c-0.1,0.2-0.2,0.5-0.3,0.7c-0.8,2.9-2.7,4.8-5.5,5.8
			C120.6,175.6,120,175.8,119.4,175.9z M15.7,31.1c-4.1,0-1.8,0-5.7,0c-2.4,0-3.3,0.9-3.3,3.3c0,44.1,0,88.3,0,132.4
			c0,2.4,0.8,3.2,3.2,3.2c40.2,0,68,0,108.2,0c2.3,0,3.1-0.9,3.1-3.1c0-44.2,0-88.4,0-132.6c0-2.3-0.9-3.2-3.2-3.2c-3.6,0-1,0-4.5,0
			c-0.4,0-0.8,0.1-1.2,0.1c-0.1,0.3-0.1,0.4-0.1,0.5c0,2.9,0,5.9,0,8.8c0,3.7-2.3,6-6,6c-28.1,0-56.3,0-84.4,0c-0.6,0-1.2,0-1.8-0.2
			c-2.7-0.8-4.2-2.9-4.2-6.2C15.7,37.2,15.7,34.3,15.7,31.1z M21.4,40.9c0.8,0,1.4,0,2.1,0c20.4,0,40.8,0,61.1,0
			c6.7,0,13.5,0,20.2,0c1.4,0,1.7-0.4,1.7-1.7c-0.1-2.7,0-5.4,0-8.1c0-2.4-0.2-2.7-2.7-2.8c-4-0.1-7.9-0.1-11.9-0.3
			c-2.6-0.1-5.2-0.2-7.8-0.6c-6.1-1-8.9-4.1-9.4-10.3c-0.6-8.5-9.5-13.2-16.5-8.7c-3.3,2.1-4.9,5.1-5,9c-0.1,4.8-2.5,8-7.1,9.4
			c-1.4,0.4-2.9,0.8-4.4,0.9c-4.3,0.2-8.6,0.2-12.9,0.3c-1.9,0.1-3.7,0.1-5.6,0.4c-0.7,0.1-1.7,0.7-1.8,1.2
			C21.4,33.3,21.4,37,21.4,40.9z"/>
		<path class="st1" d="M60,17.5c0-2.2,1.7-4,3.9-4c2.3,0,4.1,1.8,4,4c0,2.2-1.8,4-4,4C61.8,21.4,60,19.7,60,17.5z"/>
	</g>
</g>
</svg>
