<?xml version="1.0" encoding="UTF-8"?>
<svg id="Layer_1" data-name="Layer 1" xmlns="http://www.w3.org/2000/svg" version="1.1" viewBox="0 0 50 50">
  <defs>
    <style>
      .cls-1 {
        fill: #000;
        stroke-width: 0px;
      }
    </style>
  </defs>
  <path class="cls-1" d="M25,50C11.2,50,0,38.8,0,25S11.2,0,25,0s25,11.2,25,25-11.2,25-25,25ZM25,3.4C13.1,3.4,3.4,13.1,3.4,25s9.7,21.6,21.6,21.6,21.6-9.7,21.6-21.6S36.9,3.4,25,3.4Z"/>
  <g>
    <polygon class="cls-1" points="30.3 19.5 21.8 19.5 21.3 22.2 23.5 22.2 20.6 38 18.5 38 18 40.6 30.3 40.6 30.8 38 27.1 38 30.3 19.5"/>
    <path class="cls-1" d="M28.5,9.4c-2.2,0-3.9,1.7-3.9,3.9s1.5,3.5,3.5,3.5,3.9-1.7,3.9-3.9-1.5-3.5-3.5-3.5Z"/>
  </g>
</svg>