<?xml version="1.0" encoding="UTF-8"?>
<svg id="Layer_1" data-name="Layer 1" xmlns="http://www.w3.org/2000/svg" version="1.1" viewBox="0 0 515 500">
  <defs>
    <style>
      .cls-1 {
        fill: none;
        stroke: #d49623;
        stroke-miterlimit: 10;
        stroke-width: 8px;
      }
    </style>
  </defs>
  <path class="cls-1" d="M290.5,446.9v44.2c0,2.4,1.9,4.3,4.3,4.3h211.6c2.4,0,4.3-1.9,4.3-4.3V8.8c0-2.4-1.9-4.3-4.3-4.3h-44.8c-3.1,0-5.9,1.9-7,4.8l-161.5,423.1c-1.8,4.7-2.7,9.6-2.7,14.6Z"/>
  <path class="cls-1" d="M4.3,446.9v44.2c0,2.4,1.9,4.3,4.3,4.3h211.6c2.4,0,4.3-1.9,4.3-4.3V8.8c0-2.4-1.9-4.3-4.3-4.3h-44.8c-3.1,0-5.9,1.9-7,4.8L7,432.4c-1.8,4.7-2.7,9.6-2.7,14.6Z"/>
</svg>