<?xml version="1.0" encoding="utf-8"?>
<!-- Generator: Adobe Illustrator 28.2.0, SVG Export Plug-In . SVG Version: 6.00 Build 0)  -->
<svg version="1.1" id="Layer_1" xmlns="http://www.w3.org/2000/svg" xmlns:xlink="http://www.w3.org/1999/xlink" x="0px" y="0px"
	 viewBox="0 0 2638.7678223 3352.1179199" style="enable-background:new 0 0 2638.7678223 3352.1179199;" xml:space="preserve">
<style type="text/css">
	.st0{fill:#64666A;}
</style>
<g>
	<polygon class="st0" points="2196.2910156,3433.892334 1887.6313477,3255.699707 1885.2874756,3259.7856445 
		2186.8666992,3433.892334 	"/>
</g>
<g>
	<polygon class="st0" points="2560.8093262,3433.892334 1887.6313477,3045.2485352 1885.2874756,3049.3364258 
		2551.3808594,3433.892334 	"/>
</g>
<g>
	<polygon class="st0" points="616.6146851,2310.0559082 981.1107788,2520.5026855 978.7416992,2524.5847168 
		614.253418,2314.1452637 	"/>
</g>
<g>
	<polygon class="st0" points="431.9936218,3046.6062012 796.503418,2836.1586914 798.8471069,2840.2429199 
		434.3374023,3050.6940918 	"/>
</g>
<g>
	<polygon class="st0" points="1343.2469482,3151.8132324 1888.8216553,2836.8347168 1888.8216553,2842.2780762 
		1345.5952148,3155.9089355 	"/>
</g>
<g>
	<polygon class="st0" points="616.6146851,1889.1417236 798.8646851,1994.3654785 796.4956055,1998.4512939 
		614.2456055,1893.2305908 	"/>
</g>
<g>
	<path class="st0" d="M1163.3608398,1992.3249512l185.7973633,107.267334
		c-63.0961914,36.4533691-126.2016602,72.9016113-189.3286133,109.310791c0-72.873291,0.0410156-145.7431641-0.0039062-218.6201172
		L1163.3608398,1992.3249512L1163.3608398,1992.3249512z M1339.7236328,2099.588623l-175.1791992-101.1407471l0.0062256,202.2803955
		L1339.7236328,2099.588623L1339.7236328,2099.588623z"/>
</g>
<g>
	<polygon class="st0" points="981.1029663,1893.2305908 616.5892944,2103.6730957 614.2456055,2099.5822754 
		978.7553101,1889.1417236 	"/>
</g>
<g>
	<path class="st0" d="M616.5892944,1678.6885986l365.7011719,211.1328125v426.3529053
		c-123.0741577-71.052002-246.2929688-141.8999023-369.2245483-213.1809082
		c-0.2539062-142.1055908-0.0087891-284.2363281-0.0087891-426.3419189L616.5892944,1678.6885986L616.5892944,1678.6885986z
		 M977.5541992,1892.5324707l-359.7852173-207.7149658l0.0078125,415.4442139l359.7774048,207.7277832V1892.5324707
		L977.5541992,1892.5324707z"/>
</g>
<g>
	<path class="st0" d="M434.3296204,731.6735229l368.0585632,212.4873047l-371.5742798,214.5394897
		c-0.0888062-143.0272827-0.0145874-286.0477905-0.0145874-429.0682983L434.3296204,731.6735229L434.3296204,731.6735229z
		 M792.9467163,944.1574097L435.5209961,737.7975464l0.0068054,412.7230835L792.9467163,944.1574097L792.9467163,944.1574097z"/>
</g>
<g>
	<path class="st0" d="M430.8061218,1158.6964111l-175.1758118,101.1328125l175.1758118,101.1407471V1158.6964111
		L430.8061218,1158.6964111z M249.7378082,1257.788208l185.7899933-107.2640381
		c-0.0419922,72.8706055-0.0068054,145.7469482-0.0068054,218.6195068
		c-63.1210938-36.4121094-126.2285767-72.8564453-189.3320923-109.3100586L249.7378082,1257.788208L249.7378082,1257.788208z"/>
</g>
<g>
	<path class="st0" d="M613.0571289,1474.3682861l-175.1768188,101.1387939l175.1768188,101.1376953V1474.3682861
		L613.0571289,1474.3682861z M431.9868164,1573.4639893l185.789978-107.2617188
		c-0.0410156,72.8710938-0.0078125,145.7480469-0.0078125,218.6181641
		c-63.1200562-36.4140625-126.2284851-72.8543701-189.3300781-109.3076172L431.9868164,1573.4639893L431.9868164,1573.4639893z"/>
</g>
<g>
	<path class="st0" d="M613.0571289,2105.7119141l-357.4268188,206.3605957l357.4268188,206.3637695V2105.7119141
		L613.0571289,2105.7119141z M249.7378082,2310.0275879l368.0390015-212.484375
		c-0.0819702,143.0244141-0.0078125,286.0454102-0.0078125,429.0686035
		c-123.8768616-71.4645996-247.7362671-142.9919434-371.5800781-214.5366211L249.7378082,2310.0275879L249.7378082,2310.0275879z"/>
</g>
<g>
	<path class="st0" d="M616.5892944,2520.4851074l185.7988892,107.2578125L613.0571289,2737.059082
		c-0.0400391-72.8747559,0-145.7399902,0-218.6171875L616.5892944,2520.4851074L616.5892944,2520.4851074z
		 M792.9467163,2627.7429199l-175.1777344-101.138916l0.0078125,202.2792969L792.9467163,2627.7429199L792.9467163,2627.7429199z"/>
</g>
<g>
	<path class="st0" d="M795.315918,2631.8308105l-539.6934204,311.5778809l539.6777954,311.5959473L795.315918,2631.8308105
		L795.315918,2631.8308105z M249.7299042,2941.3659668l550.296875-317.7072754
		c-0.1210938,213.1760254-0.0078125,426.3496094-0.0078125,639.515625
		c-184.6503906-106.517334-369.2518616-213.125-553.8378906-319.765625L249.7299042,2941.3659668L249.7299042,2941.3659668z"/>
</g>
<g>
	<polygon class="st0" points="798.8236694,3046.6003418 981.0853882,3151.8190918 978.737793,3155.9089355 
		796.4799194,3050.6862793 	"/>
</g>
<g>
	<path class="st0" d="M1342.0716553,2737.059082l-175.1737061,101.1350098l175.1697998,101.1367188L1342.0716553,2737.059082
		L1342.0716553,2737.059082z M1161.0014648,2836.1586914l185.7851562-107.2653809
		c0,72.8728027,0.0390625,145.7460938-0.0039062,218.6171875l-189.3261719-109.310791L1161.0014648,2836.1586914
		L1161.0014648,2836.1586914z"/>
</g>
<g>
	<path class="st0" d="M1159.8212891,2421.387207l-357.4331055,206.3557129l357.4295654,206.3632812L1159.8212891,2421.387207
		L1159.8212891,2421.387207z M796.4956055,2625.7019043l368.0405273-212.484375
		c0,143.0273438,0.0786133,286.0407715-0.0083008,429.0683594
		c-123.8604736-71.498291-247.7354126-142.9921875-371.5713501-214.5429688L796.4956055,2625.7019043L796.4956055,2625.7019043z"/>
</g>
<g>
	<path class="st0" d="M981.0853882,2941.3737793l368.0527954,212.4921875
		c-123.8378906,71.5505371-247.6959229,143.0664062-371.5839844,214.5332031
		c0-143.0175781,0.0819702-286.0412598-0.0039062-429.0683594L981.0853882,2941.3737793L981.0853882,2941.3737793z
		 M1339.7010498,3153.8562012l-357.4300537-206.3557129l0.0039062,412.7285156L1339.7010498,3153.8562012L1339.7010498,3153.8562012
		z"/>
</g>
<g>
	<rect x="1884.1055908" y="2836.8347168" class="st0" width="4.7142334" height="597.0576172"/>
</g>
<g>
	<path class="st0" d="M69.8237076,3046.6003418l185.7987976,107.2558594L66.2905045,3263.1743164
		c-0.0409927-72.876709,0-145.751709,0-218.6169434L69.8237076,3046.6003418L69.8237076,3046.6003418z M246.1811066,3153.8562012
		l-175.1796875-101.140625v202.28125L246.1811066,3153.8562012L246.1811066,3153.8562012z"/>
</g>
<g>
	<polygon class="st0" points="1016.3458252,1108.3101807 1467.1662598,848.036499 1471.9191895,850.7372437 
		1018.6940308,1112.4058838 	"/>
</g>
<g>
	<path class="st0" d="M1018.697937,1322.84729l-2.347168-4.0878906l630.9467163-364.2721558l6.3115234,2.1262817"/>
</g>
<g>
	<polygon class="st0" points="431.9868164,942.1144409 614.2280273,836.8927002 616.5971069,840.979126 434.3569031,946.2033081 	
		"/>
</g>
<g>
	<path class="st0" d="M1884.1201172,2846.0771484v-267.4248047l231.6025391,133.7089844L1884.1201172,2846.0771484z
		 M1889.1201172,2587.3125v250.1044922l216.6025391-125.0556641L1889.1201172,2587.3125z"/>
</g>
<g>
	<polygon class="st0" points="1564.8424072,1954.2193604 2293.8464355,2375.0808105 2291.4985352,2379.1687012 
		1562.4986572,1958.3052979 	"/>
</g>
<g>
	<polygon class="st0" points="1564.8424072,1743.7681885 2293.8425293,2164.6394043 2291.4941406,2168.7272949 
		1562.4986572,1747.8560791 	"/>
</g>
<g>
	<polygon class="st0" points="2692.5073242,1933.1246338 2656.0102539,1954.1960449 2658.3581543,1958.276001 
		2692.5073242,1938.560791 	"/>
</g>
<g>
	<polygon class="st0" points="1747.119751,796.7608643 2111.6157227,1007.2077026 2109.2468262,1011.2896729 
		1744.7584229,800.8502808 	"/>
</g>
<g>
	<polygon class="st0" points="1562.4986572,1533.3111572 1927.0084229,1322.8638916 1929.3521729,1326.947876 
		1564.8424072,1537.3990479 	"/>
</g>
<g>
	<polygon class="st0" points="2692.5073242,1512.2235107 2473.7519531,1638.5181885 2476.1003418,1642.6138916 
		2692.5073242,1517.6717529 	"/>
</g>
<g>
	<polygon class="st0" points="1747.119751,375.8468018 1929.369751,481.0704956 1927.0006104,485.1564026 1744.7506104,379.9356995 
			"/>
</g>
<g>
	<path class="st0" d="M2293.8657227,481.0704956l185.7976074,107.2675171
		c-63.0961914,36.453186-126.2019043,72.9013672-189.3286133,109.3106079c0-72.8731079,0.0410156-145.7432251-0.0039062-218.6201172
		L2293.8657227,481.0704956L2293.8657227,481.0704956z M2470.2285156,588.3341064L2295.0495605,487.193512l0.0061035,202.280304
		L2470.2285156,588.3341064L2470.2285156,588.3341064z"/>
</g>
<g>
	<polygon class="st0" points="2111.6079102,379.9356995 1747.0943604,590.3781128 1744.7506104,586.2872925 
		2109.2602539,375.8468018 	"/>
</g>
<g>
	<path class="st0" d="M1747.0943604,165.3937073l365.7010498,211.132782v426.3530273
		c-123.0740967-71.0522461-246.2928467-141.8999023-369.2244873-213.1810913
		c-0.2539062-142.1055298-0.0087891-284.2363281-0.0087891-426.3418274L1747.0943604,165.3937073L1747.0943604,165.3937073z
		 M2108.0593262,379.2374878l-359.7852783-207.7148895l0.0078125,415.4443359l359.7774658,207.7276001V379.2374878
		L2108.0593262,379.2374878z"/>
</g>
<g>
	<path class="st0" d="M1743.5621338-38.9266014L1568.385376,62.212101l175.1767578,101.1376953V-38.9266014L1743.5621338-38.9266014
		z M1562.4918213,60.1690979l185.7900391-107.2617035c-0.0410156,72.8711014-0.0078125,145.7480011-0.0078125,218.618103
		c-63.1201172-36.4140015-126.2285156-72.8544006-189.3300781-109.3076019L1562.4918213,60.1690979L1562.4918213,60.1690979z"/>
</g>
<g>
	<path class="st0" d="M1743.5621338,592.4171143L1386.135376,798.7775269l357.4267578,206.3637695V592.4171143
		L1743.5621338,592.4171143z M1380.2427979,796.732605l368.0390625-212.484375
		c-0.0820312,143.024353-0.0078125,286.0453491-0.0078125,429.0687866
		c-123.8769531-71.4648438-247.7363281-142.9921265-371.5800781-214.5366211L1380.2427979,796.732605L1380.2427979,796.732605z"/>
</g>
<g>
	<path class="st0" d="M1747.0943604,1007.1900635l185.7988281,107.2578125l-189.3310547,109.3164062
		c-0.0400391-72.875,0-145.7402344,0-218.6171875L1747.0943604,1007.1900635L1747.0943604,1007.1900635z M1923.4517822,1114.447876
		l-175.1777344-101.1386719l0.0078125,202.2792969L1923.4517822,1114.447876L1923.4517822,1114.447876z"/>
</g>
<g>
	<path class="st0" d="M1925.8209229,1118.5357666l-539.6933594,311.578125l539.6777344,311.5957031L1925.8209229,1118.5357666
		L1925.8209229,1118.5357666z M1380.2349854,1428.0709229l550.296875-317.7070312
		c-0.1210938,213.1757812-0.0078125,426.3496094-0.0078125,639.515625
		c-184.6503906-106.5174561-369.2519531-213.125-553.8378906-319.765625L1380.2349854,1428.0709229L1380.2349854,1428.0709229z"/>
</g>
<g>
	<polygon class="st0" points="1929.3287354,1533.3052979 2111.590332,1638.5240479 2109.2429199,1642.6138916 
		1926.9849854,1537.3913574 	"/>
</g>
<g>
	<path class="st0" d="M2472.5766602,1223.7642822l-175.1738281,101.1347656l175.1699219,101.1367188L2472.5766602,1223.7642822
		L2472.5766602,1223.7642822z M2291.5063477,1322.8638916l185.7851562-107.265625
		c0,72.8730469,0.0393066,145.7460938-0.0039062,218.6171875l-189.3261719-109.3105469L2291.5063477,1322.8638916
		L2291.5063477,1322.8638916z"/>
</g>
<g>
	<path class="st0" d="M2290.326416,908.0924072l-357.4332275,206.3554688l357.4295654,206.3632812L2290.326416,908.0924072
		L2290.326416,908.0924072z M1927.0006104,1112.4068604l368.0404053-212.484375
		c0,143.0273438,0.0786133,286.0410156-0.0083008,429.0683594
		c-123.8603516-71.4980469-247.7352295-142.9921875-371.571167-214.5429688L1927.0006104,1112.4068604L1927.0006104,1112.4068604z"
		/>
</g>
<g>
	<path class="st0" d="M2111.590332,1428.0787354l368.0529785,212.4923096
		c-123.8378906,71.5506592-247.6960449,143.0664062-371.5839844,214.5332031
		c0-143.0177002,0.0817871-286.0411377-0.0039062-429.0684814L2111.590332,1428.0787354L2111.590332,1428.0787354z
		 M2470.2060547,1640.5611572l-357.4299316-206.3554688l0.0039062,412.7285156L2470.2060547,1640.5611572L2470.2060547,1640.5611572
		z"/>
</g>
<g>
	<path class="st0" d="M2293.8464355,1743.744751l368.0546875,212.5
		c-366.0119629,211.4591064-732.1661377,422.6893311-1098.2188721,634.0704346
		c-123.1865234-70.8398438-246.2197266-142.0292969-369.2304688-213.1679688l368.046875-212.4885254l2.34375,4.0822754
		l-360.9667969,208.40625l359.7871094,207.7226562l1088.7987061-628.6348877l-360.9628906-208.4082031L2293.8464355,1743.744751
		L2293.8464355,1743.744751z"/>
</g>
<g>
	<polygon class="st0" points="1561.3111572,2587.5983887 1561.3189697,1535.354248 1566.0328369,1535.354248 
		1566.026001,2587.5983887 	"/>
</g>
<g>
	<path class="st0" d="M1200.3287354,1533.3052979l185.7988281,107.2558594l-189.3320312,109.3183594
		c-0.0410156-72.8769531,0-145.7519531,0-218.6170654L1200.3287354,1533.3052979L1200.3287354,1533.3052979z
		 M1376.6861572,1640.5611572l-175.1796875-101.1405029v202.2811279L1376.6861572,1640.5611572L1376.6861572,1640.5611572z"/>
</g>
<g>
	<polygon class="st0" points="2692.5073242,1722.6737061 2473.7568359,1848.9674072 2476.1040039,1853.0552979 
		2692.5073242,1728.1182861 	"/>
</g>
<g>
	<polygon class="st0" points="2692.5073242,2394.8046875 2658.3620605,2375.0905762 2655.9929199,2379.1765137 
		2692.5073242,2400.2580566 	"/>
</g>
<g>
	<polygon class="st0" points="2293.8464355,2375.0808105 2476.1040039,2480.309082 2473.7568359,2484.3913574 
		2291.4985352,2379.1687012 	"/>
</g>
<g>
	<path class="st0" d="M2654.8210449,2170.7702637l-359.7910156,207.7128906l0.0026855,204.9960938l179.8955078-103.8554688
		l179.888916,103.8652344L2654.8210449,2170.7702637L2654.8210449,2170.7702637z M2291.4985352,2375.0808105
		l368.0388184-212.4824219c0,143.0270996,0.0766602,286.0429688-0.003418,429.0703125l-184.6057129-106.5976562
		l-184.611084,106.5876465c0-71.9645996,0.1188965-143.9294434-0.0078125-215.892334L2291.4985352,2375.0808105
		L2291.4985352,2375.0808105z"/>
</g>
<g>
	<polygon class="st0" points="2293.8425293,2164.6394043 2476.1000977,2269.8581543 2473.7519531,2273.9460449 
		2291.4941406,2168.7272949 	"/>
</g>
<g>
	<g>
		<path class="st0" d="M1377.885376,31.3101921l3.5302734-2.0415001c0,143.0205078,0.0742188,286.0410156-0.0146484,429.0682983
			l-371.5742798-214.5395203L1377.885376,31.3101921L1377.885376,31.3101921z M1019.2682495,243.7940979l357.4188843,206.3631897
			l0.0068359-412.7230835L1019.2682495,243.7940979L1019.2682495,243.7940979z"/>
	</g>
	<g>
		<path class="st0" d="M1381.4088135,458.3330994v202.273468l175.1757812-101.140686L1381.4088135,458.3330994
			L1381.4088135,458.3330994z M1562.4771729,557.4248657l3.5488281,2.0454102
			c-63.1035156,36.4536133-126.2109375,72.8980103-189.3320312,109.3101196
			c0-72.8726196,0.0351562-145.7490234-0.0068359-218.6195984L1562.4771729,557.4248657L1562.4771729,557.4248657z"/>
	</g>
	<g>
		<polygon class="st0" points="1380.2281494,241.7510986 1197.9869385,136.5293884 1195.6177979,140.615799 
			1377.8580322,245.8399963 		"/>
	</g>
</g>
<g>
	<path class="st0" d="M1051.3417969,2272.1201172v-421.2988281l364.8632812,210.6445312L1051.3417969,2272.1201172z
		 M1056.3417969,1859.4814453v403.9785156l349.8632812-201.9941406L1056.3417969,1859.4814453z"/>
</g>
<g>
	<g>
		<path class="st0" d="M1016.8334351,1464.996582l-464.9301758-268.4130859l469.3712158-271.0054932
			c0.1121216,180.6715088,0.0184326,361.3344727,0.0184326,541.9974365L1016.8334351,1464.996582L1016.8334351,1464.996582z
			 M563.8297729,1196.5877686l451.4987183,260.6729736l-0.008606-521.3501587L563.8297729,1196.5877686L563.8297729,1196.5877686z"
			/>
	</g>
	<g>
		<path class="st0" d="M1021.2843018,925.5829468l221.2813721-127.7505493l-221.2813721-127.760498V925.5829468
			L1021.2843018,925.5829468z M1250.0090332,800.4105835L1015.3198853,935.906189
			c0.0530396-92.0498657,0.008606-184.1070557,0.008606-276.1594238
			c79.7342529,45.9956055,159.451416,92.0320435,239.1635742,138.0800781L1250.0090332,800.4105835L1250.0090332,800.4105835z"/>
	</g>
	<g>
		<polygon class="st0" points="1019.7928467,1199.168457 789.5864868,1332.0841064 786.5938721,1326.9222412 
			1016.7989502,1194.003418 		"/>
	</g>
</g>
</svg>
