<?xml version="1.0" encoding="utf-8"?>
<!-- Generator: Adobe Illustrator 28.2.0, SVG Export Plug-In . SVG Version: 6.00 Build 0)  -->
<svg version="1.1" id="Layer_1" xmlns="http://www.w3.org/2000/svg" xmlns:xlink="http://www.w3.org/1999/xlink" x="0px" y="0px"
	 viewBox="0 0 1002.4 3390.6" style="enable-background:new 0 0 1002.4 3390.6;" xml:space="preserve">
<style type="text/css">
	.st0{fill:#D5D5D5;}
</style>
<g>
	<polygon class="st0" points="1002.4,2847.8 1002.4,2853.2 494.6,2560.1 494.6,2554.6 	"/>
	<polygon class="st0" points="1002.4,2637.3 1002.4,2642.8 494.6,2349.6 494.6,2344.2 	"/>
	<polygon class="st0" points="1002.4,1585.1 1002.4,1590.5 676.8,1402.6 676.8,1397.1 	"/>
	<polygon class="st0" points="854.4,1923.3 854.4,1928.7 496.9,2135.1 492.2,2132.3 	"/>
	<polygon class="st0" points="856.7,1080.1 852,1082.8 676.8,981.7 676.8,976.2 	"/>
	<polygon class="st0" points="1002.4,996 1002.4,1001.5 679.2,1188 676.8,1186.7 676.8,1184 852,1082.8 855.5,1084.9 857.9,1080.8 
		856.7,1080.1 	"/>
	<polygon class="st0" points="857.9,1080.8 856.7,1080.1 852,1082.8 855.6,1084.9 	"/>
	<path class="st0" d="M673.3,979.6l3.5,2V1184l-3.5,2l-1.2,0.7c-0.2-139.4,0-278.8,0-418.2c1.6,0.9,3.1,1.8,4.7,2.7v205l-1.2-0.7
		L673.3,979.6z"/>
	<polygon class="st0" points="1002.4,953.7 1002.4,959.2 676.8,771.2 676.8,765.8 	"/>
	<path class="st0" d="M1002.4,1374.6v5.5c-108.5-62.6-217.1-125.1-325.5-188v-2.7l2.4-1.4L1002.4,1374.6z"/>
	<polygon class="st0" points="675.7,975.6 673.3,979.6 676.8,981.7 676.8,976.2 	"/>
	<path class="st0" d="M676.8,1184.1c0,1.8,0,3.5,0,5.3l2.4-1.4l-2.4-1.4V1184.1z"/>
	<path class="st0" d="M494.6,26.5l-3.5,2l2.4,4.1l1.2-0.7v205l-4.7,2.7c-0.1-79.9-0.1-159.8,0-239.7h4.8v26.6H494.6z"/>
	<polygon class="st0" points="861.4,30.6 494.6,242.4 494.6,236.9 852,30.6 799,0 808.5,0 	"/>
	<path class="st0" d="M494.6,242.4l-4.7,2.7v-5.5L308.8,344.2l-3.5,2c63.1,36.5,126.2,72.9,189.3,109.3
		C494.6,384.5,494.5,313.5,494.6,242.4z M489.9,447.4L314.7,346.2l175.2-101.1V447.4z"/>
	<path class="st0" d="M489.9,239.7c0,1.8,0,3.6,0,5.5l4.7-2.7c0-1.8,0-3.6,0-5.5L489.9,239.7z"/>
	<path class="st0" d="M676.8,552.6L491,659.9l-3.5,2.1c61.5,35.5,123.1,71,184.6,106.5v-5.4l3.5,2l1.2,0.7
		C676.8,694.7,676.8,623.7,676.8,552.6z M672.1,763.1L496.9,661.9l175.2-101.1V763.1z"/>
	<path class="st0" d="M676.8,765.8v5.5c-1.6-0.9-3.1-1.8-4.7-2.7v-5.4l3.5,2L676.8,765.8z"/>
	<polygon class="st0" points="676.8,1184 676.8,1184 676.8,1184 	"/>
	<path class="st0" d="M673.3,1400.6l2.4-4.1l1.1,0.7c0-68.3,0-136.7,0-205c-1.6-0.9-3.1-1.8-4.7-2.7v-2.7l-363.3,209.8l-3.5,2.1
		c122.3,70.6,244.6,141.3,366.9,211.8v-5.4l3.5,2l1.2,0.7c0-68.3,0-136.7,0-205L673.3,1400.6z M672.1,1604.8l-357.4-206.4
		L672.1,1192V1604.8z"/>
	<path class="st0" d="M673.3,1400.6l3.5,2c0-1.8,0-3.6,0-5.5l-1.1-0.7L673.3,1400.6z"/>
	<path class="st0" d="M676.8,1184L676.8,1184L676.8,1184L676.8,1184z"/>
	<path class="st0" d="M676.8,1192.1c0-0.9,0-1.8,0-2.7l-1.2,0.7l-2.3-4.1l3.5-2l0,0l-4.7,2.7c0,0.9,0,1.8,0,2.7
		C673.7,1190.3,675.3,1191.2,676.8,1192.1z"/>
	<path class="st0" d="M676.8,1184l-3.5,2l2.3,4.1l1.2-0.7C676.8,1187.6,676.8,1185.9,676.8,1184L676.8,1184z"/>
	<path class="st0" d="M676.8,1815.3l-4.7,2.7c0-69.2,0-138.5,0-207.7c1.6,0.9,3.1,1.8,4.7,2.7V1815.3z"/>
	<polygon class="st0" points="856.7,1711.4 852,1714.2 852,1714.2 676.8,1613 676.8,1607.6 	"/>
	<polygon class="st0" points="776.4,1763.2 672.1,1823.5 672.1,1823.5 	"/>
	<path class="st0" d="M676.8,1607.6v5.4c-1.6-0.9-3.1-1.8-4.7-2.7v-5.4l3.5,2L676.8,1607.6z"/>
	<path class="st0" d="M859,2139.1c0,70.2,0,140.3,0,210.5c-121.5-70.1-243-140.2-364.5-210.4v-2.8l2.4-1.4l357.4,206.4v-412.7l3.5-2
		l-2.3-4.1l-1.2,0.7v-205l2.4-1.4c0.8,0.5,1.6,0.9,2.3,1.4c-0.1,138.5-0.1,277,0,415.4l-1.2-0.7l-2.4,4.1L859,2139.1z"/>
	<path class="st0" d="M672.1,1823.5l-357.4,206.3l177.5,102.5l-1.2,0.7l1.2,2h-2.3v1.4c-61.6-35.5-123.1-71.1-184.6-106.6l3.5-2
		L672.1,1818V1823.5z"/>
	<path class="st0" d="M859.1,1710.1L859.1,1710.1l-2.3,1.4l0,0L859.1,1710.1z"/>
	<polygon class="st0" points="777.8,1757 676.8,1815.3 676.8,1815.3 	"/>
	<polygon class="st0" points="492.2,2132.3 491,2133 492.2,2135.1 494.6,2135.1 494.6,2136.4 496.9,2135.1 	"/>
	<polygon class="st0" points="857.9,1926.7 855.6,1922.6 854.4,1923.3 854.4,1928.7 	"/>
	<path class="st0" d="M852,1714.2c1.6,0.9,3.1,1.8,4.7,2.7l-2.4,1.4l-78,45L672,1823.5v-5.5l4.7-2.7l0,0l100.9-58.3L852,1714.2
		L852,1714.2z"/>
	<polygon class="st0" points="855.5,1712.1 852,1714.2 856.7,1711.4 856.7,1711.4 	"/>
	<polygon class="st0" points="1002.4,2216.4 1002.4,2221.9 859,2139.1 859,2133.7 	"/>
	<path class="st0" d="M855.5,2137.1l3.5,2c0-1.8,0-3.6,0-5.4l-1.2-0.7L855.5,2137.1z"/>
	<polygon class="st0" points="1002.4,1627.4 1002.4,1632.8 861.4,1714.2 859.1,1712.8 859.1,1710.1 	"/>
	<path class="st0" d="M1002.4,1795.5v5.5c-47.8-27.6-95.5-55.2-143.3-82.8v-2.7l2.4-1.4L1002.4,1795.5z"/>
	<path class="st0" d="M859.1,1715.5l2.4-1.4l-2.4-1.4C859.1,1713.7,859.1,1714.6,859.1,1715.5z"/>
	<path class="st0" d="M859.1,1718.2c0-0.9,0-1.8,0-2.7l-2.4,1.4C857.5,1717.3,858.3,1717.8,859.1,1718.2z"/>
	<path class="st0" d="M859.1,1710.1l-2.4,1.4l2.4,1.4C859.1,1711.9,859.1,1711,859.1,1710.1z"/>
	<path class="st0" d="M856.7,1711.4l-1.2,0.7l-3.5,2c1.6,0.9,3.1,1.8,4.7,2.7l2.4-1.4c0-0.9,0-1.8,0-2.7L856.7,1711.4z"/>
	<path class="st0" d="M1002.4,2890v5.5c-170,98.2-340.1,196.3-510.1,294.5C369,3119.2,246,3048,123,2976.9L489.9,2765v5.4
		l-357.5,206.5l357.4,206.4v4.1h4.7v-4.1L1002.4,2890z"/>
	<path class="st0" d="M493.4,2343.5l-2.3,4.1l3.5,2v205l-1.2-0.7l-2.3,4.1l3.5,2v623.2l-2.4,1.4l-2.3-1.4v-412.7l3.5-2l-2.3-4.1
		l-1.2,0.7v-628.6c1.6,0.9,3.1,1.8,4.7,2.7v205L493.4,2343.5z"/>
	<polygon class="st0" points="493.4,2553.9 491,2558 494.6,2560.1 494.6,2554.6 	"/>
	<polygon class="st0" points="491,2347.6 494.6,2349.6 494.6,2344.2 493.4,2343.5 	"/>
	<path class="st0" d="M494.6,2136.4l-1.2,0.7l-1.2-2h-2.4v1.4c1.6,0.9,3.1,1.8,4.7,2.7v-2.8H494.6z"/>
	<polygon class="st0" points="492.2,2135.1 493.4,2137.1 494.6,2136.4 494.6,2135.1 	"/>
	<polygon class="st0" points="489.9,3183.2 489.9,3187.3 494.6,3187.3 494.6,3183.2 492.2,3184.6 	"/>
	<polygon class="st0" points="493.4,2768.5 491,2764.4 489.9,2765.1 489.9,2770.5 	"/>
	<path class="st0" d="M128.9,2133l-3.5-2.1c0,72.9-0.1,145.7,0,218.6l189.3-109.3L128.9,2133z M130.1,2139.1l175.2,101.1
		l-175.2,101.2V2139.1z"/>
	<polygon class="st0" points="549.9,0 494.6,31.9 494.6,26.5 540.4,0 	"/>
	<polygon class="st0" points="491,28.5 493.4,32.6 494.6,31.9 494.6,26.5 	"/>
	<polygon class="st0" points="1002.4,3098 1002.4,3103.4 505,3390.6 495.6,3390.6 	"/>
	<polygon class="st0" points="1002.4,63.9 622.9,283 847.1,412.5 845.6,413.3 848.6,418.5 853.1,415.9 1002.4,502.1 1002.4,509 
		611,283 1002.4,57 	"/>
	<polygon class="st0" points="1002.4,322.9 1002.4,329.8 853.1,415.9 847.1,412.5 	"/>
	<polygon class="st0" points="845.6,413.3 848.6,418.5 853.1,415.9 847.1,412.5 	"/>
	<g>
		<path class="st0" d="M6,2827.4v-421.3l364.9,210.6L6,2827.4z M11,2414.7v404l349.9-202L11,2414.7z"/>
	</g>
</g>
</svg>
