<?xml version="1.0" encoding="utf-8"?>
<!-- Generator: Adobe Illustrator 28.3.0, SVG Export Plug-In . SVG Version: 6.00 Build 0)  -->
<svg version="1.1" id="Layer_1" xmlns="http://www.w3.org/2000/svg" xmlns:xlink="http://www.w3.org/1999/xlink" x="0px" y="0px"
	 viewBox="0 0 7702.3 490.8" style="enable-background:new 0 0 7702.3 490.8;" xml:space="preserve">
<style type="text/css">
	.st0{fill:#404452;}
</style>
<g>
	<g>
		<polygon class="st0" points="146.7,1627 564.9,1868.4 563.6,1870.7 145.4,1629.4 		"/>
	</g>
	<g>
		<polygon class="st0" points="146.7,1506.3 564.9,1747.7 563.6,1750.1 145.4,1508.6 		"/>
	</g>
	<g>
		<polygon class="st0" points="772.7,1627 981.1,1506.7 981.1,1509.8 774,1629.3 		"/>
	</g>
	<g>
		<polygon class="st0" points="251.3,963 460.4,1083.8 459,1086.1 249.9,965.4 		"/>
	</g>
	<g>
		<polygon class="st0" points="145.4,1385.6 354.5,1264.8 355.8,1267.2 146.7,1387.9 		"/>
	</g>
	<g>
		<polygon class="st0" points="668.1,1445.9 981.1,1265.2 981.1,1268.3 669.5,1448.3 		"/>
	</g>
	<g>
		<polygon class="st0" points="251.3,721.6 355.8,781.9 354.5,784.3 249.9,723.9 		"/>
	</g>
	<g>
		<path class="st0" d="M564.9,780.8l106.6,61.6c-36.2,20.9-72.4,41.8-108.6,62.7c0-41.8,0-83.6,0-125.4L564.9,780.8L564.9,780.8z
			 M666.1,842.3l-100.5-58v116L666.1,842.3L666.1,842.3z"/>
	</g>
	<g>
		<polygon class="st0" points="460.4,723.9 251.3,844.6 249.9,842.3 459,721.6 		"/>
	</g>
	<g>
		<path class="st0" d="M251.3,600.9L461.1,722v244.6c-70.6-40.8-141.3-81.4-211.8-122.3c-0.2-81.5,0-163,0-244.5L251.3,600.9
			L251.3,600.9z M458.3,723.5L251.9,604.4v238.3l206.4,119.1V723.5L458.3,723.5z"/>
	</g>
	<g>
		<path class="st0" d="M146.7,57.6l211.2,121.9L144.7,302.6c-0.1-82,0-164.1,0-246.1L146.7,57.6L146.7,57.6z M352.4,179.5
			l-205-118.4v236.7L352.4,179.5L352.4,179.5z"/>
	</g>
	<g>
		<path class="st0" d="M144.7,302.6l-100.5,58l100.5,58V302.6L144.7,302.6z M40.8,359.4l106.6-61.6c0,41.8,0,83.6,0,125.4
			c-36.2-20.9-72.4-41.8-108.6-62.7L40.8,359.4L40.8,359.4z"/>
	</g>
	<g>
		<path class="st0" d="M249.2,483.6l-100.5,58.1l100.5,58V483.6L249.2,483.6z M145.4,540.5L252,478.9c0,41.8,0,83.6,0,125.4
			c-36.2-20.9-72.4-41.8-108.6-62.7L145.4,540.5L145.4,540.5z"/>
	</g>
	<g>
		<path class="st0" d="M249.2,845.8l-205,118.4l205,118.4V845.8L249.2,845.8z M40.8,963l211.1-121.9c-0.1,82,0,164.1,0,246.1
			c-71.1-41-142.1-82-213.2-123L40.8,963L40.8,963z"/>
	</g>
	<g>
		<path class="st0" d="M251.3,1083.7l106.6,61.6L249.3,1208c0-41.8,0-83.6,0-125.4L251.3,1083.7L251.3,1083.7z M352.4,1145.3
			l-100.5-58v116L352.4,1145.3L352.4,1145.3z"/>
	</g>
	<g>
		<path class="st0" d="M353.8,1147.6L44.2,1326.4l309.6,178.7V1147.6L353.8,1147.6z M40.8,1325.2l315.7-182.2
			c-0.1,122.3,0,244.5,0,366.8c-106-61.1-211.8-122.2-317.7-183.4L40.8,1325.2L40.8,1325.2z"/>
	</g>
	<g>
		<polygon class="st0" points="355.8,1385.6 460.3,1445.9 459,1448.3 354.4,1387.9 		"/>
	</g>
	<g>
		<path class="st0" d="M667.4,1208l-100.5,58l100.5,58V1208L667.4,1208z M563.6,1264.8l106.6-61.6c0,41.8,0,83.6,0,125.4L561.6,1266
			L563.6,1264.8L563.6,1264.8z"/>
	</g>
	<g>
		<path class="st0" d="M562.9,1026.9l-205,118.4l205,118.4V1026.9L562.9,1026.9z M354.5,1144.1l211.1-121.9c0,82,0.1,164.1,0,246.1
			c-71.1-41-142.1-82-213.2-123L354.5,1144.1L354.5,1144.1z"/>
	</g>
	<g>
		<path class="st0" d="M460.3,1325.2l211.2,121.9c-71,41.1-142.1,82.1-213.2,123c0-82,0.1-164.1,0-246.1L460.3,1325.2L460.3,1325.2z
			 M666.1,1447.1l-205-118.4v236.7L666.1,1447.1L666.1,1447.1z"/>
	</g>
	<g>
		<path class="st0" d="M564.9,1506.3l211.2,121.9c-210,121.3-420,242.5-630,363.7c-70.7-40.6-141.2-81.5-211.8-122.3l211.1-121.9
			l1.3,2.4l-207.1,119.5L146,1988.7l624.6-360.6l-207.1-119.5L564.9,1506.3L564.9,1506.3z"/>
	</g>
	<g>
		<polygon class="st0" points="144.7,1990.4 144.7,1386.7 147.4,1386.7 147.4,1990.4 		"/>
	</g>
	<g>
		<path class="st0" d="M-62.4,1385.6l106.6,61.6l-108.6,62.7c0-41.8,0-83.6,0-125.4L-62.4,1385.6L-62.4,1385.6z M38.8,1447.1
			l-100.5-58v116L38.8,1447.1L38.8,1447.1z"/>
	</g>
	<g>
		<path class="st0" d="M774,1868.4l207.1,119.5v3.2l-208.4-120.3L774,1868.4L774,1868.4z M981.1,1389.1L669.5,1569l-1.3-2.4
			l313-180.7L981.1,1389.1L981.1,1389.1z"/>
	</g>
	<g>
		<polygon class="st0" points="1294.1,1445.9 981.1,1265.2 981.1,1268.3 1292.7,1448.3 		"/>
	</g>
	<g>
		<polygon class="st0" points="480.6,273.7 739.2,124.4 741.9,125.9 482,276 		"/>
	</g>
	<g>
		<path class="st0" d="M482,396.7l-1.3-2.4l361.9-209l3.6,1.2L482,396.7z"/>
	</g>
	<g>
		<polygon class="st0" points="564.9,1868.4 669.5,1928.8 668.1,1931.1 563.6,1870.7 		"/>
	</g>
	<g>
		<path class="st0" d="M772,1751.2l-206.4,119.1v117.6l103.2-59.6l103.2,59.6V1751.2L772,1751.2z M563.6,1868.4l211.1-121.9
			c0,82,0.1,164.1,0,246.1l-105.9-61.1l-105.9,61.1c0-41.3,0.1-82.5,0-123.8L563.6,1868.4L563.6,1868.4z"/>
	</g>
	<g>
		<polygon class="st0" points="564.9,1747.7 669.5,1808.1 668.1,1810.4 563.6,1750.1 		"/>
	</g>
	<g>
		<polygon class="st0" points="145.4,178.3 249.9,118 251.3,120.3 146.7,180.7 		"/>
	</g>
	<g>
		<path class="st0" d="M169.3,2097.7l289-166.9v166.9h2.8c0-57.2,0-114.4,0-171.5l-297.1,171.5H169.3z"/>
	</g>
	<g>
		<path class="st0" d="M-147.8,1809.4v-241.7l209.3,120.8L-147.8,1809.4z M-145,1572.6v231.7l200.7-115.9L-145,1572.6z"/>
	</g>
	<g>
		<polygon class="st0" points="795.2,758.9 1213.4,1000.3 1212.1,1002.7 793.9,761.3 		"/>
	</g>
	<g>
		<polygon class="st0" points="795.2,638.2 1213.4,879.6 1212.1,882 793.9,640.5 		"/>
	</g>
	<g>
		<polygon class="st0" points="1421.2,758.9 1629.6,638.6 1629.6,641.7 1422.5,761.2 		"/>
	</g>
	<g>
		<polygon class="st0" points="899.8,94.9 1108.9,215.7 1107.5,218 898.4,97.3 		"/>
	</g>
	<g>
		<polygon class="st0" points="793.9,517.5 1003,396.7 1004.3,399.1 795.2,519.8 		"/>
	</g>
	<g>
		<polygon class="st0" points="1316.6,577.8 1629.6,397.1 1629.6,400.2 1318,580.2 		"/>
	</g>
	<g>
		<polygon class="st0" points="899.8,-146.5 1004.3,-86.2 1003,-83.8 898.4,-144.2 		"/>
	</g>
	<g>
		<path class="st0" d="M1213.4-86.2L1320-24.6c-36.2,20.9-72.4,41.8-108.6,62.7c0-41.8,0-83.6,0-125.4L1213.4-86.2L1213.4-86.2z
			 M1314.6-24.6l-100.5-58v116L1314.6-24.6L1314.6-24.6z"/>
	</g>
	<g>
		<polygon class="st0" points="1108.9,-144.2 899.8,-23.5 898.4,-25.8 1107.5,-146.5 		"/>
	</g>
	<g>
		<path class="st0" d="M899.8-267.2l209.8,121.1V98.5C1039,57.7,968.3,17.1,897.8-23.8c-0.2-81.5,0-163,0-244.5L899.8-267.2
			L899.8-267.2z M1106.8-144.6L900.4-263.7v238.3l206.4,119.1V-144.6L1106.8-144.6z"/>
	</g>
	<g>
		<path class="st0" d="M897.7-384.4l-100.5,58l100.5,58.1V-384.4L897.7-384.4z M793.9-327.6l106.6-61.6c0,41.8,0,83.6,0,125.4
			c-36.2-20.9-72.4-41.8-108.6-62.7L793.9-327.6L793.9-327.6z"/>
	</g>
	<g>
		<path class="st0" d="M897.7-22.3l-205,118.4l205,118.4V-22.3L897.7-22.3z M689.3,94.9L900.4-27c-0.1,82,0,164.1,0,246.1
			c-71.1-41-142.1-82-213.2-123L689.3,94.9L689.3,94.9z"/>
	</g>
	<g>
		<path class="st0" d="M899.8,215.7l106.6,61.6l-108.6,62.7c0-41.8,0-83.6,0-125.4L899.8,215.7L899.8,215.7z M1000.9,277.2
			l-100.5-58v116L1000.9,277.2L1000.9,277.2z"/>
	</g>
	<g>
		<path class="st0" d="M1002.3,279.5L692.7,458.3L1002.3,637V279.5L1002.3,279.5z M689.3,457.1L1005,274.8
			c-0.1,122.3,0,244.5,0,366.8c-106-61.1-211.8-122.2-317.7-183.4L689.3,457.1L689.3,457.1z"/>
	</g>
	<g>
		<polygon class="st0" points="1004.3,517.5 1108.9,577.8 1107.5,580.2 1002.9,519.8 		"/>
	</g>
	<g>
		<path class="st0" d="M1315.9,339.9l-100.5,58l100.5,58V339.9L1315.9,339.9z M1212.1,396.7l106.6-61.6c0,41.8,0,83.6,0,125.4
			l-108.6-62.7L1212.1,396.7L1212.1,396.7z"/>
	</g>
	<g>
		<path class="st0" d="M1211.4,158.8l-205,118.4l205,118.4V158.8L1211.4,158.8z M1003,276l211.1-121.9c0,82,0.1,164.1,0,246.1
			c-71.1-41-142.1-82-213.2-123L1003,276L1003,276z"/>
	</g>
	<g>
		<path class="st0" d="M1108.9,457.1L1320,579c-71,41.1-142.1,82.1-213.2,123c0-82,0.1-164.1,0-246.1L1108.9,457.1L1108.9,457.1z
			 M1314.6,579l-205-118.4v236.7L1314.6,579L1314.6,579z"/>
	</g>
	<g>
		<path class="st0" d="M1213.4,638.2l211.2,121.9c-210,121.3-420,242.5-630,363.7c-70.7-40.6-141.2-81.5-211.8-122.3l211.1-121.9
			l1.3,2.4l-207.1,119.5l206.4,119.1l624.6-360.6L1212,640.5L1213.4,638.2L1213.4,638.2z"/>
	</g>
	<g>
		<polygon class="st0" points="793.2,1122.3 793.2,518.6 795.9,518.6 795.9,1122.3 		"/>
	</g>
	<g>
		<path class="st0" d="M586.1,517.5L692.7,579l-108.6,62.6c0-41.8,0-83.6,0-125.4L586.1,517.5L586.1,517.5z M687.3,579l-100.5-58
			v116L687.3,579L687.3,579z"/>
	</g>
	<g>
		<path class="st0" d="M1422.5,1000.4l207.1,119.5v3.2l-208.4-120.3L1422.5,1000.4L1422.5,1000.4z M1629.6,521L1318,700.9l-1.3-2.4
			l313-180.7L1629.6,521L1629.6,521z"/>
	</g>
	<g>
		<polygon class="st0" points="1213.4,1000.3 1318,1060.7 1316.6,1063.1 1212.1,1002.7 		"/>
	</g>
	<g>
		<path class="st0" d="M1420.5,883.1l-206.4,119.1v117.6l103.2-59.6l103.2,59.6L1420.5,883.1L1420.5,883.1z M1212.1,1000.3
			l211.1-121.9c0,82,0.1,164.1,0,246.1l-105.9-61.1l-105.9,61.1c0-41.3,0.1-82.5,0-123.8L1212.1,1000.3L1212.1,1000.3z"/>
	</g>
	<g>
		<polygon class="st0" points="1213.4,879.6 1318,940 1316.6,942.3 1212.1,882 		"/>
	</g>
	<g>
		<g>
			<path class="st0" d="M795.2-810.5l211.2,121.9l-213.2,123c-0.1-82,0-164.1,0-246.1L795.2-810.5L795.2-810.5z M1000.9-688.6
				l-205-118.3v236.7L1000.9-688.6L1000.9-688.6z"/>
		</g>
		<g>
			<path class="st0" d="M793.2-565.5l-100.5,58l100.5,58V-565.5L793.2-565.5z M689.3-508.6l106.6-61.6c0,41.8,0,83.6,0,125.4
				c-36.2-20.9-72.4-41.8-108.6-62.7L689.3-508.6L689.3-508.6z"/>
		</g>
		<g>
			<polygon class="st0" points="793.9,-689.7 898.4,-750.1 899.8,-747.8 795.2,-687.4 			"/>
		</g>
	</g>
	<g>
		<path class="st0" d="M500.7,941.3V699.6L710,820.4L500.7,941.3z M503.5,704.5v231.7l200.7-115.9L503.5,704.5z"/>
	</g>
	<g>
		<g>
			<path class="st0" d="M480.9,478.3l-266.7-154l269.3-155.5c0.1,103.7,0,207.3,0,310.9L480.9,478.3L480.9,478.3z M221,324.3
				l259,149.5V174.8L221,324.3L221,324.3z"/>
		</g>
		<g>
			<path class="st0" d="M483.4,168.8l126.9-73.3L483.4,22.2V168.8L483.4,168.8z M614.6,97.1L480,174.8c0.1-52.8,0-105.6,0-158.4
				c45.7,26.4,91.5,52.8,137.2,79.2L614.6,97.1L614.6,97.1z"/>
		</g>
		<g>
			<polygon class="st0" points="482.6,325.8 350.5,402 348.8,399.1 480.9,322.8 			"/>
		</g>
	</g>
	<g>
		<polygon class="st0" points="1527.1,1627 1945.3,1868.4 1943.9,1870.7 1525.7,1629.4 		"/>
	</g>
	<g>
		<polygon class="st0" points="1527.1,1506.3 1945.3,1747.7 1943.9,1750.1 1525.7,1508.6 		"/>
	</g>
	<g>
		<polygon class="st0" points="1631.6,963 1840.7,1083.8 1839.4,1086.1 1630.3,965.4 		"/>
	</g>
	<g>
		<polygon class="st0" points="1525.7,1385.6 1734.8,1264.8 1736.2,1267.2 1527.1,1387.9 		"/>
	</g>
	<g>
		<polygon class="st0" points="1631.6,721.6 1736.2,781.9 1734.8,784.3 1630.3,723.9 		"/>
	</g>
	<g>
		<path class="st0" d="M1945.3,780.8l106.6,61.6c-36.2,20.9-72.4,41.8-108.6,62.7c0-41.8,0-83.6,0-125.4L1945.3,780.8L1945.3,780.8z
			 M2046.4,842.3l-100.5-58.1v116L2046.4,842.3L2046.4,842.3z"/>
	</g>
	<g>
		<polygon class="st0" points="1840.7,723.9 1631.6,844.6 1630.3,842.3 1839.4,721.6 		"/>
	</g>
	<g>
		<path class="st0" d="M1631.6,600.9L1841.4,722v244.6c-70.6-40.8-141.3-81.4-211.8-122.3c-0.2-81.5,0-163,0-244.5L1631.6,600.9
			L1631.6,600.9z M1838.7,723.5l-206.4-119.1v238.3l206.4,119.1V723.5L1838.7,723.5z"/>
	</g>
	<g>
		<path class="st0" d="M1527.1,57.6l211.2,121.9l-213.2,123c-0.1-82,0-164.1,0-246.1L1527.1,57.6L1527.1,57.6z M1732.8,179.5
			l-205-118.3v236.7L1732.8,179.5L1732.8,179.5z"/>
	</g>
	<g>
		<path class="st0" d="M1525,302.6l-100.5,58l100.5,58V302.6L1525,302.6z M1421.2,359.4l106.6-61.6c0,41.8,0,83.6,0,125.4
			c-36.2-20.9-72.4-41.8-108.6-62.7L1421.2,359.4L1421.2,359.4z"/>
	</g>
	<g>
		<path class="st0" d="M1629.6,483.6l-100.5,58l100.5,58V483.6L1629.6,483.6z M1525.7,540.5l106.6-61.6c0,41.8,0,83.6,0,125.4
			c-36.2-20.9-72.4-41.8-108.6-62.7L1525.7,540.5L1525.7,540.5z"/>
	</g>
	<g>
		<path class="st0" d="M1632.3,841.1l-211,121.8v2.5c70.3,40.6,140.7,81.2,211,121.8C1632.3,1005.2,1632.2,923.2,1632.3,841.1z
			 M1629.6,1082.6l-205-118.4l205-118.4V1082.6z"/>
	</g>
	<g>
		<path class="st0" d="M1631.6,1083.7l106.6,61.6l-108.6,62.7c0-41.8,0-83.6,0-125.4L1631.6,1083.7L1631.6,1083.7z M1732.8,1145.3
			l-100.5-58v116L1732.8,1145.3L1732.8,1145.3z"/>
	</g>
	<g>
		<path class="st0" d="M1734.2,1147.6l-309.6,178.7l309.6,178.7V1147.6L1734.2,1147.6z M1421.2,1325.2l315.7-182.2
			c-0.1,122.3,0,244.5,0,366.8c-106-61.1-211.8-122.2-317.7-183.4L1421.2,1325.2L1421.2,1325.2z"/>
	</g>
	<g>
		<polygon class="st0" points="1736.2,1385.6 1840.7,1445.9 1839.4,1448.3 1734.8,1387.9 		"/>
	</g>
	<g>
		<path class="st0" d="M2047.8,1208l-100.5,58l100.5,58V1208L2047.8,1208z M1943.9,1264.8l106.6-61.6c0,41.8,0,83.6,0,125.4
			l-108.6-62.7L1943.9,1264.8L1943.9,1264.8z"/>
	</g>
	<g>
		<path class="st0" d="M1943.2,1026.9l-205,118.4l205,118.4V1026.9L1943.2,1026.9z M1734.8,1144.1l211.1-121.9
			c0,82,0.1,164.1,0,246.1c-71.1-41-142.1-82-213.2-123L1734.8,1144.1L1734.8,1144.1z"/>
	</g>
	<g>
		<path class="st0" d="M1840.7,1325.2l211.2,121.9c-71,41.1-142.1,82.1-213.2,123c0-82,0.1-164.1,0-246.1L1840.7,1325.2
			L1840.7,1325.2z M2046.4,1447.1l-205-118.4v236.7L2046.4,1447.1L2046.4,1447.1z"/>
	</g>
	<g>
		<path class="st0" d="M1945.3,1506.3l211.2,121.9c-210,121.3-420,242.5-630,363.7c-70.7-40.6-141.2-81.5-211.8-122.3l211.1-121.9
			l1.3,2.4L1320,1869.6l206.4,119.1l624.6-360.6l-207.1-119.5L1945.3,1506.3L1945.3,1506.3z"/>
	</g>
	<g>
		<polygon class="st0" points="1525,1990.4 1525,1386.7 1527.8,1386.7 1527.8,1990.4 		"/>
	</g>
	<g>
		<rect x="979.8" y="1267.8" class="st0" width="2.7" height="829.9"/>
	</g>
	<g>
		<path class="st0" d="M1292,1444.8l106.6,61.6L1290,1569c0-41.8,0-83.6,0-125.4L1292,1444.8L1292,1444.8z M1393.2,1506.3l-100.5-58
			v116L1393.2,1506.3L1393.2,1506.3z"/>
	</g>
	<g>
		<polygon class="st0" points="1860.9,273.7 2119.5,124.4 2122.3,125.9 1862.2,276 		"/>
	</g>
	<g>
		<path class="st0" d="M1862.2,396.7l-1.3-2.4l361.9-209l3.6,1.2L1862.2,396.7z"/>
	</g>
	<g>
		<polygon class="st0" points="1945.3,1868.4 2049.8,1928.8 2048.5,1931.1 1943.9,1870.7 		"/>
	</g>
	<g>
		<path class="st0" d="M2152.3,1751.2l-206.4,119.1v117.6l103.2-59.6l103.2,59.6L2152.3,1751.2L2152.3,1751.2z M1943.9,1868.4
			l211.1-121.9c0,82,0.1,164.1,0,246.1l-105.8-61.1l-105.9,61.1c0-41.3,0.1-82.5,0-123.8L1943.9,1868.4L1943.9,1868.4z"/>
	</g>
	<g>
		<polygon class="st0" points="1945.3,1747.7 2049.8,1808.1 2048.5,1810.4 1943.9,1750.1 		"/>
	</g>
	<g>
		<polygon class="st0" points="1525.7,178.3 1630.3,118 1631.6,120.3 1527.1,180.7 		"/>
	</g>
	<g>
		<path class="st0" d="M1549.7,2097.7l289-166.9v166.9h2.8c0-57.2,0-114.4,0-171.5l-297.1,171.5H1549.7z"/>
	</g>
	<g>
		<path class="st0" d="M1185.3,1866v-241.7l209.3,120.8L1185.3,1866z M1188.2,1629.3v231.7l200.7-115.9L1188.2,1629.3z"/>
	</g>
	<g>
		<polygon class="st0" points="2175.6,758.9 2593.8,1000.3 2592.4,1002.7 2174.2,761.3 		"/>
	</g>
	<g>
		<polygon class="st0" points="2175.6,638.2 2593.8,879.6 2592.4,882 2174.2,640.5 		"/>
	</g>
	<g>
		<polygon class="st0" points="2801.5,758.9 3009.9,638.6 3009.9,641.7 2802.8,761.2 		"/>
	</g>
	<g>
		<polygon class="st0" points="2280.1,94.9 2489.2,215.7 2487.9,218 2278.8,97.3 		"/>
	</g>
	<g>
		<polygon class="st0" points="2174.2,517.5 2383.3,396.7 2384.7,399.1 2175.6,519.8 		"/>
	</g>
	<g>
		<polygon class="st0" points="2280.1,-146.5 2384.7,-86.2 2383.3,-83.8 2278.8,-144.2 		"/>
	</g>
	<g>
		<path class="st0" d="M2593.8-86.2l106.6,61.6c-36.2,20.9-72.4,41.8-108.6,62.7c0-41.8,0-83.6,0-125.4L2593.8-86.2L2593.8-86.2z
			 M2694.9-24.6l-100.5-58v116L2694.9-24.6L2694.9-24.6z"/>
	</g>
	<g>
		<polygon class="st0" points="2489.2,-144.2 2280.1,-23.5 2278.8,-25.8 2487.9,-146.5 		"/>
	</g>
	<g>
		<path class="st0" d="M2280.1-267.2l209.8,121.1V98.5c-70.6-40.8-141.3-81.4-211.8-122.3c-0.2-81.5,0-163,0-244.5L2280.1-267.2
			L2280.1-267.2z M2487.2-144.6l-206.4-119.1v238.3l206.4,119.1V-144.6L2487.2-144.6z"/>
	</g>
	<g>
		<path class="st0" d="M2278.1-384.4l-100.5,58l100.5,58.1V-384.4L2278.1-384.4z M2174.2-327.6l106.6-61.6c0,41.8,0,83.6,0,125.4
			c-36.2-20.9-72.4-41.8-108.6-62.7L2174.2-327.6L2174.2-327.6z"/>
	</g>
	<g>
		<path class="st0" d="M2278.1-22.3l-205,118.4l205,118.4V-22.3L2278.1-22.3z M2069.7,94.9L2280.8-27c-0.1,82,0,164.1,0,246.1
			c-71.1-41-142.1-82-213.2-123L2069.7,94.9L2069.7,94.9z"/>
	</g>
	<g>
		<path class="st0" d="M2280.1,215.7l106.6,61.6l-108.6,62.6c0-41.8,0-83.6,0-125.4L2280.1,215.7L2280.1,215.7z M2381.3,277.2
			l-100.5-58v116L2381.3,277.2L2381.3,277.2z"/>
	</g>
	<g>
		<path class="st0" d="M2382.7,279.5l-309.6,178.7L2382.7,637V279.5L2382.7,279.5z M2069.7,457.1l315.7-182.2
			c-0.1,122.3,0,244.5,0,366.8c-106-61.1-211.8-122.2-317.7-183.4L2069.7,457.1L2069.7,457.1z"/>
	</g>
	<g>
		<polygon class="st0" points="2384.7,517.5 2489.2,577.8 2487.9,580.2 2383.3,519.8 		"/>
	</g>
	<g>
		<path class="st0" d="M2696.3,339.9l-100.5,58l100.5,58V339.9L2696.3,339.9z M2592.4,396.7l106.6-61.6c0,41.8,0,83.6,0,125.4
			l-108.6-62.7L2592.4,396.7L2592.4,396.7z"/>
	</g>
	<g>
		<path class="st0" d="M2591.7,158.8l-205,118.4l205,118.4V158.8L2591.7,158.8z M2383.3,276l211.1-121.9c0,82,0.1,164.1,0,246.1
			c-71.1-41-142.1-82-213.2-123L2383.3,276L2383.3,276z"/>
	</g>
	<g>
		<path class="st0" d="M2489.2,457.1L2700.3,579c-71,41.1-142.1,82.1-213.2,123c0-82,0.1-164.1,0-246.1L2489.2,457.1L2489.2,457.1z
			 M2694.9,579l-205-118.4v236.7L2694.9,579L2694.9,579z"/>
	</g>
	<g>
		<path class="st0" d="M2593.8,638.2l211.2,121.9c-210,121.3-420,242.5-630,363.7c-70.7-40.6-141.2-81.5-211.8-122.3l211.1-121.9
			l1.3,2.4l-207.1,119.5l206.4,119.1l624.6-360.6l-207.1-119.5L2593.8,638.2L2593.8,638.2z"/>
	</g>
	<g>
		<polygon class="st0" points="2173.5,1122.3 2173.6,518.6 2176.3,518.6 2176.3,1122.3 		"/>
	</g>
	<g>
		<path class="st0" d="M1966.5,517.5l106.6,61.6l-108.6,62.7c0-41.8,0-83.6,0-125.4L1966.5,517.5L1966.5,517.5z M2067.6,579
			l-100.5-58v116L2067.6,579L2067.6,579z"/>
	</g>
	<g>
		<polygon class="st0" points="2593.8,1000.3 2698.3,1060.7 2696.9,1063.1 2592.4,1002.7 		"/>
	</g>
	<g>
		<path class="st0" d="M2800.8,883.1l-206.4,119.1v117.6l103.2-59.6l103.2,59.6V883.1L2800.8,883.1z M2592.4,1000.3l211.1-121.9
			c0,82,0.1,164.1,0,246.1l-105.9-61.1l-105.9,61.1c0-41.3,0.1-82.5,0-123.8L2592.4,1000.3L2592.4,1000.3z"/>
	</g>
	<g>
		<polygon class="st0" points="2593.8,879.6 2698.3,940 2696.9,942.3 2592.4,882 		"/>
	</g>
	<g>
		<g>
			<path class="st0" d="M2019.3,31.7L1808.2-90.2l213.2-123c0.1,82,0,164.1,0,246.1L2019.3,31.7L2019.3,31.7z M1813.6-90.2
				l205,118.4v-236.7L1813.6-90.2L1813.6-90.2z"/>
		</g>
		<g>
			<path class="st0" d="M2021.3-213.3l100.5-58l-100.5-58L2021.3-213.3L2021.3-213.3z M2125.2-270.1l-106.6,61.6
				c0-41.8,0-83.6,0-125.4c36.2,20.9,72.4,41.8,108.6,62.7L2125.2-270.1L2125.2-270.1z"/>
		</g>
		<g>
			<polygon class="st0" points="2020.6,-89 1916.1,-28.7 1914.7,-31 2019.3,-91.4 			"/>
		</g>
	</g>
	<g>
		<path class="st0" d="M1881,941.3V699.6l209.3,120.8L1881,941.3z M1883.9,704.5v231.7l200.7-115.9L1883.9,704.5z"/>
	</g>
	<g>
		<g>
			<path class="st0" d="M1861.2,478.3l-266.7-154l269.3-155.5c0.1,103.7,0,207.3,0,310.9L1861.2,478.3L1861.2,478.3z M1601.4,324.3
				l259,149.5V174.8L1601.4,324.3L1601.4,324.3z"/>
		</g>
		<g>
			<path class="st0" d="M1863.7,168.8l126.9-73.3l-126.9-73.3V168.8L1863.7,168.8z M1994.9,97.1l-134.6,77.7
				c0.1-52.8,0-105.6,0-158.4c45.7,26.4,91.5,52.8,137.2,79.2L1994.9,97.1L1994.9,97.1z"/>
		</g>
		<g>
			<polygon class="st0" points="1862.9,325.8 1730.8,402 1729.1,399.1 1861.2,322.8 			"/>
		</g>
	</g>
	<g>
		<polygon class="st0" points="3011.9,963 3221,1083.8 3219.6,1086.1 3010.6,965.4 		"/>
	</g>
	<g>
		<polygon class="st0" points="2906,1385.6 3115.1,1264.8 3116.4,1267.2 2907.4,1387.9 		"/>
	</g>
	<g>
		<polygon class="st0" points="3011.9,721.6 3116.4,781.9 3115.1,784.3 3010.6,723.9 		"/>
	</g>
	<g>
		<path class="st0" d="M3325.5,780.8l106.6,61.6c-36.2,20.9-72.4,41.8-108.6,62.7c0-41.8,0-83.6,0-125.4L3325.5,780.8L3325.5,780.8z
			 M3426.7,842.3l-100.5-58v116L3426.7,842.3L3426.7,842.3z"/>
	</g>
	<g>
		<polygon class="st0" points="3221,723.9 3011.9,844.6 3010.6,842.3 3219.6,721.6 		"/>
	</g>
	<g>
		<path class="st0" d="M3011.9,600.9L3221.7,722v244.6c-70.6-40.8-141.3-81.4-211.8-122.3c-0.2-81.5,0-163,0-244.5L3011.9,600.9
			L3011.9,600.9z M3219,723.5l-206.4-119.1v238.3L3219,961.8V723.5L3219,723.5z"/>
	</g>
	<g>
		<path class="st0" d="M2907.4,57.6l211.2,121.9l-213.2,123c-0.1-82,0-164.1,0-246.1L2907.4,57.6L2907.4,57.6z M3113.1,179.5
			L2908,61.1v236.7L3113.1,179.5L3113.1,179.5z"/>
	</g>
	<g>
		<path class="st0" d="M2905.4,302.6l-100.5,58l100.5,58V302.6L2905.4,302.6z M2801.5,359.4l106.6-61.6c0,41.8,0,83.6,0,125.4
			c-36.2-20.9-72.4-41.8-108.6-62.7L2801.5,359.4L2801.5,359.4z"/>
	</g>
	<g>
		<path class="st0" d="M3009.9,483.6l-100.5,58l100.5,58V483.6L3009.9,483.6z M2906,540.5l106.6-61.6c0,41.8,0,83.6,0,125.4
			c-36.2-20.9-72.4-41.8-108.6-62.7L2906,540.5L2906,540.5z"/>
	</g>
	<g>
		<path class="st0" d="M3012.6,841.1l-211,121.8v2.5c70.3,40.6,140.7,81.2,211,121.8C3012.6,1005.2,3012.6,923.2,3012.6,841.1z
			 M3009.9,1082.6l-205-118.4l205-118.4V1082.6z"/>
	</g>
	<g>
		<path class="st0" d="M3011.9,1083.7l106.6,61.6l-108.6,62.7c0-41.8,0-83.6,0-125.4L3011.9,1083.7L3011.9,1083.7z M3113.1,1145.3
			l-100.5-58v116L3113.1,1145.3L3113.1,1145.3z"/>
	</g>
	<g>
		<path class="st0" d="M3114.4,1147.6l-309.6,178.7l309.6,178.7V1147.6L3114.4,1147.6z M2801.5,1325.2l315.7-182.2
			c-0.1,122.3,0,244.5,0,366.8c-106-61.1-211.8-122.2-317.7-183.4L2801.5,1325.2L2801.5,1325.2z"/>
	</g>
	<g>
		<polygon class="st0" points="3116.4,1385.6 3221,1445.9 3219.6,1448.3 3115.1,1387.9 		"/>
	</g>
	<g>
		<path class="st0" d="M3428,1208l-100.5,58l100.5,58V1208L3428,1208z M3324.2,1264.8l106.6-61.6c0,41.8,0,83.6,0,125.4l-108.6-62.7
			L3324.2,1264.8L3324.2,1264.8z"/>
	</g>
	<g>
		<path class="st0" d="M3323.5,1026.9l-205.1,118.3l205,118.4L3323.5,1026.9L3323.5,1026.9z M3115.1,1144.1l211.1-121.9
			c0,82,0.1,164.1,0,246.1c-71.1-41-142.1-82-213.2-123L3115.1,1144.1L3115.1,1144.1z"/>
	</g>
	<g>
		<path class="st0" d="M2698.3,1385.6l106.6,61.6l-108.6,62.7c0-41.8,0-83.6,0-125.4L2698.3,1385.6L2698.3,1385.6z M2799.4,1447.1
			l-100.5-58v116L2799.4,1447.1L2799.4,1447.1z"/>
	</g>
	<g>
		<polygon class="st0" points="3241.2,273.7 3499.8,124.4 3502.6,125.9 3242.6,276 		"/>
	</g>
	<g>
		<path class="st0" d="M3242.6,396.7l-1.3-2.4l361.9-209l3.6,1.2L3242.6,396.7z"/>
	</g>
	<g>
		<polygon class="st0" points="2906,178.3 3010.6,118 3011.9,120.3 2907.4,180.7 		"/>
	</g>
	<g>
		<path class="st0" d="M2612.8,1809.4v-241.7l209.3,120.8L2612.8,1809.4z M2615.7,1572.6v231.7l200.7-115.9L2615.7,1572.6z"/>
	</g>
	<g>
		<path class="st0" d="M1319.5,1240.2l-106.6-61.6l108.6-62.7c0,41.8,0,83.6,0,125.4L1319.5,1240.2L1319.5,1240.2z M1218.3,1178.7
			l100.5,58v-116L1218.3,1178.7L1218.3,1178.7z"/>
	</g>
	<g>
		<polygon class="st0" points="3555.9,758.9 3974,1000.3 3972.7,1002.7 3554.5,761.3 		"/>
	</g>
	<g>
		<polygon class="st0" points="3555.9,638.2 3974,879.6 3972.7,882 3554.5,640.5 		"/>
	</g>
	<g>
		<polygon class="st0" points="4181.8,758.9 4390.2,638.6 4390.2,641.7 4183.1,761.2 		"/>
	</g>
	<g>
		<polygon class="st0" points="3660.4,94.9 3869.5,215.7 3868.1,218 3659.1,97.3 		"/>
	</g>
	<g>
		<polygon class="st0" points="3554.5,517.5 3763.6,396.7 3764.9,399.1 3555.9,519.8 		"/>
	</g>
	<g>
		<polygon class="st0" points="4077.2,577.8 4390.2,397.1 4390.2,400.2 4078.6,580.2 		"/>
	</g>
	<g>
		<polygon class="st0" points="3660.4,-146.5 3764.9,-86.2 3763.6,-83.8 3659.1,-144.2 		"/>
	</g>
	<g>
		<path class="st0" d="M3974-86.2l106.6,61.6c-36.2,20.9-72.4,41.8-108.6,62.7c0-41.8,0-83.6,0-125.4L3974-86.2L3974-86.2z
			 M4075.2-24.6l-100.5-58v116L4075.2-24.6L4075.2-24.6z"/>
	</g>
	<g>
		<polygon class="st0" points="3869.5,-144.2 3660.4,-23.5 3659.1,-25.8 3868.1,-146.5 		"/>
	</g>
	<g>
		<path class="st0" d="M3660.4-267.2l209.8,121.1V98.5c-70.6-40.8-141.3-81.4-211.8-122.3c-0.2-81.5,0-163,0-244.5L3660.4-267.2
			L3660.4-267.2z M3867.5-144.6l-206.4-119.1v238.3l206.4,119.1V-144.6L3867.5-144.6z"/>
	</g>
	<g>
		<path class="st0" d="M3658.4-384.4l-100.5,58.1l100.5,58V-384.4L3658.4-384.4z M3554.5-327.6l106.6-61.6c0,41.8,0,83.6,0,125.4
			c-36.2-20.9-72.4-41.8-108.6-62.7L3554.5-327.6L3554.5-327.6z"/>
	</g>
	<g>
		<path class="st0" d="M3658.4-22.3l-205,118.4l205,118.4V-22.3L3658.4-22.3z M3450,94.9L3661.1-27c-0.1,82,0,164.1,0,246.1
			c-71.1-41-142.1-82-213.2-123L3450,94.9L3450,94.9z"/>
	</g>
	<g>
		<path class="st0" d="M3660.4,215.7l106.6,61.6l-108.6,62.7c0-41.8,0-83.6,0-125.4L3660.4,215.7L3660.4,215.7z M3761.6,277.2
			l-100.5-58v116L3761.6,277.2L3761.6,277.2z"/>
	</g>
	<g>
		<path class="st0" d="M3762.9,279.5l-309.6,178.7L3762.9,637V279.5L3762.9,279.5z M3450,457.1l315.7-182.2
			c-0.1,122.3,0,244.5,0,366.8c-106-61.1-211.8-122.2-317.7-183.4L3450,457.1L3450,457.1z"/>
	</g>
	<g>
		<polygon class="st0" points="3764.9,517.5 3869.5,577.8 3868.1,580.2 3763.6,519.8 		"/>
	</g>
	<g>
		<path class="st0" d="M4076.5,339.9l-100.5,58l100.5,58V339.9L4076.5,339.9z M3972.7,396.7l106.6-61.6c0,41.8,0,83.6,0,125.4
			l-108.6-62.7L3972.7,396.7L3972.7,396.7z"/>
	</g>
	<g>
		<path class="st0" d="M3972,158.8l-205,118.4l205,118.4V158.8L3972,158.8z M3763.6,276l211.1-121.9c0,82,0.1,164.1,0,246.1
			c-71.1-41-142.1-82-213.2-123L3763.6,276L3763.6,276z"/>
	</g>
	<g>
		<path class="st0" d="M3869.5,457.1L4080.6,579c-71,41.1-142.1,82.1-213.2,123c0-82,0.1-164.1,0-246.1L3869.5,457.1L3869.5,457.1z
			 M4075.2,579l-205-118.4v236.7L4075.2,579L4075.2,579z"/>
	</g>
	<g>
		<path class="st0" d="M3974,638.2l211.2,121.9c-210,121.3-420,242.5-630,363.7c-70.7-40.6-141.2-81.5-211.8-122.3l211.1-121.9
			l1.3,2.4l-207.1,119.5l206.4,119.1l624.6-360.6l-207.1-119.5L3974,638.2L3974,638.2z"/>
	</g>
	<g>
		<polygon class="st0" points="3553.8,1122.3 3553.8,518.6 3556.5,518.6 3556.5,1122.3 		"/>
	</g>
	<g>
		<path class="st0" d="M3346.8,517.5l106.6,61.6l-108.6,62.7c0-41.8,0-83.6,0-125.4L3346.8,517.5L3346.8,517.5z M3447.9,579
			l-100.5-58v116L3447.9,579L3447.9,579z"/>
	</g>
	<g>
		<path class="st0" d="M4183.1,1000.4l207.1,119.5v3.2l-208.4-120.3L4183.1,1000.4L4183.1,1000.4z M4390.2,521l-311.6,179.9
			l-1.3-2.4l313-180.7L4390.2,521L4390.2,521z"/>
	</g>
	<g>
		<polygon class="st0" points="3974,1000.3 4078.6,1060.7 4077.2,1063.1 3972.7,1002.7 		"/>
	</g>
	<g>
		<path class="st0" d="M4181.1,883.1l-206.4,119.1v117.6l103.2-59.6l103.2,59.6V883.1L4181.1,883.1z M3972.7,1000.3l211.1-121.9
			c0,82,0.1,164.1,0,246.1l-105.9-61.1l-105.9,61.1c0-41.3,0.1-82.5,0-123.8L3972.7,1000.3L3972.7,1000.3z"/>
	</g>
	<g>
		<polygon class="st0" points="3974,879.6 4078.6,940 4077.2,942.3 3972.7,882 		"/>
	</g>
	<g>
		<g>
			<path class="st0" d="M3961-201.5l-211.2-121.9l213.2-123c0.1,82,0,164.1,0,246.1L3961-201.5L3961-201.5z M3755.3-323.4l205,118.4
				v-236.7L3755.3-323.4L3755.3-323.4z"/>
		</g>
		<g>
			<path class="st0" d="M3963.1-446.5l100.5-58l-100.5-58V-446.5L3963.1-446.5z M4066.9-503.3l-106.6,61.6c0-41.8,0-83.6,0-125.4
				c36.2,20.9,72.4,41.8,108.6,62.7L4066.9-503.3L4066.9-503.3z"/>
		</g>
		<g>
			<polygon class="st0" points="3962.4,-322.2 3857.8,-261.9 3856.5,-264.2 3961,-324.6 			"/>
		</g>
	</g>
	<g>
		<path class="st0" d="M3261.3,941.3V699.6l209.3,120.8L3261.3,941.3z M3264.2,704.5v231.7l200.7-115.9L3264.2,704.5z"/>
	</g>
	<g>
		<g>
			<path class="st0" d="M3241.5,478.3l-266.7-154l269.3-155.5c0.1,103.7,0,207.3,0,310.9L3241.5,478.3L3241.5,478.3z M2981.6,324.3
				l259,149.5V174.8L2981.6,324.3L2981.6,324.3z"/>
		</g>
		<g>
			<path class="st0" d="M3244,168.8L3371,95.5L3244,22.2V168.8L3244,168.8z M3375.3,97.1l-134.6,77.7c0.1-52.8,0-105.6,0-158.4
				c45.7,26.4,91.5,52.8,137.2,79.2L3375.3,97.1L3375.3,97.1z"/>
		</g>
		<g>
			<polygon class="st0" points="3243.2,325.8 3111.1,402 3109.5,399.1 3241.5,322.8 			"/>
		</g>
	</g>
	<g>
		<polygon class="st0" points="4287.6,1627 4705.8,1868.4 4704.5,1870.7 4286.3,1629.4 		"/>
	</g>
	<g>
		<polygon class="st0" points="4287.6,1506.3 4705.8,1747.7 4704.5,1750.1 4286.3,1508.6 		"/>
	</g>
	<g>
		<polygon class="st0" points="4392.2,963 4601.3,1083.8 4599.9,1086.1 4390.9,965.4 		"/>
	</g>
	<g>
		<polygon class="st0" points="4286.3,1385.6 4495.4,1264.8 4496.8,1267.2 4287.6,1387.9 		"/>
	</g>
	<g>
		<polygon class="st0" points="4809.1,1445.9 5122,1265.2 5122,1268.3 4810.4,1448.3 		"/>
	</g>
	<g>
		<polygon class="st0" points="4392.2,721.6 4496.8,781.9 4495.4,784.3 4390.8,723.9 		"/>
	</g>
	<g>
		<path class="st0" d="M4705.9,780.8l106.6,61.6c-36.2,20.9-72.4,41.8-108.6,62.7c0-41.8,0-83.6,0-125.4L4705.9,780.8L4705.9,780.8z
			 M4807,842.3l-100.5-58v116L4807,842.3L4807,842.3z"/>
	</g>
	<g>
		<polygon class="st0" points="4601.3,723.9 4392.2,844.6 4390.8,842.3 4600,721.6 		"/>
	</g>
	<g>
		<path class="st0" d="M4392.2,600.9L4602,722v244.6c-70.6-40.8-141.3-81.4-211.8-122.3c-0.2-81.5,0-163,0-244.5L4392.2,600.9
			L4392.2,600.9z M4599.3,723.5l-206.4-119.1v238.3l206.4,119.1V723.5L4599.3,723.5z"/>
	</g>
	<g>
		<path class="st0" d="M4287.6,57.6l211.2,121.9l-213.2,123c-0.1-82,0-164.1,0-246.1L4287.6,57.6L4287.6,57.6z M4493.4,179.5
			l-205-118.4v236.7L4493.4,179.5L4493.4,179.5z"/>
	</g>
	<g>
		<path class="st0" d="M4285.6,302.6l-100.5,58l100.5,58V302.6L4285.6,302.6z M4181.8,359.4l106.6-61.6c0,41.8,0,83.6,0,125.4
			c-36.2-20.9-72.4-41.8-108.6-62.7L4181.8,359.4L4181.8,359.4z"/>
	</g>
	<g>
		<path class="st0" d="M4390.2,483.6l-100.5,58l100.5,58V483.6L4390.2,483.6z M4286.3,540.5l106.6-61.6c0,41.8,0,83.6,0,125.4
			c-36.2-20.9-72.4-41.8-108.6-62.7L4286.3,540.5L4286.3,540.5z"/>
	</g>
	<g>
		<path class="st0" d="M4392.9,841.1l-211,121.8v2.5c70.3,40.6,140.7,81.2,211,121.8C4392.9,1005.2,4392.9,923.2,4392.9,841.1z
			 M4390.2,1082.6l-205-118.4l205-118.4V1082.6z"/>
	</g>
	<g>
		<path class="st0" d="M4392.2,1083.7l106.6,61.6l-108.6,62.7c0-41.8,0-83.6,0-125.4L4392.2,1083.7L4392.2,1083.7z M4493.4,1145.3
			l-100.5-58v116L4493.4,1145.3L4493.4,1145.3z"/>
	</g>
	<g>
		<path class="st0" d="M4494.7,1147.6l-309.6,178.7l309.6,178.7V1147.6L4494.7,1147.6z M4181.8,1325.2l315.7-182.2
			c-0.1,122.3,0,244.5,0,366.8c-106-61.1-211.8-122.2-317.7-183.4L4181.8,1325.2L4181.8,1325.2z"/>
	</g>
	<g>
		<polygon class="st0" points="4496.7,1385.6 4601.3,1445.9 4599.9,1448.3 4495.4,1387.9 		"/>
	</g>
	<g>
		<path class="st0" d="M4808.4,1208l-100.5,58l100.5,58.1V1208L4808.4,1208z M4704.5,1264.8l106.6-61.6c0,41.8,0,83.6,0,125.4
			l-108.6-62.7L4704.5,1264.8L4704.5,1264.8z"/>
	</g>
	<g>
		<path class="st0" d="M4703.8,1026.9l-205,118.4l205,118.4V1026.9L4703.8,1026.9z M4495.4,1144.1l211.1-121.9
			c0,82,0.1,164.1,0,246.1c-71.1-41-142.1-82-213.2-123L4495.4,1144.1L4495.4,1144.1z"/>
	</g>
	<g>
		<path class="st0" d="M4601.3,1325.2l211.2,121.9c-71,41.1-142.1,82.1-213.2,123c0-82,0.1-164.1,0-246.1L4601.3,1325.2
			L4601.3,1325.2z M4807,1447.1l-205-118.4v236.7L4807,1447.1L4807,1447.1z"/>
	</g>
	<g>
		<path class="st0" d="M4705.8,1506.3l211.2,121.9c-210,121.3-420,242.5-630,363.7c-70.7-40.6-141.2-81.5-211.8-122.3l211.1-121.9
			l1.3,2.4l-207.1,119.5l206.4,119.1l624.6-360.6l-207.1-119.5L4705.8,1506.3L4705.8,1506.3z"/>
	</g>
	<g>
		<polygon class="st0" points="4285.6,1990.4 4285.6,1386.7 4288.3,1386.7 4288.3,1990.4 		"/>
	</g>
	<g>
		<path class="st0" d="M4078.6,1385.6l106.6,61.6l-108.6,62.7c0-41.8,0-83.6,0-125.4L4078.6,1385.6L4078.6,1385.6z M4179.7,1447.1
			l-100.5-58v116L4179.7,1447.1L4179.7,1447.1z"/>
	</g>
	<g>
		<path class="st0" d="M4915,1868.4l207.1,119.5v3.2l-208.4-120.3L4915,1868.4L4915,1868.4z M5122,1389.1L4810.4,1569l-1.3-2.4
			l313-180.7L5122,1389.1L5122,1389.1z"/>
	</g>
	<g>
		<polygon class="st0" points="4621.5,273.7 4880.2,124.4 4882.9,125.9 4622.9,276 		"/>
	</g>
	<g>
		<path class="st0" d="M4622.9,396.7l-1.3-2.4l361.9-209l3.6,1.2L4622.9,396.7z"/>
	</g>
	<g>
		<polygon class="st0" points="4705.8,1868.4 4810.4,1928.8 4809.1,1931.1 4704.5,1870.7 		"/>
	</g>
	<g>
		<path class="st0" d="M4912.9,1751.2l-206.4,119.1v117.6l103.2-59.6l103.2,59.6L4912.9,1751.2L4912.9,1751.2z M4704.5,1868.4
			l211.1-121.9c0,82,0.1,164.1,0,246.1l-105.9-61.1l-105.9,61.1c0-41.3,0.1-82.5,0-123.8L4704.5,1868.4L4704.5,1868.4z"/>
	</g>
	<g>
		<polygon class="st0" points="4705.8,1747.7 4810.4,1808.1 4809.1,1810.4 4704.5,1750.1 		"/>
	</g>
	<g>
		<polygon class="st0" points="4286.3,178.3 4390.8,118 4392.2,120.3 4287.7,180.7 		"/>
	</g>
	<g>
		<path class="st0" d="M4310.2,2097.7l289-166.9v166.9h2.8c0-57.2,0-114.4,0-171.5l-297.1,171.5H4310.2z"/>
	</g>
	<g>
		<path class="st0" d="M3993.1,1809.4v-241.7l209.3,120.8L3993.1,1809.4z M3996,1572.6v231.7l200.7-115.9L3996,1572.6z"/>
	</g>
	<g>
		<polygon class="st0" points="3533.3,1627 3115.1,1868.4 3116.4,1870.7 3534.6,1629.4 		"/>
	</g>
	<g>
		<polygon class="st0" points="3533.3,1506.3 3115.1,1747.7 3116.4,1750.1 3534.6,1508.6 		"/>
	</g>
	<g>
		<polygon class="st0" points="2907.4,1627 2699,1506.7 2699,1509.8 2906,1629.3 		"/>
	</g>
	<g>
		<path class="st0" d="M3326.2,1147.6v357.5l309.6-178.7L3326.2,1147.6L3326.2,1147.6z M3639.2,1325.2l2,1.1
			c-105.9,61.1-211.8,122.3-317.7,183.4c0-122.3,0.1-244.5,0-366.8L3639.2,1325.2L3639.2,1325.2z"/>
	</g>
	<g>
		<polygon class="st0" points="3324.2,1385.6 3219.6,1445.9 3221,1448.3 3325.5,1387.9 		"/>
	</g>
	<g>
		<path class="st0" d="M3219.6,1325.2l2-1.1c-0.1,82,0,164.1,0,246.1c-71.1-41-142.1-82-213.2-123L3219.6,1325.2L3219.6,1325.2z
			 M3013.9,1447.1l205,118.4v-236.7L3013.9,1447.1L3013.9,1447.1z"/>
	</g>
	<g>
		<path class="st0" d="M3115.1,1506.3L2904,1628.2c210,121.3,420,242.5,630,363.7c70.7-40.6,141.2-81.5,211.8-122.3l-211.1-121.9
			l-1.3,2.4l207.1,119.5L3534,1988.7l-624.6-360.6l207.1-119.5L3115.1,1506.3L3115.1,1506.3z"/>
	</g>
	<g>
		<polygon class="st0" points="3535.3,1990.4 3535.3,1386.7 3532.6,1386.7 3532.6,1990.4 		"/>
	</g>
	<g>
		<path class="st0" d="M2906,1868.4l1.4,2.4L2699,1991.1v-3.2L2906,1868.4L2906,1868.4z M2699,1389.1v-3.1l313,180.7l-1.3,2.4
			L2699,1389.1L2699,1389.1z"/>
	</g>
	<g>
		<polygon class="st0" points="3115.1,1868.4 3010.6,1928.8 3011.9,1931.1 3116.4,1870.7 		"/>
	</g>
	<g>
		<path class="st0" d="M2908,1751.2v236.7l103.2-59.6l103.2,59.6v-117.6L2908,1751.2L2908,1751.2z M3116.4,1868.4l0.7,0.4
			c-0.1,41.3,0,82.5,0,123.8l-105.9-61.1l-105.9,61.1c-0.1-82,0-164.1,0-246.1L3116.4,1868.4L3116.4,1868.4z"/>
	</g>
	<g>
		<polygon class="st0" points="3115.1,1747.7 3010.6,1808.1 3011.9,1810.4 3116.4,1750.1 		"/>
	</g>
	<g>
		<path class="st0" d="M3221.7,2097.7v-166.9l289,166.9h5.4L3219,1926.2c0,57.2,0,114.4,0,171.5H3221.7z"/>
	</g>
	<g>
		<polygon class="st0" points="4936.1,758.9 5354.4,1000.3 5353,1002.7 4934.8,761.3 		"/>
	</g>
	<g>
		<polygon class="st0" points="4936.1,638.2 5354.3,879.6 5353,882 4934.8,640.5 		"/>
	</g>
	<g>
		<polygon class="st0" points="5562.1,758.9 5770.5,638.6 5770.5,641.7 5563.5,761.2 		"/>
	</g>
	<g>
		<polygon class="st0" points="5040.7,94.9 5249.8,215.7 5248.5,218 5039.4,97.3 		"/>
	</g>
	<g>
		<polygon class="st0" points="4934.8,517.5 5143.9,396.7 5145.3,399.1 4936.1,519.8 		"/>
	</g>
	<g>
		<polygon class="st0" points="5040.7,-146.5 5145.3,-86.2 5143.9,-83.8 5039.4,-144.2 		"/>
	</g>
	<g>
		<path class="st0" d="M5354.4-86.2L5461-24.6c-36.2,20.9-72.4,41.8-108.6,62.7c0-41.8,0-83.6,0-125.4L5354.4-86.2L5354.4-86.2z
			 M5455.5-24.6l-100.4-58v116L5455.5-24.6L5455.5-24.6z"/>
	</g>
	<g>
		<polygon class="st0" points="5249.8,-144.2 5040.7,-23.5 5039.4,-25.8 5248.5,-146.5 		"/>
	</g>
	<g>
		<path class="st0" d="M5040.7-267.2l209.8,121.1V98.5c-70.6-40.8-141.3-81.4-211.8-122.3c-0.2-81.5,0-163,0-244.5L5040.7-267.2
			L5040.7-267.2z M5247.8-144.6l-206.4-119.1v238.3l206.4,119.1V-144.6L5247.8-144.6z"/>
	</g>
	<g>
		<path class="st0" d="M5038.7-384.4l-100.5,58l100.5,58.1V-384.4L5038.7-384.4z M4934.8-327.6l106.6-61.6c0,41.8,0,83.6,0,125.4
			c-36.2-20.9-72.4-41.8-108.6-62.7L4934.8-327.6L4934.8-327.6z"/>
	</g>
	<g>
		<path class="st0" d="M5038.7-22.3L4833.6,96.1l205,118.4L5038.7-22.3L5038.7-22.3z M4830.2,94.9L5041.3-27
			c-0.1,82,0,164.1,0,246.1c-71.1-41-142.1-82-213.2-123L4830.2,94.9L4830.2,94.9z"/>
	</g>
	<g>
		<path class="st0" d="M5040.7,215.7l106.6,61.6l-108.6,62.7c0-41.8,0-83.6,0-125.4L5040.7,215.7L5040.7,215.7z M5141.9,277.2
			l-100.5-58v116L5141.9,277.2L5141.9,277.2z"/>
	</g>
	<g>
		<path class="st0" d="M5143.2,279.5l-309.6,178.7L5143.2,637V279.5L5143.2,279.5z M4830.2,457.1l315.7-182.2
			c-0.1,122.3,0,244.5,0,366.8c-106-61.1-211.8-122.2-317.7-183.4L4830.2,457.1L4830.2,457.1z"/>
	</g>
	<g>
		<polygon class="st0" points="5145.2,517.5 5249.8,577.8 5248.4,580.2 5143.9,519.8 		"/>
	</g>
	<g>
		<path class="st0" d="M5456.9,339.9l-100.5,58l100.5,58V339.9L5456.9,339.9z M5353,396.7l106.6-61.6c0,41.8,0,83.6,0,125.4
			L5351,397.9L5353,396.7L5353,396.7z"/>
	</g>
	<g>
		<path class="st0" d="M5352.3,158.8l-205,118.4l205,118.4V158.8L5352.3,158.8z M5143.9,276L5355,154.1c0,82,0.1,164.1,0,246.1
			c-71.1-41-142.1-82-213.2-123L5143.9,276L5143.9,276z"/>
	</g>
	<g>
		<path class="st0" d="M5249.8,457.1L5461,579c-71,41.1-142.1,82.1-213.2,123c0-82,0.1-164.1,0-246.1L5249.8,457.1L5249.8,457.1z
			 M5455.5,579l-205-118.4v236.7L5455.5,579L5455.5,579z"/>
	</g>
	<g>
		<path class="st0" d="M5354.4,638.2l211.2,121.9c-210,121.3-420,242.5-630,363.7c-70.7-40.6-141.2-81.5-211.8-122.3l211.1-121.9
			l1.3,2.4l-207.1,119.5l206.4,119.1l624.6-360.6L5353,640.5L5354.4,638.2L5354.4,638.2z"/>
	</g>
	<g>
		<polygon class="st0" points="4934.1,1122.3 4934.1,518.6 4936.8,518.6 4936.8,1122.3 		"/>
	</g>
	<g>
		<path class="st0" d="M4727.1,517.5l106.6,61.6L4725,641.7c0-41.8,0-83.6,0-125.4L4727.1,517.5L4727.1,517.5z M4828.2,579
			l-100.5-58v116L4828.2,579L4828.2,579z"/>
	</g>
	<g>
		<polygon class="st0" points="5354.4,1000.3 5458.9,1060.7 5457.6,1063.1 5353,1002.7 		"/>
	</g>
	<g>
		<path class="st0" d="M5561.4,883.1L5355,1002.3v117.6l103.2-59.6l103.2,59.6L5561.4,883.1L5561.4,883.1z M5353,1000.3l211.1-121.9
			c0,82,0.1,164.1,0,246.1l-105.9-61.1l-105.9,61.1c0-41.3,0.1-82.5,0-123.8L5353,1000.3L5353,1000.3z"/>
	</g>
	<g>
		<polygon class="st0" points="5354.3,879.6 5458.9,940 5457.6,942.3 5353,882 		"/>
	</g>
	<g>
		<g>
			<path class="st0" d="M5251.6-614.9L5462.8-493l-213.2,123c-0.1-82,0-164.1,0-246.1L5251.6-614.9L5251.6-614.9z M5457.3-493
				l-205-118.4v236.7L5457.3-493L5457.3-493z"/>
		</g>
		<g>
			<path class="st0" d="M5249.6-369.9l-100.5,58.1l100.5,58V-369.9L5249.6-369.9z M5145.7-313.1l106.6-61.6c0,41.8,0,83.6,0,125.4
				c-36.2-20.9-72.4-41.8-108.6-62.7L5145.7-313.1L5145.7-313.1z"/>
		</g>
		<g>
			<polygon class="st0" points="5250.3,-494.1 5354.8,-554.5 5356.2,-552.2 5251.6,-491.8 			"/>
		</g>
	</g>
	<g>
		<g>
			<path class="st0" d="M4621.8,478.3l-266.7-154l269.3-155.5c0.1,103.7,0,207.3,0,310.9L4621.8,478.3L4621.8,478.3z M4361.9,324.3
				l259,149.5V174.8L4361.9,324.3L4361.9,324.3z"/>
		</g>
		<g>
			<path class="st0" d="M4624.4,168.8l126.9-73.3l-126.9-73.3V168.8L4624.4,168.8z M4755.6,97.1l-134.6,77.7
				c0.1-52.8,0-105.6,0-158.4c45.7,26.4,91.5,52.8,137.2,79.2L4755.6,97.1L4755.6,97.1z"/>
		</g>
		<g>
			<polygon class="st0" points="4623.5,325.8 4491.5,402 4489.7,399.1 4621.8,322.8 			"/>
		</g>
	</g>
	<g>
		<polygon class="st0" points="6604.9,1446.7 6186.7,1205.3 6188,1202.9 6606.2,1444.3 		"/>
	</g>
	<g>
		<polygon class="st0" points="6604.9,1567.4 6186.7,1326 6188,1323.6 6606.2,1565.1 		"/>
	</g>
	<g>
		<polygon class="st0" points="5978.9,1446.7 5770.5,1567 5770.5,1563.9 5977.6,1444.4 		"/>
	</g>
	<g>
		<polygon class="st0" points="5772.6,963 5981.7,1083.8 5980.3,1086.1 5771.2,965.4 		"/>
	</g>
	<g>
		<polygon class="st0" points="6606.2,1688.1 6397.1,1808.9 6395.8,1806.5 6604.9,1685.8 		"/>
	</g>
	<g>
		<polygon class="st0" points="5772.6,721.6 5877.1,781.9 5875.7,784.3 5771.2,723.9 		"/>
	</g>
	<g>
		<path class="st0" d="M6086.2,780.8l106.6,61.6c-36.2,20.9-72.4,41.8-108.6,62.7c0-41.8,0-83.6,0-125.4L6086.2,780.8L6086.2,780.8z
			 M6187.4,842.3l-100.5-58v116L6187.4,842.3L6187.4,842.3z"/>
	</g>
	<g>
		<polygon class="st0" points="5981.6,723.9 5772.5,844.6 5771.2,842.3 5980.3,721.6 		"/>
	</g>
	<g>
		<path class="st0" d="M5772.5,600.9L5982.3,722v244.6c-70.6-40.8-141.3-81.4-211.8-122.3c-0.2-81.5,0-163,0-244.5L5772.5,600.9
			L5772.5,600.9z M5979.6,723.5l-206.4-119.1v238.3l206.4,119.1V723.5L5979.6,723.5z"/>
	</g>
	<g>
		<path class="st0" d="M5668,57.6l211.2,121.9l-213.2,123c-0.1-82,0-164.1,0-246.1L5668,57.6L5668,57.6z M5873.7,179.5l-205-118.4
			v236.7L5873.7,179.5L5873.7,179.5z"/>
	</g>
	<g>
		<path class="st0" d="M5665.9,302.6l-100.5,58l100.5,58V302.6L5665.9,302.6z M5562.1,359.4l106.6-61.6c0,41.8,0,83.6,0,125.4
			c-36.2-20.9-72.4-41.8-108.6-62.7L5562.1,359.4L5562.1,359.4z"/>
	</g>
	<g>
		<path class="st0" d="M5770.5,483.6l-100.5,58l100.5,58V483.6L5770.5,483.6z M5666.6,540.5l106.6-61.6c0,41.8,0,83.6,0,125.4
			c-36.2-20.9-72.4-41.8-108.6-62.7L5666.6,540.5L5666.6,540.5z"/>
	</g>
	<g>
		<path class="st0" d="M5773.2,841.1l-211,121.8v2.5c70.3,40.6,140.7,81.2,211,121.8C5773.2,1005.2,5773.1,923.2,5773.2,841.1z
			 M5770.5,1082.6l-205-118.4l205-118.4V1082.6z"/>
	</g>
	<g>
		<path class="st0" d="M5772.5,1083.7l106.6,61.6l-108.6,62.7c0-41.8,0-83.6,0-125.4L5772.5,1083.7L5772.5,1083.7z M5873.7,1145.3
			l-100.5-58v116L5873.7,1145.3L5873.7,1145.3z"/>
	</g>
	<g>
		<path class="st0" d="M6397.8,1926l309.6-178.7l-309.6-178.7V1926L6397.8,1926z M6710.7,1748.5l-315.7,182.2
			c0.1-122.3,0-244.5,0-366.8c106,61.1,211.8,122.2,317.7,183.4L6710.7,1748.5L6710.7,1748.5z"/>
	</g>
	<g>
		<polygon class="st0" points="6395.8,1688.1 6291.2,1627.8 6292.6,1625.4 6397.1,1685.8 		"/>
	</g>
	<g>
		<path class="st0" d="M6084.2,1865.7l100.5-58l-100.5-58.1V1865.7L6084.2,1865.7z M6188,1808.9l-106.6,61.6c0-41.8,0-83.6,0-125.4
			l108.6,62.7L6188,1808.9L6188,1808.9z"/>
	</g>
	<g>
		<path class="st0" d="M6188.7,2046.8l205-118.4l-205-118.4V2046.8L6188.7,2046.8z M6397.1,1929.5L6186,2051.4
			c0-82-0.1-164.1,0-246.1c71.1,41,142.1,82,213.2,123L6397.1,1929.5L6397.1,1929.5z"/>
	</g>
	<g>
		<path class="st0" d="M6291.2,1748.5L6080,1626.6c71-41.1,142.1-82.1,213.2-123c0,82-0.1,164.1,0,246.1L6291.2,1748.5
			L6291.2,1748.5z M6085.5,1626.6l205,118.4v-236.7L6085.5,1626.6L6085.5,1626.6z"/>
	</g>
	<g>
		<path class="st0" d="M5562.8,2044.4V1687l-309.6,178.7L5562.8,2044.4L5562.8,2044.4z M5249.8,1866.8l-2-1.1
			c105.9-61.1,211.8-122.3,317.7-183.4c0,122.3-0.1,244.5,0,366.8L5249.8,1866.8L5249.8,1866.8z"/>
	</g>
	<g>
		<polygon class="st0" points="5564.8,1806.5 5669.3,1746.2 5668,1743.8 5563.4,1804.2 		"/>
	</g>
	<g>
		<path class="st0" d="M5669.3,1866.8l-2,1.1c0.1-82,0-164.1,0-246.1c71.1,41,142.1,82,213.2,123L5669.3,1866.8L5669.3,1866.8z
			 M5875.1,1745l-205-118.4v236.7L5875.1,1745L5875.1,1745z"/>
	</g>
	<g>
		<path class="st0" d="M6186.7,1567.4l-211.2-121.9c210-121.3,420-242.5,630-363.7c70.7,40.6,141.2,81.5,211.8,122.3L6606.2,1326
			l-1.3-2.4l207.1-119.5l-206.4-119.1L5981,1445.5l207.1,119.5L6186.7,1567.4L6186.7,1567.4z"/>
	</g>
	<g>
		<polygon class="st0" points="6606.9,1083.3 6606.9,1687 6604.2,1687 6604.2,1083.3 		"/>
	</g>
	<g>
		<path class="st0" d="M6813.9,1688.1l-106.6-61.6l108.6-62.7c0,41.8,0,83.6,0,125.4L6813.9,1688.1L6813.9,1688.1z M6712.8,1626.6
			l100.5,58v-116L6712.8,1626.6L6712.8,1626.6z"/>
	</g>
	<g>
		<polygon class="st0" points="6001.8,273.7 6260.4,124.4 6263.2,125.9 6003.2,276 		"/>
	</g>
	<g>
		<path class="st0" d="M6003.2,396.7l-1.3-2.4l361.9-209l3.6,1.2L6003.2,396.7z"/>
	</g>
	<g>
		<polygon class="st0" points="6186.7,1205.3 6082.1,1144.9 6083.5,1142.6 6188,1202.9 		"/>
	</g>
	<g>
		<path class="st0" d="M5979.6,1322.5l206.4-119.1v-117.6l-103.2,59.6l-103.2-59.6L5979.6,1322.5L5979.6,1322.5z M6188,1205.3
			l-211.1,121.9c0-82-0.1-164.1,0-246.1l105.9,61.1l105.9-61.1c0,41.3-0.1,82.5,0,123.8L6188,1205.3L6188,1205.3z"/>
	</g>
	<g>
		<polygon class="st0" points="6186.7,1326 6082.1,1265.6 6083.5,1263.3 6188,1323.6 		"/>
	</g>
	<g>
		<polygon class="st0" points="5666.6,178.3 5771.2,118 5772.5,120.3 5668,180.7 		"/>
	</g>
	<g>
		<path class="st0" d="M5690.6,2097.7l289-166.9v166.9h2.8c0-57.2,0-114.4,0-171.5l-297.1,171.5H5690.6z"/>
	</g>
	<g>
		<path class="st0" d="M6899.4,1264.3V1506l-209.3-120.8L6899.4,1264.3z M6896.5,1501v-231.7l-200.7,115.9L6896.5,1501z"/>
	</g>
	<g>
		<polygon class="st0" points="6316.5,758.9 6734.7,1000.3 6733.3,1002.7 6315.1,761.3 		"/>
	</g>
	<g>
		<polygon class="st0" points="6316.5,638.2 6734.7,879.6 6733.3,882 6315.1,640.5 		"/>
	</g>
	<g>
		<polygon class="st0" points="6942.4,758.9 7150.8,638.6 7150.8,641.7 6943.8,761.2 		"/>
	</g>
	<g>
		<polygon class="st0" points="6421.1,94.9 6630.2,215.7 6628.8,218 6419.7,97.3 		"/>
	</g>
	<g>
		<polygon class="st0" points="6315.1,517.5 6524.3,396.7 6525.6,399.1 6316.5,519.8 		"/>
	</g>
	<g>
		<polygon class="st0" points="6421.1,-146.5 6525.6,-86.2 6524.2,-83.8 6419.7,-144.2 		"/>
	</g>
	<g>
		<path class="st0" d="M6734.7-86.2l106.6,61.6c-36.2,20.9-72.4,41.8-108.6,62.7c0-41.8,0-83.6,0-125.4L6734.7-86.2L6734.7-86.2z
			 M6835.9-24.6l-100.5-58v116L6835.9-24.6L6835.9-24.6z"/>
	</g>
	<g>
		<polygon class="st0" points="6630.2,-144.2 6421,-23.5 6419.7,-25.8 6628.8,-146.5 		"/>
	</g>
	<g>
		<path class="st0" d="M6421-267.2l209.8,121.1V98.5c-70.6-40.8-141.3-81.4-211.8-122.3c-0.2-81.5,0-163,0-244.5L6421-267.2
			L6421-267.2z M6628.1-144.6l-206.4-119.1v238.3l206.4,119.1V-144.6L6628.1-144.6z"/>
	</g>
	<g>
		<path class="st0" d="M6419-384.4l-100.5,58l100.5,58V-384.4L6419-384.4z M6315.1-327.6l106.6-61.6c0,41.8,0,83.6,0,125.4
			c-36.2-20.9-72.4-41.8-108.6-62.7L6315.1-327.6L6315.1-327.6z"/>
	</g>
	<g>
		<path class="st0" d="M6419-22.3L6214,96.1l205,118.4V-22.3L6419-22.3z M6210.6,94.9L6421.7-27c-0.1,82,0,164.1,0,246.1
			c-71.1-41-142.1-82-213.2-123L6210.6,94.9L6210.6,94.9z"/>
	</g>
	<g>
		<path class="st0" d="M6421,215.7l106.6,61.6L6419,339.9c0-41.8,0-83.6,0-125.4L6421,215.7L6421,215.7z M6522.2,277.2l-100.5-58
			v116L6522.2,277.2L6522.2,277.2z"/>
	</g>
	<g>
		<path class="st0" d="M6523.6,279.5L6214,458.3L6523.6,637V279.5L6523.6,279.5z M6210.6,457.1l315.7-182.2
			c-0.1,122.3,0,244.5,0,366.8c-106-61.1-211.8-122.2-317.7-183.4L6210.6,457.1L6210.6,457.1z"/>
	</g>
	<g>
		<polygon class="st0" points="6525.6,517.5 6630.1,577.8 6628.8,580.2 6524.2,519.8 		"/>
	</g>
	<g>
		<path class="st0" d="M6837.2,339.9l-100.5,58l100.5,58V339.9L6837.2,339.9z M6733.3,396.7l106.6-61.6c0,41.8,0,83.6,0,125.4
			l-108.6-62.7L6733.3,396.7L6733.3,396.7z"/>
	</g>
	<g>
		<path class="st0" d="M6732.7,158.8l-205,118.4l205,118.4V158.8L6732.7,158.8z M6524.2,276l211.1-121.9c0,82,0.1,164.1,0,246.1
			c-71.1-41-142.1-82-213.2-123L6524.2,276L6524.2,276z"/>
	</g>
	<g>
		<path class="st0" d="M6630.1,457.1L6841.2,579c-71,41.1-142.1,82.1-213.2,123c0-82,0.1-164.1,0-246.1L6630.1,457.1L6630.1,457.1z
			 M6835.8,579l-205-118.4v236.7L6835.8,579L6835.8,579z"/>
	</g>
	<g>
		<path class="st0" d="M6734.7,638.2l211.2,121.9c-210,121.3-420,242.5-630,363.7c-70.7-40.6-141.2-81.5-211.8-122.3l211.1-121.9
			l1.3,2.4l-207.1,119.5l206.4,119.1l624.6-360.6l-207.1-119.5L6734.7,638.2L6734.7,638.2z"/>
	</g>
	<g>
		<polygon class="st0" points="6314.5,1122.3 6314.5,518.6 6317.2,518.6 6317.2,1122.3 		"/>
	</g>
	<g>
		<path class="st0" d="M6107.4,517.5L6214,579l-108.6,62.7c0-41.8,0-83.6,0-125.4L6107.4,517.5L6107.4,517.5z M6208.5,579L6108,521
			v116L6208.5,579L6208.5,579z"/>
	</g>
	<g>
		<path class="st0" d="M6943.8,1000.4l207.1,119.5v3.2l-208.4-120.3L6943.8,1000.4L6943.8,1000.4z M7150.8,521l-311.6,179.9
			l-1.3-2.4l313-180.7L7150.8,521L7150.8,521z"/>
	</g>
	<g>
		<polygon class="st0" points="6734.7,1000.3 6839.2,1060.7 6837.9,1063.1 6733.3,1002.7 		"/>
	</g>
	<g>
		<path class="st0" d="M6941.8,883.1l-206.4,119.1v117.6l103.2-59.6l103.2,59.6L6941.8,883.1L6941.8,883.1z M6733.3,1000.3
			l211.1-121.9c0,82,0.1,164.1,0,246.1l-105.9-61.1l-105.9,61.1c0-41.3,0.1-82.5,0-123.8L6733.3,1000.3L6733.3,1000.3z"/>
	</g>
	<g>
		<polygon class="st0" points="6734.7,879.6 6839.2,940 6837.9,942.3 6733.3,882 		"/>
	</g>
	<g>
		<g>
			<path class="st0" d="M6260.1-114.7l-211.2-121.9l213.2-123c0.1,82,0,164.1,0,246.1L6260.1-114.7L6260.1-114.7z M6054.4-236.6
				l205,118.4V-355L6054.4-236.6L6054.4-236.6z"/>
		</g>
		<g>
			<path class="st0" d="M6262.1-359.7l100.5-58l-100.5-58V-359.7L6262.1-359.7z M6366-416.5L6259.4-355c0-41.8,0-83.6,0-125.4
				c36.2,20.9,72.4,41.8,108.6,62.7L6366-416.5L6366-416.5z"/>
		</g>
		<g>
			<polygon class="st0" points="6261.4,-235.4 6156.9,-175.1 6155.5,-177.4 6260.1,-237.8 			"/>
		</g>
	</g>
	<g>
		<g>
			<path class="st0" d="M5188.5,1930.2l-211.2-121.9l213.2-123c0.1,82,0,164.1,0,246.1L5188.5,1930.2L5188.5,1930.2z M4982.8,1808.3
				l205,118.4v-236.7L4982.8,1808.3L4982.8,1808.3z"/>
		</g>
		<g>
			<path class="st0" d="M5190.5,1685.2l100.5-58l-100.5-58V1685.2L5190.5,1685.2z M5294.4,1628.4l-106.6,61.6c0-41.8,0-83.6,0-125.4
				c36.2,20.9,72.4,41.8,108.6,62.7L5294.4,1628.4L5294.4,1628.4z"/>
		</g>
		<g>
			<polygon class="st0" points="5189.8,1809.5 5085.3,1869.8 5083.9,1867.5 5188.5,1807.1 			"/>
		</g>
	</g>
	<g>
		<g>
			<path class="st0" d="M5564.8,1442l211.2,121.9l-213.2,123c-0.1-82,0-164.1,0-246.1L5564.8,1442L5564.8,1442z M5770.5,1563.9
				l-205-118.4v236.7L5770.5,1563.9L5770.5,1563.9z"/>
		</g>
		<g>
			<path class="st0" d="M5562.8,1687l-100.5,58l100.5,58V1687L5562.8,1687z M5458.9,1743.8l106.6-61.6c0,41.8,0,83.6,0,125.4
				c-36.2-20.9-72.4-41.8-108.6-62.7L5458.9,1743.8L5458.9,1743.8z"/>
		</g>
		<g>
			<polygon class="st0" points="5563.4,1562.7 5668,1502.4 5669.4,1504.7 5564.8,1565.1 			"/>
		</g>
	</g>
	<g>
		<path class="st0" d="M2379.6,1681.6v-357.5L2070,1502.8L2379.6,1681.6L2379.6,1681.6z M2066.6,1504l-2-1.1
			c105.9-61.1,211.8-122.3,317.7-183.4c0,122.3-0.1,244.5,0,366.8L2066.6,1504L2066.6,1504z"/>
	</g>
	<g>
		<g>
			<path class="st0" d="M2381.6,1079.1l211.2,121.9l-213.2,123c-0.1-82,0-164.1,0-246.1L2381.6,1079.1L2381.6,1079.1z M2587.3,1201
				l-205-118.4v236.7L2587.3,1201L2587.3,1201z"/>
		</g>
		<g>
			<path class="st0" d="M2379.6,1324.1l-100.5,58l100.5,58V1324.1L2379.6,1324.1z M2275.7,1380.9l106.6-61.6c0,41.8,0,83.6,0,125.4
				c-36.2-20.9-72.4-41.8-108.6-62.7L2275.7,1380.9L2275.7,1380.9z"/>
		</g>
		<g>
			<polygon class="st0" points="2380.2,1199.8 2484.8,1139.5 2486.1,1141.8 2381.6,1202.2 			"/>
		</g>
	</g>
	<g>
		<g>
			<path class="st0" d="M3809.3,1681.2l-211.2-121.9l213.2-123c0.1,82,0,164.1,0,246.1L3809.3,1681.2L3809.3,1681.2z M3603.6,1559.3
				l205,118.4v-236.7L3603.6,1559.3L3603.6,1559.3z"/>
		</g>
		<g>
			<path class="st0" d="M3811.4,1436.2l100.5-58l-100.5-58.1V1436.2L3811.4,1436.2z M3915.2,1379.4l-106.6,61.6
				c0-41.8,0-83.6,0-125.4c36.2,20.9,72.4,41.8,108.6,62.7L3915.2,1379.4L3915.2,1379.4z"/>
		</g>
		<g>
			<polygon class="st0" points="3810.7,1560.5 3706.1,1620.8 3704.8,1618.5 3809.3,1558.1 			"/>
		</g>
	</g>
	<g>
		<path class="st0" d="M6021.9,941.3V699.6l209.3,120.8L6021.9,941.3z M6024.8,704.5v231.7l200.7-115.9L6024.8,704.5z"/>
	</g>
	<g>
		<g>
			<path class="st0" d="M6002.1,478.3l-266.7-154l269.3-155.5c0.1,103.7,0,207.3,0,310.9L6002.1,478.3L6002.1,478.3z M5742.3,324.3
				l259,149.5V174.8L5742.3,324.3L5742.3,324.3z"/>
		</g>
		<g>
			<path class="st0" d="M6004.7,168.8l126.9-73.3l-126.9-73.3V168.8L6004.7,168.8z M6135.9,97.1l-134.6,77.7
				c0.1-52.8,0-105.6,0-158.4c45.7,26.4,91.5,52.8,137.2,79.2L6135.9,97.1L6135.9,97.1z"/>
		</g>
		<g>
			<polygon class="st0" points="6003.8,325.8 5871.7,402 5870,399.1 6002.1,322.8 			"/>
		</g>
	</g>
	<g>
		<polygon class="st0" points="7048.3,1627 7466.5,1868.4 7465.1,1870.7 7047,1629.4 		"/>
	</g>
	<g>
		<polygon class="st0" points="7048.3,1506.3 7466.5,1747.7 7465.1,1750.1 7047,1508.6 		"/>
	</g>
	<g>
		<polygon class="st0" points="7152.8,963 7361.9,1083.8 7360.6,1086.1 7151.5,965.4 		"/>
	</g>
	<g>
		<polygon class="st0" points="7047,1385.6 7256,1264.8 7257.4,1267.2 7048.3,1387.9 		"/>
	</g>
	<g>
		<polygon class="st0" points="7152.8,721.6 7257.4,781.9 7256,784.3 7151.5,723.9 		"/>
	</g>
	<g>
		<polygon class="st0" points="7361.9,723.9 7152.8,844.6 7151.5,842.3 7360.6,721.6 		"/>
	</g>
	<g>
		<path class="st0" d="M7152.8,600.9L7362.6,722v244.6c-70.6-40.8-141.3-81.4-211.8-122.3c-0.2-81.5,0-163,0-244.5L7152.8,600.9
			L7152.8,600.9z M7359.9,723.5l-206.4-119.1v238.3l206.4,119.1V723.5L7359.9,723.5z"/>
	</g>
	<g>
		<path class="st0" d="M7048.3,57.6l211.2,121.9l-213.2,123c-0.1-82,0-164.1,0-246.1L7048.3,57.6L7048.3,57.6z M7254,179.5
			L7049,61.1v236.7L7254,179.5L7254,179.5z"/>
	</g>
	<g>
		<path class="st0" d="M7046.3,302.6l-100.5,58l100.5,58V302.6L7046.3,302.6z M6942.4,359.4l106.6-61.6c0,41.8,0,83.6,0,125.4
			c-36.2-20.9-72.4-41.8-108.6-62.7L6942.4,359.4L6942.4,359.4z"/>
	</g>
	<g>
		<path class="st0" d="M7150.8,483.6l-100.5,58l100.5,58V483.6L7150.8,483.6z M7047,540.5l106.6-61.6c0,41.8,0,83.6,0,125.4
			c-36.2-20.9-72.4-41.8-108.6-62.7L7047,540.5L7047,540.5z"/>
	</g>
	<g>
		<path class="st0" d="M7153.5,841.1l-211,121.8v2.5c70.3,40.6,140.7,81.2,211,121.8C7153.5,1005.2,7153.5,923.2,7153.5,841.1z
			 M7150.8,1082.6l-205-118.4l205-118.4V1082.6z"/>
	</g>
	<g>
		<path class="st0" d="M7152.8,1083.7l106.6,61.6l-108.6,62.7c0-41.8,0-83.6,0-125.4L7152.8,1083.7L7152.8,1083.7z M7254,1145.3
			l-100.5-58v116L7254,1145.3L7254,1145.3z"/>
	</g>
	<g>
		<path class="st0" d="M7255.4,1147.6l-309.6,178.7l309.6,178.7V1147.6L7255.4,1147.6z M6942.4,1325.2l315.7-182.2
			c-0.1,122.3,0,244.5,0,366.8c-106-61.1-211.8-122.2-317.7-183.4L6942.4,1325.2L6942.4,1325.2z"/>
	</g>
	<g>
		<polygon class="st0" points="7257.4,1385.6 7361.9,1445.9 7360.6,1448.3 7256,1387.9 		"/>
	</g>
	<g>
		<path class="st0" d="M7569,1208l-100.5,58l100.5,58V1208L7569,1208z M7465.1,1264.8l106.6-61.6c0,41.8,0,83.6,0,125.4l-108.6-62.7
			L7465.1,1264.8L7465.1,1264.8z"/>
	</g>
	<g>
		<path class="st0" d="M7464.4,1026.9l-205,118.4l205,118.4V1026.9L7464.4,1026.9z M7256,1144.1l211.1-121.9c0,82,0.1,164.1,0,246.1
			c-71.1-41-142.1-82-213.2-123L7256,1144.1L7256,1144.1z"/>
	</g>
	<g>
		<path class="st0" d="M7361.9,1325.2l211.2,121.9c-71,41.1-142.1,82.1-213.2,123c0-82,0.1-164.1,0-246.1L7361.9,1325.2
			L7361.9,1325.2z M7567.6,1447.1l-205-118.4v236.7L7567.6,1447.1L7567.6,1447.1z"/>
	</g>
	<g>
		<path class="st0" d="M7466.5,1506.3l211.2,121.9c-210,121.3-420,242.5-630,363.7c-70.7-40.6-141.2-81.5-211.8-122.3l211.1-121.9
			l1.3,2.4l-207.1,119.5l206.4,119.1l624.6-360.6l-207.1-119.5L7466.5,1506.3L7466.5,1506.3z"/>
	</g>
	<g>
		<polygon class="st0" points="7046.3,1990.4 7046.3,1386.7 7049,1386.7 7049,1990.4 		"/>
	</g>
	<g>
		<path class="st0" d="M5207.5,1083.1l106.6,61.6l-108.6,62.7c0-41.8,0-83.6,0-125.4L5207.5,1083.1L5207.5,1083.1z M5308.7,1144.6
			l-100.5-58v116L5308.7,1144.6L5308.7,1144.6z"/>
	</g>
	<g>
		<polygon class="st0" points="7466.5,1868.4 7571,1928.8 7569.7,1931.1 7465.1,1870.7 		"/>
	</g>
	<g>
		<path class="st0" d="M7673.5,1751.2l-206.4,119.1v117.6l103.2-59.6l103.2,59.6L7673.5,1751.2L7673.5,1751.2z M7465.1,1868.4
			l211.1-121.9c0,82,0.1,164.1,0,246.1l-105.9-61.1l-105.9,61.1c0-41.3,0.1-82.5,0-123.8L7465.1,1868.4L7465.1,1868.4z"/>
	</g>
	<g>
		<polygon class="st0" points="7466.5,1747.7 7571,1808.1 7569.7,1810.4 7465.1,1750.1 		"/>
	</g>
	<g>
		<polygon class="st0" points="7047,178.3 7151.5,118 7152.8,120.3 7048.3,180.7 		"/>
	</g>
	<g>
		<path class="st0" d="M7070.9,2097.7l289-166.9v166.9h2.8c0-57.2,0-114.4,0-171.5l-297.1,171.5H7070.9z"/>
	</g>
	<g>
		<path class="st0" d="M5122,1506.9v-241.7l209.3,120.8L5122,1506.9z M5124.9,1270.2V1502l200.7-115.9L5124.9,1270.2z"/>
	</g>
	<g>
		<polygon class="st0" points="7440.8,780.1 7545.4,840.4 7544,842.8 7439.4,782.4 		"/>
	</g>
	<g>
		<path class="st0" d="M7754.5,840.4l106.6,61.6c-36.2,20.9-72.4,41.8-108.6,62.7c0-41.8,0-83.6,0-125.4L7754.5,840.4L7754.5,840.4z
			 M7855.6,902l-100.5-58v116L7855.6,902L7855.6,902z"/>
	</g>
	<g>
		<polygon class="st0" points="7649.9,782.4 7440.8,903.1 7439.4,900.8 7648.5,780.1 		"/>
	</g>
	<g>
		<path class="st0" d="M7440.8,659.3l209.8,121.1V1025c-70.6-40.8-141.3-81.4-211.8-122.3c-0.2-81.5,0-163,0-244.5L7440.8,659.3
			L7440.8,659.3z M7647.8,782l-206.4-119.1v238.3l206.4,119.1V782L7647.8,782z"/>
	</g>
	<g>
		<path class="st0" d="M7438.8,542.1l-100.5,58l100.5,58V542.1L7438.8,542.1z M7334.9,599l106.6-61.6c0,41.8,0,83.6,0,125.4
			c-36.2-20.9-72.4-41.8-108.6-62.7L7334.9,599L7334.9,599z"/>
	</g>
	<g>
		<g>
			<path class="st0" d="M7907.9,1632.9l-266.7-154l269.3-155.5c0.1,103.7,0,207.3,0,310.9L7907.9,1632.9L7907.9,1632.9z M7648,1479
				l259,149.5v-299.1L7648,1479L7648,1479z"/>
		</g>
		<g>
			<path class="st0" d="M7910.4,1323.5l126.9-73.3l-126.9-73.3V1323.5L7910.4,1323.5z M8041.6,1251.7l-134.6,77.7
				c0.1-52.8,0-105.6,0-158.4c45.7,26.4,91.5,52.8,137.2,79.2L8041.6,1251.7L8041.6,1251.7z"/>
		</g>
		<g>
			<polygon class="st0" points="7909.5,1480.4 7777.5,1556.7 7775.8,1553.7 7907.8,1477.5 			"/>
		</g>
	</g>
</g>
</svg>
