<?xml version="1.0" encoding="utf-8"?>
<!-- Generator: Adobe Illustrator 28.3.0, SVG Export Plug-In . SVG Version: 6.00 Build 0)  -->
<svg version="1.1" id="Layer_1" xmlns="http://www.w3.org/2000/svg" xmlns:xlink="http://www.w3.org/1999/xlink" x="0px" y="0px"
	 viewBox="0 0 2900.2 1067.2" style="enable-background:new 0 0 2900.2 1067.2;" xml:space="preserve">
<style type="text/css">
	.st0{fill:none;}
</style>
<g>
	<polygon points="329.5,1977.6 328.9,1976.6 330.1,1976.6 	"/>
	<polygon points="1550.9,1387.7 1550.9,1387.7 1605.7,1292.8 	"/>
	<path d="M1410.7,1685.2h-111.1H1410.7z"/>
	<polygon points="1603.5,1091.4 1603.5,1091.4 1491.7,897.8 	"/>
	<path d="M1721.7,601.3c-37,0-74.1,0-111.1,0l0,0l0,0C1647.6,601.3,1684.6,601.3,1721.7,601.3L1721.7,601.3z"/>
	<path d="M1546.5,1192.8h-223.7H1546.5z"/>
	<polygon points="1534,598.1 1534,598.1 1603.2,478.2 	"/>
	<polygon points="923.7,893.9 923.7,893.9 1035.5,700.2 	"/>
	<polygon points="327.3,1583.9 327.3,1583.9 215.5,1390.2 	"/>
	<path d="M2302.6,141.4h-223.7H2302.6z"/>
	<polygon points="2530.6,731.4 2530.6,731.4 2304.8,340.2 	"/>
	<polygon points="2644.7,533.9 2644.7,533.9 2589.1,437.7 	"/>
	<polygon points="2416.6,731.4 2416.6,731.4 2247.8,439 	"/>
	<path d="M2515.8,893.9L2461,799L2515.8,893.9z"/>
	<path d="M2406.2,893.9L2461,799L2406.2,893.9z"/>
	<polygon points="559.8,478.8 559.8,478.8 671.6,285.2 	"/>
	<path d="M1296.6,577.6l-111.8-193.7L1296.6,577.6z"/>
	<path d="M1073,577.6l111.8-193.7L1073,577.6z"/>
	<path d="M556.1,677.7c-19.3-33.3-38.5-66.7-57.8-100.1l0,0C517.6,611,536.9,644.3,556.1,677.7z"/>
	<polygon points="1299.6,382.6 1299.6,382.6 1410.7,382.6 	"/>
	<polygon points="2578.2,1289.7 2578.2,1289.7 2240.5,1289.7 	"/>
	<rect x="2636.7" y="1234.2" width="0" height="111.1"/>
	<path d="M2695.2,1289.7h111.1H2695.2z"/>
	<path d="M2692.2,1487.2c38,0,76,0,114,0l0,0l0,0C2768.3,1487.2,2730.3,1487.2,2692.2,1487.2z"/>
	<polygon points="2464.2,1879.7 2464.2,1879.7 2352.3,1686 	"/>
	<path d="M2353.1,1882.3L2353.1,1882.3c38.5,0,77,0,115.5,0C2430.1,1882.3,2391.6,1882.3,2353.1,1882.3z"/>
	<path d="M957.5,1685.2L957.5,1685.2c37,0,74.1,0,111.1,0C1031.5,1685.2,994.5,1685.2,957.5,1685.2z"/>
	<polygon points="1672.4,1900.6 1672.4,1900.6 1603.2,1780.7 	"/>
	<polygon points="897.5,1781.4 897.5,1781.4 873.4,1739.7 	"/>
	<path d="M954.5,1685.2H844.9H954.5z"/>
	<path d="M1296.6,382.6H1187H1296.6z"/>
	<path d="M1812,482.7l115.2-199.5l1.1-1.9c-76.5,0-153,0-229.6,0l-56.6-98.1l-1.1-1.9c-19.8,34.2-39.5,68.4-59.2,102.6
		c38.5,0,77,0,115.5,0L1812,482.7z M1923.8,283.9l-54.8,94.9l-54.8-94.9H1923.8z M1811.3,283.9l56.3,97.5l-55.5,96.2l-111.9-193.7
		H1811.3z M1586.2,281.3l54.8-94.9l54.8,94.9H1586.2z"/>
	<path d="M783.5,1071.4h3l-170.3-295l113.6-196.9l1.1-1.9c-38,0-76,0-114.1,0l55.6-96.2c75,0,150.1,0,225.1,0
		c-38,65.8-76,131.7-114,197.5l-57,98.8c39.5,0,79,0,118.5,0l-57-98.8c76,0,152.1,0,228.1,0l-57.9-100l113.3-196.2
		c37,0,74.1,0,111.1,0c-38.1,65.8-76,131.7-114,197.5h231l114-197.5c38.5,0,77,0,115.5,0L1471,282l-1.1-1.9
		c-19.3,33.3-38.5,66.7-57.8,100c-75.5,0-151.1-0.1-226.6,0l-113.7-196.9l-1.1-1.9c-38.3,66.3-76.5,132.5-114.8,198.8
		c-37.5,0-75,0-112.6,0L729.6,183.2l-1.1-1.9c-19.3,33.3-38.5,66.7-57.8,100H330.1L215.5,82.5C177,149.1,138.4,215.8,100,282.6
		c57,98.8,114,197.5,171.1,296.3l-56.3,97.5c-38.5,0.1-77,0-115.5,0l57.8,100l-57.8,100c38,0,76,0,114,0l-112.5,195h3l112.4-194.9
		c38.5,0,77,0,115.5,0l-57.8-100l55.5-96.2c38,65.8,76,131.7,114.1,197.5l111.8,193.7h2.9L444.9,875.3l55.5-96.2l168.8,292.5h3
		l-170.3-295l55.5-96.2c19,32.9,38,65.8,57,98.7L783.5,1071.4z M840.5,775.1H730.9l54.8-94.9L840.5,775.1z M1296.6,382.6l-54.8,94.9
		l-54.8-94.9H1296.6z M1296.6,577.6H1073l0,0l0,0l111.8-193.7L1296.6,577.6L1296.6,577.6L1296.6,577.6z M1298.8,576.3l-55.5-96.2
		l56.3-97.5h111.1L1298.8,576.3z M103.6,281.3L215.5,87.6l111.8,193.7H103.6z M1011.5,676.4H787.9l111.8-193.7L1011.5,676.4z
		 M956.7,576.3l-54.8-94.9l-0.7-1.3l56.3-97.5c37,0,74.1,0,111.1,0L956.7,576.3z M899.7,477.6L876.2,437l-31.3-54.3h109.6
		L899.7,477.6z M1469.9,285.2l54.8,94.9h-109.6L1469.9,285.2z M1070.8,186.4l111.8,193.7H959L1070.8,186.4z M728.7,186.4
		l111.8,193.7l32.9,56.9l24.1,41.8H786.4L673.1,282.6L728.7,186.4z M671.6,285.2l111.8,193.7H559.8l0,0l0,0L671.6,285.2z
		 M103.7,283.9h337.7L272.6,576.3L103.7,283.9z M274,578.9l170.3-295h111.1L329.5,675.1L274,578.9z M103.7,678.9h109.6l-54.8,94.9
		L103.7,678.9z M327.3,873.9H103.7l56.3-97.5l0,0l55.5-96.2L327.3,873.9z M272.5,773.8L217,677.6l55.5-96.2
		c18.5,32.1,37,64.1,55.5,96.2L272.5,773.8z M443.6,872.6L331,677.6l227.3-393.8h111.1c-38,65.8-76,131.7-114,197.5c38,0,76,0,114,0
		l-55.6,96.2c-19.2,0-38.5,0-57.8,0h-57.8c3.5,6.1,7,12.1,10.5,18.2c1.9,3.3,3.8,6.5,5.7,9.8c1,1.8,2.1,3.6,3.1,5.4
		c3.2,5.6,6.4,11.1,9.6,16.7c9.6,16.7,19.2,33.4,28.9,50L443.6,872.6z M502.8,580.2h223.6L614.6,773.9L502.8,580.2z"/>
	<path d="M2903.5,1783.5c-13.4,0-26.8,0-40.2,0l40.2-69.6v5.1l-35.8,61.9h35.8V1783.5z"/>
	<path d="M2862.2,1976.6h3L2753,1782.2l113.6-196.8l1.1-1.9c-38,0-76,0-114,0l55.5-96.3c31.4,0,62.8,0,94.2,0v-2.5h-206.8
		l111.9-193.7l95,164.5v-5.1l-93.5-162l55.5-96.2l38,65.8v-5.1l-36.9-63.8l-1.1-1.9c-19.3,33.3-38.5,66.7-57.8,100.1h-340.6
		l-114.8-198.8c-38.6,66.7-77.1,133.3-115.5,200.1c57,98.8,114,197.5,171.1,296.3l-56.3,97.4c-38.5,0.1-77,0-115.5,0l57.8,100
		l-57.8,100c38,0,76,0,114,0l-54.4,94.3h3l54.4-94.3c38.5,0,77,0,115.5,0l-57.8-100l55.5-96.2c38,65.8,76,131.7,114.1,197.5l53.7,93
		h2.9l-55.2-95.6l55.5-96.2l110.9,191.8h2.9l-112.2-194.4l55.5-96.2c19,32.9,38,65.8,57,98.7L2862.2,1976.6z M2240.5,1287.2
		l111.8-193.7l111.9,193.7H2240.5z M2240.5,1289.7h337.7l0,0l-168.8,292.4L2240.5,1289.7z M2410.8,1584.7l170.3-295h111.1
		l-225.9,391.2L2410.8,1584.7z M2240.5,1684.8h109.6l-54.8,94.9L2240.5,1684.8z M2464.2,1879.7h-223.6l56.3-97.5l55.5-96.2
		L2464.2,1879.7L2464.2,1879.7L2464.2,1879.7z M2409.4,1779.7l-55.5-96.2l55.5-96.2c18.5,32.1,37,64.1,55.5,96.2L2409.4,1779.7z
		 M2580.4,1878.5l-112.6-195l227.4-393.8h111.1c-38,65.8-76,131.7-114,197.5c38,0,76,0,114,0l0,0l-55.6,96.2c-38.5,0-77,0-115.5,0
		c19.2,33.4,38.5,66.7,57.8,100.1L2580.4,1878.5z M2639.6,1586h223.7l-111.8,193.7L2639.6,1586z"/>
	<path d="M2305.5,734h340.6c19.3,33.4,38.5,66.7,57.8,100.1l1.1-1.9l113.7-197c28.3,0,56.5,0,84.8,0v-2.5h-83.3l31.3-54.3l23.5-40.6
		l28.5,49.4v-5.1l-27-46.8l0.7-1.3l0,0l26.3-45.7v-5.1l-28.5,49.4l-111.9-193.7h140.4v-2.6c-46.8,0-93.6,0-140.4,0l57-98.8
		c-39.5,0-79,0-118.5,0l57,98.8c38,65.8,76,131.7,114,197.5c-75,0-150.1,0-225.1,0l-55.6-96.2c38,0,76,0,114.1,0l-1.1-1.9
		l-115-199.4c-19,32.9-38,65.8-57,98.7l-114-197.5c-38,65.8-76.1,131.7-114.1,197.5l-55.6-96.1l57.8-100c-38.5,0-194.5,0-232.5,0
		l57.8,100l-57.8,100c38.5,0,77-0.1,115.5,0l56.3,97.5c-57,98.8-114,197.5-171,296.3c38.4,66.8,77,133.4,115.5,200.1L2305.5,734z
		 M2706.1,240.2h109.6l-54.8,94.9L2706.1,240.2z M2589.9,241.5l111.8,193.7H2478L2589.9,241.5z M2078.9,141.4h223.7l-111.8,193.7
		l-55.6-96.2L2078.9,141.4z M2078.9,336.4l54.8-94.9l54.8,94.9H2078.9z M2192.2,337.7l55.5-96.2l55.5,96.2
		c-18.5,32.1-37,64.1-55.5,96.2L2192.2,337.7z M2078.9,731.4L2247.8,439l168.8,292.4l0,0l0,0H2078.9z M2419.5,731.4L2419.5,731.4
		l-170.3-295l55.5-96.2l225.8,391.2l0,0l0,0H2419.5z M2533.6,731.4l-227.3-393.7l112.6-195l112.6,194.9
		c-19.2,33.3-38.5,66.7-57.8,100.1c38.5,0,77,0,115.5,0l55.6,96.2l0,0l0,0c-38,0-76,0-114.1,0c38,65.9,76,131.7,114,197.5H2533.6
		L2533.6,731.4z M2758.7,536.4l-111.8,193.7l-111.8-193.6L2758.7,536.4z M2761.7,536.4h111.1l-24.1,41.8l-32.9,56.9L2704,828.8
		l-55.6-96.2L2761.7,536.4z M2302.6,734l-111.8,193.7L2078.9,734H2302.6z"/>
	<path d="M375.7,85.7l1.1-1.9c-39.5,0-79,0-118.5,0l59.2,102.6L375.7,85.7z M372.4,86.4l-54.8,94.9l-54.8-94.9
		C262.8,86.4,372.4,86.4,372.4,86.4z"/>
	<path d="M-3.1,577.6h160.7L-3.1,299.2v-5.1l165.1,286c-55,0-110.1,0-165.1,0V577.6z"/>
	<path d="M2004.8,1391.6l58.1-100.7l1.1-1.9c-39.5,0-79,0-118.5,0C1965.3,1323.2,1985.1,1357.4,2004.8,1391.6z M2059.6,1291.5
		l-54.8,94.9l-54.8-94.9H2059.6z"/>
	<path d="M1492.8,698.3l1.1-1.9c-39.5,0-79,0-118.5,0l59.2,102.6L1492.8,698.3z M1489.5,699l-54.8,94.9l-54.8-94.9H1489.5z"/>
	<path d="M2632.1,1095.3l115.1-199.5l1.1-1.9c-76.5,0-153,0-229.6,0l-56.6-98.1l-1.1-1.9c-19.8,34.2-39.5,68.4-59.2,102.6
		c38.5,0,77,0,115.5,0L2632.1,1095.3z M2743.9,896.5l-54.8,94.9l-54.8-94.9H2743.9z M2631.3,896.5l56.3,97.5l-55.5,96.2
		l-111.9-193.7H2631.3z M2406.2,893.9L2406.2,893.9L2406.2,893.9L2461,799l54.8,94.9l0,0l0,0H2406.2z"/>
	<path d="M1320.7,617.6h-228.3l114.1,197.7L1320.7,617.6z M1131.1,678.9h109.6l-54.8,94.9L1131.1,678.9z M1244,678.3l1.1-1.9
		c-38.6,0-77.1,0-115.7,0l-32.4-56.1h218.9l-109.5,189.6l-19.2-33.3L1244,678.3z"/>
	<path d="M1812,1785.2l115.2-199.4l1.1-1.9c-76.5,0-153,0-229.6,0l-56.6-98.1l-1.1-1.9c-19.8,34.2-39.5,68.4-59.2,102.6
		c38.5,0,77,0,115.5,0L1812,1785.2z M1923.8,1586.4l-54.8,94.9l-54.8-94.9H1923.8z M1811.3,1586.4l56.3,97.5l-55.5,96.2
		l-111.9-193.7H1811.3z M1586.2,1583.9l54.8-94.9l54.8,94.9H1586.2z"/>
	<path d="M1013.1,1976.6l-54.9-95.2l113.3-196.3c37,0,74.1,0,111.1,0c-38.1,65.8-76,131.7-114,197.5h231l114-197.5
		c38.5,0,77,0,115.5,0l-58.1-100.7l-1.1-1.9c-6,10.4-12,20.8-18,31.2l-129.8-224.8l55.5-96.2c19,32.9,38,65.8,57,98.7l168.8,292.4h3
		l-170.3-295l113.7-196.9l1.1-1.9c-38,0-76,0-114,0l55.6-96.2c75,0,150.1,0,225.1,0c-38,65.8-76,131.7-114,197.5l-57,98.8
		c39.5,0,79,0,118.5,0l-57-98.8c76,0,152.1,0,228.1,0l-57.8-100L1891.7,995c37,0,74.1,0,111.1,0c-38.1,65.8-76,131.7-114.1,197.5
		h231l114-197.5c38.5,0,77,0,115.5,0l-58.1-100.7l-1.1-1.9c-19.3,33.3-38.5,66.7-57.8,100c-75.5,0-151.1-0.1-226.6,0l-113.7-196.9
		l-1.1-1.9c-9.2,15.9-18.3,31.8-27.5,47.6L1724.6,601c31.2,0,62.5,0,93.7,0l71.6,123.9l1.4,2.4c24.9-43.2,49.9-86.4,74.8-129.6
		c-48.6,0-97.3,0-145.9,0l-145-251.1l-145.5,251.9l-1.4,2.4c26.4,0,52.8,0,79.2,0l197.1,341.7c-9.6,16.6-19.1,33.1-28.7,49.7
		c-37.5,0-75,0-112.5,0l-113.7-196.9l-1.1-1.9c-19.3,33.3-38.5,66.7-57.8,100h-340.6l-114.8-198.8
		c-38.6,66.7-77.1,133.3-115.5,200.1c57,98.8,114,197.5,171.1,296.3l-56.3,97.4c-38.5,0.1-77,0-115.5,0l57.8,100l-57.8,100
		c38,0,76,0,114,0l-111.8,193.6c-26,0-52.1,0-78.1,0l-113.7-196.9l-1.1-1.9c-19.3,33.3-38.5,66.7-57.8,100H330.2l-114.8-198.8
		c-38.5,66.7-77.1,133.3-115.5,200.1c57,98.8,114,197.5,171.1,296.3l-54.9,95.1h3l53.4-92.6c17.8,30.9,35.6,61.7,53.4,92.6h3
		l-54.9-95.2l170.3-295h111.1L330.2,1976h3l225.2-390.2h111.1c-38,65.8-76,131.7-114,197.5c38,0,76,0,114,0l-55.6,96.2
		c-38.5,0-77,0-115.5,0c18.5,32.2,37.1,64.3,55.6,96.4h3l-54.2-93.9h223.6l-54.2,93.9h2.9l54.6-94.5l1.1-1.9c-38,0-76,0-114.1,0
		l55.6-96.2c75,0,150.1,0,225.1,0c-37.1,64.2-74.2,128.4-111.2,192.6h3l110.5-191.4l110.5,191.4h2.9V1976.6z M1296.6,1685.2
		l-54.8,94.9l-54.8-94.9H1296.6z M1073,1880.2l111.8-193.7l111.8,193.7H1073z M1298.8,1878.9l-55.5-96.2l56.3-97.5h111.1
		L1298.8,1878.9z M1660.5,1387.7h-109.6l0,0l0,0l54.8-94.9L1660.5,1387.7z M1893,1190.2l111.8-193.7l111.8,193.7H1893z
		 M2230.7,995.2l-111.8,193.7l-55.5-96.2l56.3-97.5H2230.7z M2116.7,995.2l-54.8,94.9l-54.8-94.9H2116.7z M2235.1,992.7l54.8-94.9
		l54.8,94.9H2235.1z M1960.5,601.3l-69.2,119.9l-69.2-119.9H1960.5z M1675.2,353.4l141.3,244.7h-140.3L1605.1,475L1675.2,353.4z
		 M1534,598.1L1534,598.1l69.2-119.9l69.2,119.9L1534,598.1L1534,598.1z M923.7,893.9L923.7,893.9L923.7,893.9l111.8-193.7
		l111.8,193.7H923.7z M103.6,1583.9l111.8-193.7l111.8,193.7l0,0l0,0H103.6z M1469.9,1587.7l54.8,94.9h-33.1l-38.3-66.3
		L1469.9,1587.7z M1488.7,1682.6h-73.6l36.8-63.7L1488.7,1682.6z M1450.4,1616.4c-12.8,22.1-25.5,44.2-38.3,66.3
		c-11.5,0-23.1,0-34.6,0L1265,1487.8l55.5-96.2L1450.4,1616.4z M1434.7,1386.4l-111.8-193.7h223.6L1434.7,1386.4z M1489.5,1094
		l-55.6,96.2c-38.5,0-77,0-115.5,0c19.2,33.4,38.5,66.7,57.8,100.1l-112.6,194.9l-112.6-195l227.4-393.7h111.1
		c-38,65.8-76,131.7-114,197.5C1413.4,1094,1451.4,1094,1489.5,1094z M1603.5,1091.4L1603.5,1091.4L1603.5,1091.4h-223.6
		l111.8-193.7L1603.5,1091.4z M1831.6,1289H1608l111.8-193.7L1831.6,1289z M1776.8,1188.9L1722,1094l-0.7-1.3l56.3-97.5
		c37,0,74.1,0,111.1,0L1776.8,1188.9z M1719.7,1090.2l-23.5-40.8l-31.2-54.1h109.6L1719.7,1090.2z M1610.6,601.3L1610.6,601.3
		c37,0,74.1,0,111.1,0L1861.8,844c-18.5,32.1-37,64.1-55.6,96.2L1610.6,601.3z M1890.8,799l111.8,193.7h-223.7L1890.8,799z
		 M1548.7,799l111.8,193.7l0,0l32.9,57.1l24.1,41.7h-111.1l0,0l-113.3-196.2L1548.7,799z M923.7,896.5h337.7l-168.8,292.4
		L923.7,896.5z M1094,1191.5l170.3-295h111.1l-225.9,391.2L1094,1191.5z M1092.5,1194.1c18.5,32.1,37,64.1,55.5,96.2l-55.5,96.2
		l-55.5-96.2L1092.5,1194.1z M923.7,1291.5h109.6l-54.8,94.9L923.7,1291.5z M923.7,1486.5L980,1389l55.5-96.2l111.8,193.7H923.7z
		 M1151.8,1489l-57.8-100l55.5-96.2c38,65.8,76,131.7,114.1,197.5l0,0l111,192.3c-18.4,0-36.9,0-55.4,0h-2c-30.2,0-60.4,0-90.6,0
		h-1.9c-13.1,0-26.1,0-39.2,0.1l0,0l-111.8-193.6C1099.8,1489,1125.8,1489,1151.8,1489z M1182.6,1682.6H959l111.8-193.6h0.1
		L1182.6,1682.6z M1036.2,1489.1h31.5c-8.9,15.4-75.9,131.4-111.8,193.6h-31.5L1036.2,1489.1z M272.5,1878.9l-168.8-292.4h337.7
		L272.5,1878.9z M559.8,1781.4l111.8-193.7l111.8,193.7H559.8z M786.4,1781.4l-113.3-196.2l55.6-96.2l111.8,193.7l33,57.1l24.1,41.7
		l0,0l0,0L786.4,1781.4z M954.5,1685.2l-54.8,94.9l-23.6-40.9l-31.2-54.1L954.5,1685.2L954.5,1685.2z M901.9,1784l-0.7-1.3
		l56.3-97.5c37,0,74.1,0,111.1,0l-111.8,193.7L901.9,1784z"/>
	<path d="M672.7,1388.3l1.1-1.9c-39.5,0-79,0-118.5,0l59.2,102.6L672.7,1388.3z M669.4,1388.9l-54.8,94.9l-54.8-94.9H669.4z"/>
	<path d="M-3.1,1880.2h160.7L-3.1,1601.9v-5.1l165.1,286c-55,0-110.1,0-165.1,0V1880.2z"/>
	<path d="M500.7,1307.5H272.4l114.1,197.7L500.7,1307.5z M496,1310.2l-109.4,189.6l-109.5-189.6H496z"/>
	<polygon points="1316,1922.8 1097.1,1922.8 1128.1,1976.6 1125,1976.6 1092.4,1920.1 1320.7,1920.1 1288.1,1976.6 1285,1976.6 	"/>
	<path d="M1918.5,1976.6h3.7c14.6-25.3,29.2-50.6,43.9-76c-48.6,0-97.3,0-145.9,0l-145-251.1l-145.5,251.9l-1.4,2.4
		c26.4,0,52.8,0,79.2,0l41.9,72.7h3l-42-72.7c37,0,74.1,0,111.1,0l42,72.7h3l-42-72.7c31.2,0,62.5,0,93.7,0l42,72.8h3.7l-42-72.7
		h138.6L1918.5,1976.6z M1534,1900.6l69.2-119.9l69.2,119.9l0,0l0,0H1534z M1676.2,1900.6l-71.1-123.1l70.2-121.5l141.3,244.7
		L1676.2,1900.6L1676.2,1900.6z"/>
</g>
<rect x="1203.1" y="77.6" class="st0" width="772.1" height="1900"/>
</svg>
