<?xml version="1.0" encoding="utf-8"?>
<!-- Generator: Adobe Illustrator 28.3.0, SVG Export Plug-In . SVG Version: 6.00 Build 0)  -->
<svg version="1.1" id="Layer_1" xmlns="http://www.w3.org/2000/svg" xmlns:xlink="http://www.w3.org/1999/xlink" x="0px" y="0px"
	 viewBox="0 0 1900 2618.2" style="enable-background:new 0 0 1900 2618.2;" xml:space="preserve">
<style type="text/css">
	.st0{fill:#404452;}
	.st1{fill:none;}
</style>
<g>
	<polygon class="st0" points="1900.1,2570.7 1899.1,2571.3 1899.1,2570.1 	"/>
	<polygon class="st0" points="1310.2,1349.3 1310.2,1349.3 1215.3,1294.5 	"/>
	<path class="st0" d="M1607.7,1489.5v111.1V1489.5z"/>
	<polygon class="st0" points="1013.9,1296.7 1013.9,1296.7 820.3,1408.5 	"/>
	<path class="st0" d="M523.8,1178.5c0,37,0,74.1,0,111.1l0,0l0,0C523.8,1252.6,523.8,1215.6,523.8,1178.5L523.8,1178.5z"/>
	<path class="st0" d="M1115.3,1353.7v223.7V1353.7z"/>
	<polygon class="st0" points="520.6,1366.2 520.6,1366.2 400.7,1297 	"/>
	<polygon class="st0" points="816.4,1976.5 816.4,1976.5 622.7,1864.7 	"/>
	<polygon class="st0" points="1506.4,2572.9 1506.4,2572.9 1312.7,2684.7 	"/>
	<path class="st0" d="M63.9,597.6v223.7V597.6z"/>
	<polygon class="st0" points="653.9,369.6 653.9,369.6 262.7,595.4 	"/>
	<polygon class="st0" points="456.4,255.5 456.4,255.5 360.2,311.1 	"/>
	<polygon class="st0" points="653.9,483.6 653.9,483.6 361.5,652.4 	"/>
	<path class="st0" d="M816.4,384.4l-94.9,54.8L816.4,384.4z"/>
	<path class="st0" d="M816.4,494l-94.9-54.8L816.4,494z"/>
	<polygon class="st0" points="401.3,2340.4 401.3,2340.4 207.7,2228.6 	"/>
	<path class="st0" d="M500.1,1603.6l-193.7,111.8L500.1,1603.6z"/>
	<path class="st0" d="M500.1,1827.2l-193.7-111.8L500.1,1827.2z"/>
	<path class="st0" d="M600.2,2344.1c-33.3,19.3-66.7,38.5-100.1,57.8l0,0C533.5,2382.6,566.8,2363.3,600.2,2344.1z"/>
	<polygon class="st0" points="305.1,1600.6 305.1,1600.6 305.1,1489.5 	"/>
	<polygon class="st0" points="1212.2,322 1212.2,322 1212.2,659.7 	"/>
	<rect x="1212.2" y="208" class="st0" width="0" height="111.1"/>
	<path class="st0" d="M1212.2,205V93.9V205z"/>
	<path class="st0" d="M1409.7,208c0-38,0-76,0-114l0,0l0,0C1409.7,131.9,1409.7,169.9,1409.7,208z"/>
	<polygon class="st0" points="1802.2,436 1802.2,436 1608.5,547.9 	"/>
	<path class="st0" d="M1804.8,547.1L1804.8,547.1c0-38.5,0-77,0-115.5C1804.8,470.1,1804.8,508.6,1804.8,547.1z"/>
	<path class="st0" d="M1607.7,1942.7L1607.7,1942.7c0-37,0-74.1,0-111.1C1607.7,1868.7,1607.7,1905.7,1607.7,1942.7z"/>
	<polygon class="st0" points="1823.1,1227.8 1823.1,1227.8 1703.2,1297 	"/>
	<polygon class="st0" points="1703.9,2002.7 1703.9,2002.7 1662.2,2026.8 	"/>
	<path class="st0" d="M1607.7,1945.7v109.6V1945.7z"/>
	<path class="st0" d="M305.1,1603.6v109.6V1603.6z"/>
	<path class="st0" d="M405.2,1088.2L205.7,973l-1.9-1.1c0,76.5,0,153,0,229.6l-98.1,56.6l-1.9,1.1c34.2,19.8,68.4,39.5,102.6,59.2
		c0-38.5,0-77,0-115.5L405.2,1088.2z M206.4,976.4l94.9,54.8l-94.9,54.8V976.4z M206.4,1088.9l97.5-56.3l96.2,55.5L206.4,1200
		V1088.9z M203.8,1314l-94.9-54.8l94.9-54.8V1314z"/>
	<path class="st0" d="M993.9,2116.7v-3l-295,170.3L502,2170.4l-1.9-1.1c0,38,0,76,0,114.1l-96.2-55.6c0-75,0-150.1,0-225.1
		c65.8,38,131.7,76,197.5,114l98.8,57c0-39.5,0-79,0-118.5l-98.8,57c0-76,0-152.1,0-228.1l-100,57.9l-196.2-113.3
		c0-37,0-74.1,0-111.1c65.8,38.1,131.7,76,197.5,114v-231l-197.5-114c0-38.5,0-77,0-115.5l-100.7,58.1l-1.9,1.1
		c33.3,19.3,66.7,38.5,100,57.8c0,75.5-0.1,151.1,0,226.6l-196.9,113.7l-1.9,1.1c66.3,38.3,132.5,76.5,198.8,114.8
		c0,37.5,0,75,0,112.6l-196.9,113.7l-1.9,1.1c33.3,19.3,66.7,38.5,100,57.8v340.6L5,2684.7c66.6,38.5,133.3,77.1,200.1,115.5
		c98.8-57,197.5-114,296.3-171.1l97.5,56.3c0.1,38.5,0,77,0,115.5l100-57.8l100,57.8c0-38,0-76,0-114l195,112.5v-3L799,2684
		c0-38.5,0-77,0-115.5l-100,57.8l-96.2-55.5c65.8-38,131.7-76,197.5-114.1L994,2344.9v-2.9l-196.2,113.3l-96.2-55.5L994.1,2231v-3
		l-295,170.3l-96.2-55.5c32.9-19,65.8-38,98.7-57L993.9,2116.7z M697.6,2059.7v109.6l-94.9-54.8L697.6,2059.7z M305.1,1603.6
		l94.9,54.8l-94.9,54.8V1603.6z M500.1,1603.6v223.6l0,0l0,0l-193.7-111.8L500.1,1603.6L500.1,1603.6L500.1,1603.6z M498.8,1601.4
		l-96.2,55.5l-97.5-56.3v-111.1L498.8,1601.4z M203.8,2796.6L10.1,2684.7l193.7-111.8V2796.6z M598.9,1888.7v223.6l-193.7-111.8
		L598.9,1888.7z M498.8,1943.5l-94.9,54.8l-1.3,0.7l-97.5-56.3c0-37,0-74.1,0-111.1L498.8,1943.5z M400.1,2000.5l-40.6,23.5
		l-54.3,31.3v-109.6L400.1,2000.5z M207.7,1430.3l94.9-54.8v109.6L207.7,1430.3z M108.9,1829.4l193.7-111.8v223.6L108.9,1829.4z
		 M108.9,2171.5l193.7-111.8l56.9-32.9l41.8-24.1v111.1l-196.2,113.3L108.9,2171.5z M207.7,2228.6l193.7-111.8v223.6l0,0l0,0
		L207.7,2228.6z M206.4,2796.5v-337.7l292.4,168.8L206.4,2796.5z M501.4,2626.2l-295-170.3v-111.1l391.2,225.9L501.4,2626.2z
		 M601.4,2796.5v-109.6l94.9,54.8L601.4,2796.5z M796.4,2572.9v223.6l-97.5-56.3l0,0l-96.2-55.5L796.4,2572.9z M696.3,2627.7
		l-96.2,55.5l-96.2-55.5c32.1-18.5,64.1-37,96.2-55.5L696.3,2627.7z M795.1,2456.6l-195,112.6l-393.8-227.3v-111.1
		c65.8,38,131.7,76,197.5,114c0-38,0-76,0-114l96.2,55.6c0,19.2,0,38.5,0,57.8v57.8c6.1-3.5,12.1-7,18.2-10.5
		c3.3-1.9,6.5-3.8,9.8-5.7c1.8-1,3.6-2.1,5.4-3.1c5.6-3.2,11.1-6.4,16.7-9.6c16.7-9.6,33.4-19.2,50-28.9L795.1,2456.6z
		 M502.7,2397.4v-223.6l193.7,111.8L502.7,2397.4z"/>
	<path class="st0" d="M1706-3.3c0,13.4,0,26.8,0,40.2l-69.6-40.2h5.1l61.9,35.8V-3.3H1706z"/>
	<path class="st0" d="M1899.1,38v-3l-194.4,112.2L1507.9,33.6l-1.9-1.1c0,38,0,76,0,114L1409.7,91c0-31.4,0-62.8,0-94.2h-2.5v206.8
		L1213.5,91.7l164.5-95h-5.1l-162,93.5l-96.2-55.5l65.8-38h-5.1l-63.8,36.9l-1.9,1.1c33.3,19.3,66.7,38.5,100.1,57.8v340.6
		L1011,547.9c66.7,38.6,133.3,77.1,200.1,115.5c98.8-57,197.5-114,296.3-171.1l97.4,56.3c0.1,38.5,0,77,0,115.5l100-57.8l100,57.8
		c0-38,0-76,0-114l94.3,54.4v-3l-94.3-54.4c0-38.5,0-77,0-115.5l-100,57.8l-96.2-55.5c65.8-38,131.7-76,197.5-114.1l93-53.7v-2.9
		l-95.6,55.2l-96.2-55.5L1899.1,152v-2.9l-194.4,112.2l-96.2-55.5c32.9-19,65.8-38,98.7-57L1899.1,38z M1209.7,659.7L1016,547.9
		L1209.7,436V659.7z M1212.2,659.7V322l0,0l292.4,168.8L1212.2,659.7z M1507.2,489.4l-295-170.3V208l391.2,225.9L1507.2,489.4z
		 M1607.3,659.7V550.1l94.9,54.8L1607.3,659.7z M1802.2,436v223.6l-97.5-56.3l-96.2-55.5L1802.2,436L1802.2,436L1802.2,436z
		 M1702.2,490.8l-96.2,55.5l-96.2-55.5c32.1-18.5,64.1-37,96.2-55.5L1702.2,490.8z M1801,319.8l-195,112.6L1212.2,205V93.9
		c65.8,38,131.7,76,197.5,114c0-38,0-76,0-114l0,0l96.2,55.6c0,38.5,0,77,0,115.5c33.4-19.2,66.7-38.5,100.1-57.8L1801,319.8z
		 M1508.5,260.6V36.9l193.7,111.8L1508.5,260.6z"/>
	<path class="st0" d="M656.5,594.7V254.1c33.4-19.3,66.7-38.5,100.1-57.8l-1.9-1.1l-197-113.7c0-28.3,0-56.5,0-84.8h-2.5V80
		l-54.3-31.3l-40.6-23.5l49.4-28.5h-5.1l-46.8,27l-1.3-0.7l0,0L410.8-3.3h-5.1l49.4,28.5L261.4,137.1V-3.3h-2.6
		c0,46.8,0,93.6,0,140.4l-98.8-57c0,39.5,0,79,0,118.5l98.8-57c65.8-38,131.7-76,197.5-114c0,75,0,150.1,0,225.1l-96.2,55.6
		c0-38,0-76,0-114.1l-1.9,1.1l-199.4,115c32.9,19,65.8,38,98.7,57L60,481.3c65.8,38,131.7,76.1,197.5,114.1L161.4,651l-100-57.8
		c0,38.5,0,194.5,0,232.5l100-57.8l100,57.8c0-38.5-0.1-77,0-115.5l97.5-56.3c98.8,57,197.5,114,296.3,171
		c66.8-38.4,133.4-77,200.1-115.5L656.5,594.7z M162.7,194.1V84.5l94.9,54.8L162.7,194.1z M164,310.3l193.7-111.8v223.7L164,310.3z
		 M63.9,821.3V597.6l193.7,111.8L161.4,765L63.9,821.3z M258.9,821.3L164,766.5l94.9-54.8V821.3z M260.2,708L164,652.5l96.2-55.5
		c32.1,18.5,64.1,37,96.2,55.5L260.2,708z M653.9,821.3L361.5,652.4l292.4-168.8l0,0l0,0V821.3z M653.9,480.7L653.9,480.7L358.9,651
		l-96.2-55.5l391.2-225.8l0,0l0,0V480.7z M653.9,366.6L260.2,593.9l-195-112.6l194.9-112.6c33.3,19.2,66.7,38.5,100.1,57.8
		c0-38.5,0-77,0-115.5l96.2-55.6l0,0l0,0c0,38,0,76,0,114.1c65.9-38,131.7-76,197.5-114V366.6L653.9,366.6z M458.9,141.5
		l193.7,111.8L459,365.1L458.9,141.5z M458.9,138.5V27.4l41.8,24.1l56.9,32.9l193.7,111.8l-96.2,55.6L458.9,138.5z M656.5,597.6
		l193.7,111.8L656.5,821.3V597.6z"/>
	<path class="st0" d="M8.2,2524.5l-1.9-1.1c0,39.5,0,79,0,118.5l102.6-59.2L8.2,2524.5z M8.9,2527.8l94.9,54.8l-94.9,54.8
		C8.9,2637.4,8.9,2527.8,8.9,2527.8z"/>
	<path class="st0" d="M500.1,2903.3v-160.7l-278.4,160.7h-5.1l286-165.1c0,55,0,110.1,0,165.1H500.1z"/>
	<path class="st0" d="M1314.1,895.4l-100.7-58.1l-1.9-1.1c0,39.5,0,79,0,118.5C1245.7,934.9,1279.9,915.1,1314.1,895.4z M1214,840.6
		l94.9,54.8l-94.9,54.8V840.6z"/>
	<path class="st0" d="M620.8,1407.4l-1.9-1.1c0,39.5,0,79,0,118.5l102.6-59.2L620.8,1407.4z M621.5,1410.7l94.9,54.8l-94.9,54.8
		V1410.7z"/>
	<path class="st0" d="M1017.8,268.1L818.3,153l-1.9-1.1c0,76.5,0,153,0,229.6l-98.1,56.6l-1.9,1.1c34.2,19.8,68.4,39.5,102.6,59.2
		c0-38.5,0-77,0-115.5L1017.8,268.1z M819,156.3l94.9,54.8L819,265.9V156.3z M819,268.9l97.5-56.3l96.2,55.5L819,380V268.9z
		 M816.4,494L816.4,494L816.4,494l-94.9-54.8l94.9-54.8l0,0l0,0V494z"/>
	<path class="st0" d="M540.1,1579.5v228.3l197.7-114.1L540.1,1579.5z M601.4,1769.1v-109.6l94.9,54.8L601.4,1769.1z M600.8,1656.2
		l-1.9-1.1c0,38.6,0,77.1,0,115.7l-56.1,32.4v-218.9l189.6,109.5l-33.3,19.2L600.8,1656.2z"/>
	<path class="st0" d="M1707.7,1088.2L1508.3,973l-1.9-1.1c0,76.5,0,153,0,229.6l-98.1,56.6l-1.9,1.1c34.2,19.8,68.4,39.5,102.6,59.2
		c0-38.5,0-77,0-115.5L1707.7,1088.2z M1508.9,976.4l94.9,54.8l-94.9,54.8V976.4z M1508.9,1088.9l97.5-56.3l96.2,55.5L1508.9,1200
		V1088.9z M1506.4,1314l-94.9-54.8l94.9-54.8V1314z"/>
	<path class="st0" d="M1899.1,1887.1l-95.2,54.9l-196.3-113.3c0-37,0-74.1,0-111.1c65.8,38.1,131.7,76,197.5,114v-231l-197.5-114
		c0-38.5,0-77,0-115.5l-100.7,58.1l-1.9,1.1c10.4,6,20.8,12,31.2,18l-224.8,129.8l-96.2-55.5c32.9-19,65.8-38,98.7-57l292.4-168.8
		v-3l-295,170.3l-196.9-113.7l-1.9-1.1c0,38,0,76,0,114l-96.2-55.6c0-75,0-150.1,0-225.1c65.8,38,131.7,76,197.5,114l98.8,57
		c0-39.5,0-79,0-118.5l-98.8,57c0-76,0-152.1,0-228.1l-100,57.8l-196.3-113.3c0-37,0-74.1,0-111.1c65.8,38.1,131.7,76,197.5,114.1
		v-231l-197.5-114c0-38.5,0-77,0-115.5l-100.7,58.1l-1.9,1.1c33.3,19.3,66.7,38.5,100,57.8c0,75.5-0.1,151.1,0,226.6L718,1008.3
		l-1.9,1.1c15.9,9.2,31.8,18.3,47.6,27.5l-240.2,138.7c0-31.2,0-62.5,0-93.7l123.9-71.6l2.4-1.4c-43.2-24.9-86.4-49.9-129.6-74.8
		c0,48.6,0,97.3,0,145.9l-251.1,145L521,1370.5l2.4,1.4c0-26.4,0-52.8,0-79.2l341.7-197.1c16.6,9.6,33.1,19.1,49.7,28.7
		c0,37.5,0,75,0,112.5l-196.9,113.7l-1.9,1.1c33.3,19.3,66.7,38.5,100,57.8V1750l-198.8,114.8c66.7,38.6,133.3,77.1,200.1,115.5
		c98.8-57,197.5-114,296.3-171.1l97.4,56.3c0.1,38.5,0,77,0,115.5l100-57.8l100,57.8c0-38,0-76,0-114l193.6,111.8
		c0,26,0,52.1,0,78.1l-196.9,113.7l-1.9,1.1c33.3,19.3,66.7,38.5,100,57.8V2570L1307,2684.8c66.7,38.5,133.3,77.1,200.1,115.5
		c98.8-57,197.5-114,296.3-171.1l95.1,54.9v-3l-92.6-53.4c30.9-17.8,61.7-35.6,92.6-53.4v-3l-95.2,54.9l-295-170.3v-111.1
		l390.2,225.2v-3l-390.2-225.2v-111.1c65.8,38,131.7,76,197.5,114c0-38,0-76,0-114l96.2,55.6c0,38.5,0,77,0,115.5
		c32.2-18.5,64.3-37.1,96.4-55.6v-3l-93.9,54.2v-223.6l93.9,54.2v-2.9l-94.5-54.6l-1.9-1.1c0,38,0,76,0,114.1l-96.2-55.6
		c0-75,0-150.1,0-225.1c64.2,37.1,128.4,74.2,192.6,111.2v-3L1707,2000.5l191.4-110.5v-2.9H1899.1z M1607.7,1603.6l94.9,54.8
		l-94.9,54.8V1603.6z M1802.7,1827.2L1609,1715.4l193.7-111.8V1827.2z M1801.4,1601.4l-96.2,55.5l-97.5-56.3v-111.1L1801.4,1601.4z
		 M1310.2,1239.7v109.6l0,0l0,0l-94.9-54.8L1310.2,1239.7z M1112.7,1007.2L919,895.4l193.7-111.8V1007.2z M917.7,669.5l193.7,111.8
		l-96.2,55.5l-97.5-56.3V669.5z M917.7,783.5l94.9,54.8l-94.9,54.8V783.5z M915.2,665.1l-94.9-54.8l94.9-54.8V665.1z M523.8,939.7
		l119.9,69.2l-119.9,69.2V939.7z M275.9,1225l244.7-141.3V1224l-123.1,71.1L275.9,1225z M520.6,1366.2L520.6,1366.2L400.7,1297
		l119.9-69.2L520.6,1366.2L520.6,1366.2z M816.4,1976.5L816.4,1976.5L816.4,1976.5l-193.7-111.8l193.7-111.8V1976.5z M1506.4,2796.6
		l-193.7-111.8l193.7-111.8l0,0l0,0V2796.6z M1510.2,1430.3l94.9-54.8v33.1l-66.3,38.3L1510.2,1430.3z M1605.1,1411.5v73.6
		l-63.7-36.8L1605.1,1411.5z M1538.9,1449.8c22.1,12.8,44.2,25.5,66.3,38.3c0,11.5,0,23.1,0,34.6l-194.9,112.5l-96.2-55.5
		L1538.9,1449.8z M1308.9,1465.5l-193.7,111.8v-223.6L1308.9,1465.5z M1016.5,1410.7l96.2,55.6c0,38.5,0,77,0,115.5
		c33.4-19.2,66.7-38.5,100.1-57.8l194.9,112.6l-195,112.6L819,1521.8v-111.1c65.8,38,131.7,76,197.5,114
		C1016.5,1486.8,1016.5,1448.8,1016.5,1410.7z M1013.9,1296.7L1013.9,1296.7L1013.9,1296.7v223.6l-193.7-111.8L1013.9,1296.7z
		 M1211.5,1068.6v223.6l-193.7-111.8L1211.5,1068.6z M1111.4,1123.4l-94.9,54.8l-1.3,0.7l-97.5-56.3c0-37,0-74.1,0-111.1
		L1111.4,1123.4z M1012.7,1180.5l-40.8,23.5l-54.1,31.2v-109.6L1012.7,1180.5z M523.8,1289.6L523.8,1289.6c0-37,0-74.1,0-111.1
		l242.7-140.1c32.1,18.5,64.1,37,96.2,55.6L523.8,1289.6z M721.5,1009.4l193.7-111.8v223.7L721.5,1009.4z M721.5,1351.5l193.7-111.8
		l0,0l57.1-32.9l41.7-24.1v111.1l0,0l-196.2,113.3L721.5,1351.5z M819,1976.5v-337.7l292.4,168.8L819,1976.5z M1114,1806.2
		l-295-170.3v-111.1l391.2,225.9L1114,1806.2z M1116.6,1807.7c32.1-18.5,64.1-37,96.2-55.5l96.2,55.5l-96.2,55.5L1116.6,1807.7z
		 M1214,1976.5v-109.6l94.9,54.8L1214,1976.5z M1409,1976.5l-97.5-56.3l-96.2-55.5l193.7-111.8V1976.5z M1411.5,1748.4l-100,57.8
		l-96.2-55.5c65.8-38,131.7-76,197.5-114.1l0,0l192.3-111c0,18.4,0,36.9,0,55.4v2c0,30.2,0,60.4,0,90.6v1.9c0,13.1,0,26.1,0.1,39.2
		l0,0l-193.6,111.8C1411.5,1800.4,1411.5,1774.4,1411.5,1748.4z M1605.1,1717.6v223.6l-193.6-111.8v-0.1L1605.1,1717.6z
		 M1411.6,1864v-31.5c15.4,8.9,131.4,75.9,193.6,111.8v31.5L1411.6,1864z M1801.4,2627.7L1509,2796.5v-337.7L1801.4,2627.7z
		 M1703.9,2340.4l-193.7-111.8l193.7-111.8V2340.4z M1703.9,2113.8l-196.2,113.3l-96.2-55.6l193.7-111.8l57.1-33l41.7-24.1l0,0l0,0
		L1703.9,2113.8z M1607.7,1945.7l94.9,54.8l-40.9,23.6l-54.1,31.2L1607.7,1945.7L1607.7,1945.7z M1706.5,1998.3l-1.3,0.7l-97.5-56.3
		c0-37,0-74.1,0-111.1l193.7,111.8L1706.5,1998.3z"/>
	<path class="st0" d="M1310.8,2227.5l-1.9-1.1c0,39.5,0,79,0,118.5l102.6-59.2L1310.8,2227.5z M1311.4,2230.8l94.9,54.8l-94.9,54.8
		V2230.8z"/>
	<path class="st0" d="M1802.7,2903.3v-160.7l-278.3,160.7h-5.1l286-165.1c0,55,0,110.1,0,165.1H1802.7z"/>
	<path class="st0" d="M1230,2399.5v228.3l197.7-114.1L1230,2399.5z M1232.7,2404.2l189.6,109.4l-189.6,109.5V2404.2z"/>
	<polygon class="st0" points="1845.3,1584.2 1845.3,1803.1 1899.1,1772.1 1899.1,1775.2 1842.6,1807.8 1842.6,1579.5 1899.1,1612.1 
		1899.1,1615.2 	"/>
	<path class="st0" d="M1899.1,981.7V978c-25.3-14.6-50.6-29.2-76-43.9c0,48.6,0,97.3,0,145.9L1572,1225l251.9,145.5l2.4,1.4
		c0-26.4,0-52.8,0-79.2l72.7-41.9v-3l-72.7,42c0-37,0-74.1,0-111.1l72.7-42v-3l-72.7,42c0-31.2,0-62.5,0-93.7l72.8-42v-3.7l-72.7,42
		V939.7L1899.1,981.7z M1823.1,1366.2l-119.9-69.2l119.9-69.2l0,0l0,0V1366.2z M1823.1,1224l-123.1,71.1l-121.5-70.2l244.7-141.3
		L1823.1,1224L1823.1,1224z"/>
</g>
<rect x="0.1" y="925" class="st1" width="1900" height="772.1"/>
</svg>
