<?xml version="1.0" encoding="utf-8"?>
<!-- Generator: Adobe Illustrator 28.2.0, SVG Export Plug-In . SVG Version: 6.00 Build 0)  -->
<svg version="1.1" id="Layer_1" xmlns="http://www.w3.org/2000/svg" xmlns:xlink="http://www.w3.org/1999/xlink" x="0px" y="0px"
	 viewBox="0 0 6320 3520" style="enable-background:new 0 0 6320 3520;" xml:space="preserve">
<style type="text/css">
	.st0{fill:#64666A;}
</style>
<g>
	<path class="st0" d="M556.2000122,1731.3500977l-368.0599976-212.4899902l-3.5300293-2.0400391
		c0,141.1999512-0.0799561,282.4099121,0.0100098,423.619873L3.5499878,2044.9799805L0,2047.0200195
		c63.0999756,36.4599609,126.210022,72.8999023,189.3300171,109.3100586c0-71.0500488-0.0400391-142.1101074,0.0100098-213.1600342
		L556.2000122,1731.3500977z M184.6099854,2148.1601562L9.4400024,2047.0200195l175.1699829-101.1300049V2148.1601562z
		 M546.75,1731.3500977l-357.4099731,206.3598633v-204.9899902l179.8899536-103.869873L546.75,1731.3500977z
		 M189.3300171,1524.9899902l175.1599731,101.1400146l-175.1599731,101.1300049V1524.9899902z"/>
	<path class="st0" d="M553.8400879,3419.0200195C612.1101074,3452.6901855,670.4001465,3486.3500977,728.6901855,3520h9.4899902
		l-181.9799805-105.0700684l-2.3601074,1.3601074V3419.0200195z"/>
	<path class="st0" d="M733.7202148,3307l1.1999512,0.6901855l-2.3701172,4.0898438l-1.0946045-0.6352539l1.0916748,0.6303711
		l2.3691406-4.0820312l-1.1983643-0.6916504L733.7202148,3307l-362.1601562-209.0998535c0,0.0100098,0,0.0100098,0,0.0100098
		c-0.0100098,1.8200684-0.0100098,3.6298828,0,5.4499512l357.4301758,206.3598633l-175.1501465,101.130127v2.7199707
		l2.3601074,1.3598633l357.4299316-206.3498535V3520h4.7399902c0.0100098-106.5300293-0.0300293-213.0598145-0.0300293-319.5898438
		L733.7202148,3307z"/>
	<path class="st0" d="M371.5599976,3097.8999023c-0.0200195-68.3198242-0.0100098-136.6499023,0.0300293-204.9897461
		c121.3699951,70.3598633,243,140.3098145,364.5099487,210.4499512v-426.3500977l-364.5199585-210.4499512
		c0-71.0500488-0.0400391-142.1201172,0.0100098-213.1699219l-185.7900391,107.2597656L182.25,2362.6999512
		c61.5300293,35.5500488,123.0700073,71.0900879,184.6199951,106.5900879
		c-0.0100098,91.9499512-0.1099854,183.8999023-0.1099854,275.8500977c0,47.4399414,0.0299683,94.8798828,0.1099854,142.3198242
		L3.5499878,3097.2199707L0,3099.2700195c122.2700195,70.6298828,244.5599976,141.2600098,366.8699951,211.8100586
		c0,46.1699219-0.0200195,93.4599609-0.0200195,140.369873c0,23,0.0100098,45.9101562,0.0200195,68.5500488h7.3599854
		l147.8600464-85.3701172l27.0299683-15.6098633V3520h4.6900024c0.0100098-33.6599121,0.0100098-67.3198242,0.0300293-100.9799805
		v-2.7299805l2.3599854-1.3598633l-2.3599854-1.3601074v-2.7199707l-2.3500366,1.3598633h-0.0100098l-179.8999634-103.8498535
		c0-68.3300781-0.0200195-136.670166-0.0200195-205c-0.0100098-1.8200684-0.0100098-3.630127,0-5.4499512
		C371.5599976,3097.9101562,371.5599976,3097.9101562,371.5599976,3097.8999023z M731.3599854,3095.1801758
		l-357.4099731-206.3701172l357.4099731-206.3400879V3095.1801758z M371.5900269,2884.7299805v-202.2700195l175.1699829,101.1401367
		L371.5900269,2884.7299805z M371.5800171,2472.0100098l357.4400024,206.3601074l-177.5300293,102.5L371.5800171,2677V2472.0100098z
		 M366.8699951,3305.6298828L9.4400024,3099.2600098l357.4299927-206.3601074V3305.6298828z M371.5800171,3313.7900391
		L546.75,3414.9301758l-175.1599731,101.1398926l-0.0100098-202.2700195V3313.7900391z M366.8699951,2463.8300781
		l-175.1799927-101.130127l175.1799927-101.1398926V2463.8300781z"/>
	<path class="st0" d="M2231.1000977,2002.7900391l-182.2600098,105.2199707
		c0.0300293-50.5100098,0.0397949-101.0200195,0.0397949-151.5300293c0-89.7900391-0.0297852-179.5699463-0.0297852-269.369873
		l-184.630127,106.5998535l-362.1599121-209.1098633c-0.0100098,1.8199463-0.0100098,3.6398926,0,5.4499512v0.0100098
		L1859.5,1796.4300537l-175.1599121,101.1300049v2.7199707l2.3598633,1.3599854l357.4300537-206.3599854V2108
		l-357.4300537-206.3599854L1684.3400879,1903v2.7199707c121.4799805,70.1900635,243,140.3200684,364.5,210.4602051
		l182.2600098,105.2299805C2231.1401367,2148.5300293,2231.1000977,2075.6601562,2231.1000977,2002.7900391z
		 M2226.3798828,2213.2299805l-175.1699219-101.1398926l175.1699219-101.1401367V2213.2299805z"/>
	<path class="st0" d="M2233.4699707,1375.5300293l-185.8000488-107.2700195l-3.5299072-2.0400391
		c0.039917,72.880127,0,145.75,0,218.6201172C2107.2700195,1448.4301758,2170.3798828,1411.9799805,2233.4699707,1375.5300293z
		 M2048.8598633,1274.3798828l175.1801758,101.1401367l-175.1801758,101.1400146V1274.3798828z"/>
	<path class="st0" d="M3788.2800293,490.8500977c-63.130127,36.4099121-126.2399902,72.8598633-189.3300781,109.3100586
		L3784.75,707.4301758l3.5300293,2.0397949C3788.2399902,636.5900879,3788.2800293,563.7199707,3788.2800293,490.8500977z
		 M3783.5600586,701.3100586l-175.1801758-101.1401367l175.1801758-101.1398926V701.3100586z"/>
	<path class="st0" d="M954.1400146,2320.5l-3.5400391-2.0500488c0,72.8701172-0.039978,145.7399902,0,218.6201172
		L1139.9399414,2427.75L954.1400146,2320.5z M955.3099976,2326.6101074L1130.4899902,2427.75l-175.1799927,101.1401367V2326.6101074
		z"/>
	<path class="st0" d="M2411,2319.8100586l-182.2700195,105.2199707l-363.3299561-209.7600098l-3.5400391-2.0400391
		c0.0400391,70.1499023,0.0499268,140.3100586,0.0400391,210.4599609l3.5,2.0200195l-3.5-2.0100098v-0.0100098
		l-177.5899658-102.5200195c-0.0100098-66.0297852-0.0300293-132.0598145-0.0300293-198.0998535
		c0-72.4499512,0.0200195-144.9000244,0.0600586-217.3500977V1903l2.3598633-1.3599854l-2.3598633-1.3599854v-2.7299805
		l-2.3601074,1.3599854l-179.8999023-103.8499756c0-68.3400879-0.0200195-136.6600342-0.0200195-205v-0.0100098
		c-0.0100098-1.8100586-0.0100098-3.6300049,0-5.4499512c0-22.7800293-0.0100098-45.5500488-0.0100098-68.3300781
		c0-45.5500488,0.0100098-91.1000977,0.0400391-136.6499023c121.369873,70.3598633,243.0098877,140.3099365,364.5098877,210.4499512
		v-426.3500977l-364.5198975-210.4599609c0-71.0500488-0.0300293-142.1101074,0.0100098-213.1599121l-185.7900391,107.2600098
		L1312.75,849.4101562C1374.2800293,884.9499512,1435.8200684,920.4899902,1497.3699951,956
		c-0.0100098,90.5700684-0.0999756,181.1499023-0.0999756,271.7299805c0,48.8100586,0.0300293,97.6201172,0.1099854,146.4301758
		l-363.3299561,209.7598877L1130.5,1585.9699707c29.2900391,16.9200439,58.5800781,33.8400879,87.8699951,50.7600098
		l-443.2399902,255.9000244v5.4500732l447.960083-258.630127h0.0098877
		c59.1700439,34.1900635,118.3499756,68.3500977,177.5300293,102.5100098l-625.5200195,361.130127v5.4499512
		l630.5100098-363.6999512c30.5799561,17.6599121,61.1700439,35.3099365,91.75,52.9499512
		c0,46.1599121-0.0200195,92.3200684-0.0200195,138.4699707c0,23.0800781,0.0100098,46.1600342,0.0200195,69.2399902
		l-363.3299561,209.7600098l-3.5500488,2.0400391c61.5500488,35.5600586,123.0900879,71.1101074,184.6300049,106.6499023
		v628.5900879l-366.8599854,211.8000488c123.0100098,71.1398926,246.0400391,142.329834,369.2299805,213.1699219
		c182.2399902-105.25,364.5100098-210.4499512,546.7800293-315.6599121l179.8499756,103.8198242v0.0102539
		c0.039917,25.079834,0.0599365,50.1499023,0.0599365,75.2299805c0,45.9799805-0.0499268,91.9599609-0.0499268,137.9399414
		l184.6099854-106.5900879l184.6000977,106.6000977c0.0397949-70.1501465,0.0397949-140.2900391,0.0397949-210.4299316v-5.4501953
		c-0.0097656-71.0600586-0.0297852-142.119873-0.0297852-213.1899414l-184.6101074,106.5800781h-0.0100098l-177.4899902-102.4599609
		c118.3601074-68.3400879,236.7099609-136.670166,355.0500488-205.0400391
		c3.1298828-1.8100586,6.2700195-3.6201172,9.3999023-5.4301758l0.0200195,0.0100098v-215.9099121l0.0100098-205.0100098v-5.4499512
		L2411,2319.8100586z M1861.8699951,1581.8800049l-357.4200439-206.3599854l357.4200439-206.3500977V1581.8800049z
		 M1502.0900879,1371.4399414v-202.2700195l175.1799316,101.130127L1502.0900879,1371.4399414z M1502.0800781,958.7099609
		l357.4499512,206.3701172l-177.5400391,102.5l-179.9099121-103.880127V958.7099609z M1497.3699951,950.5400391
		l-175.1800537-101.1401367l175.1800537-101.1398926V950.5400391z M2224.0100098,2427.75l-357.4199219,206.3701172
		l-0.0100098-412.7202148L2224.0100098,2427.75z M1502.0800781,1800.5l175.1799316,101.1400146l-175.1699219,101.1300049
		l-0.0100098-202.2600098V1800.5z M1139.9399414,1585.9699707l357.4300537-206.3598633v412.7199707L1139.9399414,1585.9699707z
		 M1315.1199951,3370.7099609v-0.0100098l-357.4400024-206.3598633l357.4400024-206.3701172v412.7299805l2.3499756,1.3601074
		L1315.1199951,3370.7099609z M1139.9399414,2217.3000488l357.4300537-206.3500977l182.2600098-105.2199707l-0.0100098,205.0100098
		V2110.75l-362.1300049,209.0700684L1139.9399414,2217.3000488z M1679.6199951,2116.1801758l-0.0100098,412.7197266
		l-357.4100342-206.3598633L1679.6199951,2116.1801758z M1319.8300781,3370.6999512l0.0100098-623.1599121l539.6799316,311.5600586
		L1319.8300781,3370.6999512z M1864.2299805,3056.3798828l-544.3898926-314.2797852v-205.0100098l721.9299316,416.7897949
		L1864.2299805,3056.3798828z M2048.8400879,3370.6699219v-202.2700195l175.1699219,101.130127L2048.8400879,3370.6699219z
		 M2408.6298828,2957.9599609v412.7202148l-179.8898926-103.8701172l-0.0100098,0.0100098l-177.5400391-102.5100098
		L2408.6298828,2957.9599609z M2224.0200195,3059.1000977l-177.5400391,102.4899902h-0.0100098l-177.4799805-102.4699707
		c59.1799316-34.1601562,118.3599854-68.3300781,177.5400391-102.4902344L2224.0200195,3059.1000977z M2401.5600586,2746.1499023
		l-355.0800781,205.0102539l-726.6398926-419.5102539v-204.9799805
		c121.4799805,70.1601562,242.9799805,140.3000488,364.4899902,210.4001465
		c0-70.1501465-0.0100098-140.3100586-0.0200195-210.4599609l177.5899658,102.5300293
		c-0.0100098,71.0598145-0.0300293,142.0998535-0.0300293,213.1499023
		c61.5499268-35.5100098,123.0999756-71.0300293,184.6500244-106.5700684l359.75,207.7102051L2401.5600586,2746.1499023z
		 M2410.9899902,2740.6999512l-177.5400391-102.5l177.5400391-102.5V2740.6999512z M2410.9899902,2530.2600098l-182.25,105.2199707
		L2051.2399902,2533c59.5600586-34.3898926,119.119873-68.7900391,178.6699219-103.1999512
		c1.1801758-0.6799316,2.3601074-1.3601074,3.5400391-2.0400391l177.5500488-102.5L2410.9899902,2530.2600098z"/>
	<path class="st0" d="M1686.6999512,218.0600586L1318.6400146,5.5700684l-3.5300293-2.0400391
		c0,141.1999512-0.0699463,282.4001465,0.0200195,423.6101074l-181.0799561,104.5400391L1130.5,533.7299805
		c63.1099854,36.4501953,126.2099609,72.8999023,189.3300781,109.3100586c0-71.0500488-0.0300293-142.1098633,0.0100098-213.1601562
		L1686.6999512,218.0600586z M1315.1199951,634.8701172l-175.1800537-101.1501465l175.1800537-101.1298828V634.8701172z
		 M1677.2600098,218.0500488l-357.4199219,206.369873v-205l179.8898926-103.869873L1677.2600098,218.0500488z
		 M1319.8300781,11.6899414L1495,112.8300781l-175.1699219,101.1398926V11.6899414z"/>
	<path class="st0" d="M805.1500244,2638.0100098v421.3000488l364.8599854-210.6499023L805.1500244,2638.0100098z
		 M918.3599854,2987.9199219l-0.0100098-202.2797852l175.1800537,101.1398926L918.3599854,2987.9199219z M917.1699829,2779.5200195
		l-3.539978-2.0500488c0.0499878,71.1501465,0.0100098,142.2900391,0.0100098,213.4299316l-103.4899902,59.75v-403.9799805
		l349.8599854,201.9902344l-61.5400391,35.5200195L917.1699829,2779.5200195z"/>
	<path class="st0" d="M3602.5100098,987.0800781l-3.5300293-2.0400391c0,141.1899414-0.0800781,282.3999023,0.0100098,423.6098633
		l4.7199707-2.7299805v-204.9897461l179.8901367-103.8701172l177.5200195,102.5l-357.4101562,206.3598633v0.0102539
		l-4.7199707,2.7197266l-177.5300293,102.5001221c-0.7900391-0.4500732-1.5800781-0.9100342-2.369873-1.3699951
		c-121.3701172-70.3601074-243-140.3100586-364.5100098-210.4499512v426.3499756l364.5200195,210.4499512l1.1799316,0.6800537
		l3.5300293,2.0400391v-5.4500732c0.0100098-137.5699463,0.2299805-275.1500244,0.0100098-412.710083
		c59.9499512,34.6401367,119.9099121,69.2600098,179.8798828,103.8500977c0-71.0500488-0.0400391-142.1099854,0.0100098-213.1499023
		v-0.0102539l366.8601074-211.8198242L3602.5100098,987.0800781z M3603.6999512,1195.4799805V993.1999512l175.1599121,101.1401367
		L3603.6999512,1195.4799805z M3059.3200684,1307.5100098l357.4099121,206.3699951l-2.3598633,1.3499756l0.0097656,0.0100098
		l-355.0598145,204.9799805V1307.5100098z M3419.0900879,1517.9599609v202.2700195l-175.170166-101.1298828
		L3419.0900879,1517.9599609z M3419.1000977,1930.6800537l-357.4401855-206.3599854l177.5300293-102.5l179.9101562,103.869873
		V1930.6800537z M3598.9799805,1616.3701172l-175.1699219-101.1401367l175.1699219-101.1298828V1616.3701172z"/>
	<path class="st0" d="M2678.3500977,744.0800781l-3.5400391-2.0500488c0,72.869873-0.0400391,145.7399902,0,218.619873
		l189.3398438-109.3198242L2678.3500977,744.0800781z M2679.5200195,750.1899414l175.1799316,101.1401367l-175.1799316,101.1398926
		V750.1899414z"/>
	<path class="st0" d="M2644.7199707,1068.6899414l364.8601074,210.6401367V858.0400391L2644.7199707,1068.6899414z
		 M3004.5800781,1270.6699219l-349.8601074-201.9799805l349.8601074-201.9899902V1270.6699219z"/>
	<path class="st0" d="M1008.2999878,1585.0200195c-79.7099609-46.0500488-159.4299927-92.0899658-239.1599731-138.0800781
		c0,89.75,0.039978,179.5100098-0.0100098,269.2600098L305.710022,1983.7700195l464.9299927,268.4199219l4.4599609,2.5800781
		c0-48.7399902,0.0100098-97.4899902,0.0100098-146.2299805v-5.4499512
		c0.0100098-50.0300293,0.0200195-100.0500488,0.0200195-150.0800781v-60.3898926
		c0-57.6601562-0.0100098-115.3000488-0.0499878-172.960083l228.7399902-132.0599365L1008.2999878,1585.0200195z
		 M317.6400146,1983.7800293l451.4899902-260.6799316v258.9499512L541.8900146,2113.25L317.6400146,1983.7800293z
		 M769.1400146,2244.4499512l-221.2800293-127.75l221.2800293-127.7698975V2244.4499512z M775.0900269,1712.7700195v-255.5100098
		l221.2799683,127.7600098L775.0900269,1712.7700195z"/>
	<path class="st0" d="M4269.3300781,602.2001953l-1.1699219,0.6799316l179.4399414,103.5998535
		c1.5698242-0.9099121,3.1401367-1.8098145,4.7099609-2.7199707l-181.7900391-104.9599609v2.7199707L4269.3300781,602.2001953z"/>
	<path class="st0" d="M4817.2597656,2808.4799805c0.0102539-139.3898926,0.2402344-278.7900391,0-418.1699219v-2.7199707
		c-1.5698242-0.9099121-3.1499023-1.8200684-4.7197266-2.7299805c-121.3701172-70.3601074-243-140.3100586-364.5097656-210.4499512
		v426.3498535l364.5195312,210.4499512c0,43.7202148,0.0200195,87.4501953,0.0200195,131.1801758
		c0,27.329834-0.0097656,54.6599121-0.0297852,81.9897461l185.7900391-107.2597656l3.5498047-2.0500488
		C4940.3500977,2879.5200195,4878.8100586,2843.9799805,4817.2597656,2808.4799805z M4452.7700195,2182.5900879
		l357.4101562,206.369873l-357.4101562,206.3400879V2182.5900879z M4812.5400391,2393.0400391v202.2700195l-175.1801758-101.1401367
		L4812.5400391,2393.0400391z M4812.5498047,2805.7600098l-357.4399414-206.3601074l177.5302734-102.5l179.909668,103.8701172
		V2805.7600098z M4817.2597656,3016.2099609v-202.2700195l175.1801758,101.130127L4817.2597656,3016.2099609z"/>
	<path class="st0" d="M4994.7900391,3520h4.7597656c0-60.8898926,0-121.7800293-0.0395508-182.6699219l-4.7202148,2.7299805V3520z"
		/>
	<path class="st0" d="M4994.7998047,3121.4399414c0,71.0500488,0.0400391,142.1101074-0.0097656,213.1601562L4673.6899414,3520
		h9.4501953l311.6499023-179.9399414l4.7197266-2.7299805l181.0703125-104.5400391l3.5498047-2.0400391
		C5121.0302734,3194.2900391,5057.9199219,3157.8500977,4994.7998047,3121.4399414z M4999.5200195,3331.8798828v-202.2697754
		L5174.6899414,3230.75L4999.5200195,3331.8798828z"/>
	<path class="st0" d="M4812.5498047,1963.9700928c1.5703125,0.9100342,3.140625,1.8099365,4.7104492,2.7200928
		c0-69.25,0.0395508-138.4700928,0-207.7200928l-4.7202148,2.7299805L4812.5498047,1963.9700928z"/>
	<path class="st0" d="M4812.5498047,1963.9699707v0.0100098l-175.1699219-101.1398926l175.1601562-101.1401367l4.7197266-2.7299805
		l363.3300781-209.7600098l3.550293-2.039917c-61.5400391-35.5499268-123.090332-71.0999756-184.6303711-106.6400146
		c-0.0097656,0-0.0097656,0-0.0097656,0l0.0097656-1047.8498535v-5.4401855
		c-1.5698242,0.9099121-3.1396484,1.8200684-4.7099609,2.7299805c-5.5,3.1799316-11,6.3701172-16.5,9.5500488l0.0102539,0.0100098
		c-175.3198242,101.4299316-350.6601562,202.8300781-526,304.2299805c-1.5698242,0.9099121-3.1401367,1.8200684-4.7099609,2.7199707
		c-59.1201172,34.2001953-118.25,68.3999023-177.3701172,102.6000977l-0.8999023-0.5200195l-178.7202148-103.1801758
		l177.5400391-102.5h0.0102539l1.1699219-0.6799316l1.1899414-0.6799316v-2.7199707
		c-0.050293-24.9599609-0.0600586-49.9299316-0.0600586-74.9001465c0-46.0898438,0.0498047-92.1799316,0.0498047-138.2700195
		l-184.6098633,106.5800781l-184.6098633-106.5898438C3901.25,455.7600098,3901.25,525.8999023,3901.2600098,596.0500488V601.5
		c0.0100098,71.0600586,0.0300293,142.1298828,0.0300293,213.1899414l184.6000977-106.5898438h0.0097656l179.6201172,103.6999512
		c-122.2099609,70.6899414-244.4101562,141.380127-366.6000977,212.1101074l361.6298828,209.1999512
		c-58.6098633,33.8398438-117.2197266,67.6999512-175.8198242,101.5598145l-3.5400391,2.0400391l4.7199707,2.7299805
		l363.3303223,209.7700195l3.5297852,2.0400391c-0.0400391-70.1599121-0.0400391-140.3100586-0.0297852-210.4699707
		l177.5795898,102.5200195c0.0200195,69.2399902,0.0302734,138.4799805,0.0302734,207.7299805
		c0,69.2399902-0.0102539,138.4799805-0.0600586,207.7199707
		c-119.1201172-68.8199463-238.2802734-137.5999756-357.4199219-206.3699951
		c-2.3603516-1.3699951-4.7202148-2.7299805-7.0800781-4.0899658l-182.25-105.2199707
		c-0.0400391,72.869873,0,145.7399902,0,218.619873l182.25-105.2299805c-0.0800781,140.3100586,0,280.6000977,0,420.9001465
		l184.6201172-106.5900879l362.159668,209.1000977c0.0200195,68.329834,0.0102539,136.6499023-0.0297852,204.9899902
		c1.5698242,0.9099121,3.1499023,1.8200684,4.7197266,2.7299805v2.7199707l363.3203125-209.7600098l3.5498047-2.0500488
		c-122.2700195-70.6298828-244.5600586-141.2600098-366.8701172-211.8100586
		C4815.6899414,1965.7800293,4814.1201172,1964.8800049,4812.5498047,1963.9699707z M4265.7900391,393.8100586
		l0.0097656,202.2700195l-175.1796875-101.1401367L4265.7900391,393.8100586z M3906.0100098,806.5100098V393.8000488
		l178.7099609,103.1799316l1.1799316,0.6801758l177.5400391,102.5L3906.0100098,806.5100098z M4088.25,1753.5200195V1551.25
		l175.1699219,101.1400146L4088.25,1753.5200195z M4998.3300781,1443.9699707h-0.0102539l-0.8295898-1.4499512
		L4998.3300781,1443.9699707z M4997.1401367,1444.6601562l177.5600586,102.5098877l-357.4404297,206.3599854v-0.0100098
		l-155.2197266,89.6199951L4635.0097656,1858.75v-205.0200195L4997.1401367,1444.6601562z M4635.0097656,1648.2900391
		l0.0102539-412.7099609l357.4101562,206.3598633L4635.0097656,1648.2900391z M4982.9902344,402.2299805l4.6699219-2.6999512
		l7.1396484-4.130127l-0.0097656,621.5400391l-537.7597656-310.4599609L4982.9902344,402.2299805z M4452.3198242,709.2099609
		l542.4702148,313.1699219v205.0102539l-719.8300781-415.5800781L4452.3198242,709.2099609z M4448.0498047,1543.0800781
		l-357.4296875-206.3601074l357.4296875-206.369873V1543.0800781z M4630.3198242,1437.8601074l-177.5795898-102.5200195
		c0.0097656-71.0500488,0.0297852-142.1000977,0.0297852-213.1599121
		c-61.5600586,35.5197754-123.1201172,71.0397949-184.6699219,106.5698242
		c-0.9599609,0.5500488-1.9101562,1.1000977-2.8701172,1.6601562l-356.9499512-206.4902344L4270.25,814.5300293
		l724.5400391,418.3000488v204.9699707c-121.4799805-70.1599121-242.9799805-140.3000488-364.4902344-210.3898926
		C4630.2998047,1297.5600586,4630.3100586,1367.7099609,4630.3198242,1437.8601074z M4270.5,2069.1899414v-412.7199707
		l357.4301758,206.3701172L4270.5,2069.1899414z M4812.5698242,2174.4199219l-357.4399414-206.369873l175.1601562-101.1300049
		l2.3500977-1.3599854h0.0097656l179.8999023,103.8499756c0,68.3299561,0.0200195,136.6700439,0.0200195,205.0001221
		C4812.5698242,2174.4101562,4812.5698242,2174.4101562,4812.5698242,2174.4199219z M4814.7700195,2178.6801758l1.2900391-2.2402344
		h0.0097656L4814.7700195,2178.6801758z M4817.2597656,2384.8701172v-412.7301025l357.4301758,206.3699951
		L4817.2597656,2384.8701172z"/>
	<polygon class="st0" points="3382.1401367,3520 3391.5800781,3520 3324.6201172,3481.3400879 3319.9101562,3484.0600586 	"/>
	<path class="st0" d="M3686.7600098,3272.2700195l363.3300781-209.7600098l3.5500488-2.0400391
		c-61.5500488-35.5598145-123.0900879-71.1098633-184.6401367-106.6499023
		c-1.5700684-0.9099121-3.1401367-1.8200684-4.7099609-2.7199707
		c-121.4799805-70.1601562-242.9799805-140.3000488-364.4899902-210.4001465
		c0,70.1501465,0.0100098,140.3100586,0.0200195,210.4602051l-177.5900879-102.5302734v5.4501953l177.5900879,102.5200195
		c0.0100098,66.0297852,0.0300293,132.0600586,0.0300293,198.0998535c0,72.4499512-0.0200195,144.9001465-0.0600586,217.3500977
		c-121.4799805-70.1899414-243-140.3200684-364.5-210.4599609l-182.2600098-105.2299805
		c-0.0400391,72.8798828,0,145.75,0,218.619873l182.2600098-105.2199707
		C3135.2099609,3286.5200195,3135.25,3403.25,3135.2700195,3520H3140v-350.2299805l357.4299316,206.3598633L3248.2299805,3520
		h9.4299316l62.2399902-35.9399414h0.0100098l4.7102051-2.7199707l175.1699219-101.130127v0.0100098l2.3598633-1.3598633
		l179.9001465,103.8498535V3520h4.7099609v-34.5600586L3746.6201172,3520h9.4799805
		c-23.1101074-13.3398438-46.2299805-26.6899414-69.3400879-40.0200195
		c-1.5700684-0.9099121-3.1398926-1.8100586-4.7099609-2.7199707v0.0100098l-175.1799316-101.1401367L3682.0400391,3275
		L3686.7600098,3272.2700195z M2957.75,3266.8200684v-202.2800293l175.1699219,101.1401367L2957.75,3266.8200684z
		 M3504.5200195,2748.8701172l357.4099121,206.3598633l-357.4199219,206.3601074L3504.5200195,2748.8701172z M3504.5,3372.0400391
		l0.0100098-205.0100098l362.130127-209.0800781l177.5498047,102.5200195l-357.4299316,206.3500977l-20.4199219,11.7900391
		L3504.5,3372.0400391z"/>
	<path class="st0" d="M3682.0500488,3477.2600098c1.5700684,0.9101562,3.1401367,1.8100586,4.7102051,2.7202148
		c0-69.2402344,0.0397949-138.4702148,0-207.7102051L3682.0400391,3275L3682.0500488,3477.2600098z"/>
	<path class="st0" d="M3866.6401367,1900.2600098c-182.25,105.25-364.5200195,210.4499512-546.7802734,315.670166h-0.0097656
		l-179.8400879-103.8300781v-0.0100098C3139.8901367,2041.0400391,3140,1969.9799805,3140,1898.9200439l-184.6098633,106.5899658
		l-184.6000977-106.5999756C2770.75,1969.0600586,2770.75,2039.1999512,2770.75,2109.3400879v5.4499512
		c0.0100098,71.0600586,0.0300293,142.1201172,0.0300293,213.1899414l184.6101074-106.5800781l177.4897461,102.4702148
		c-118.3598633,68.329834-236.7099609,136.6699219-355.0397949,205.0297852
		c-1.5700684,0.9001465-3.1401367,1.8100586-4.6999512,2.7102051l-1.420166,0.8200684
		c-1.0998535,0.6398926-2.1899414,1.2697754-3.2900391,1.8999023l-0.0100098-0.0100098v0.0200195l-352.7099609,203.6398926
		v5.4501953c117.5600586-67.8901367,235.130127-135.7602539,352.7099609-203.630127l-0.0100098,279.6599121v548.5
		l-355.0300293-204.9799805v5.4501953l355.0300293,204.9799805l4.7199707,2.7197266l0.0102539,0.0102539v-5.4501953
		l-0.0102539-0.0097656v-412.7202148l182.2700195-105.2199707L3318.7299805,3062.5l3.5400391,2.0400391
		c-0.0400391-70.1499023-0.0500488-140.3100586-0.0400391-210.4599609v-5.4501953
		c0.0100098-71.0598145,0.0300293-142.0998535,0.0300293-213.1499023
		c-61.5600586,35.5100098-123.1101074,71.0300293-184.6501465,106.5700684h-0.0097656l-359.7402344-207.7099609l4.7102051-2.7199707
		l355.0700684-205.0100098l726.6499023,419.5197754v204.9702148c1.5698242,0.8999023,3.1398926,1.8100586,4.7099609,2.7199707
		v-628.5900879l366.8701172-211.7998047C4112.8598633,2042.2900391,3989.8300781,1971.1000977,3866.6401367,1900.2600098z
		 M3317.5400391,2643.6499023l0.0100098,412.7202148l-357.4299316-206.3500977L3317.5400391,2643.6499023z
		 M3132.8901367,2744.7700195c-59.5600586,34.3901367-119.1201172,68.7900391-178.670166,103.1999512l-3.5400391,2.0400391
		l-177.5500488,102.5v-139.6899414l0.0102539-65.3100586l182.25-105.2199707L3132.8901367,2744.7700195z M2950.6799316,2639.5700684
		l-177.5397949,102.5v-205L2950.6799316,2639.5700684z M3135.2900391,1907.1000977v202.2700195l-175.1801758-101.130127
		L3135.2900391,1907.1000977z M2775.5,2319.8100586v-412.7199707l179.8901367,103.869873v-0.0100098h0.0097656
		l177.5400391,102.5100098L2775.5,2319.8100586z M3137.6000977,2321.1401367l-177.4902344-102.4702148l177.5400391-102.4897461
		l177.4902344,102.4697266C3255.9499512,2252.8100586,3196.7800293,2286.9799805,3137.6000977,2321.1401367z
		 M3864.2900391,2740.6801758l-721.9301758-416.7900391l177.5302734-102.5l544.3999023,314.2900391V2740.6801758z
		 M3864.2900391,2530.2399902l-539.6801758-311.5700684l539.6801758-311.5898438V2530.2399902z M3869,2319.8100586
		l-2.9499512,1.6999512L3869,2319.8000488l0.0100098-412.7299805l357.4401855,206.3601074L3869,2319.8000488V2319.8100586z"/>
	<path class="st0" d="M4233.5302734,2740.6999512l-189.340332,109.3200684l185.800293,107.25l3.5400391,2.0500488
		C4233.5302734,2886.4499512,4233.5698242,2813.5800781,4233.5302734,2740.6999512z M4228.8198242,2951.1601562
		l-175.1796875-101.1401367l175.1796875-101.1401367V2951.1601562z"/>
	<path class="st0" d="M4270.4902344,2283.9799805v-2.2998047
		c-63.1201172,36.4099121-126.2304688,72.8498535-189.3303223,109.3098145l1.9899902,1.1501465L4266.9599609,2498.25
		l3.5400391,2.0500488C4270.4501953,2428.1899414,4270.4902344,2356.0800781,4270.4902344,2283.9799805z M4090.6000977,2390.9899902
		l175.1699219-101.1398926l0.0102539,202.2797852L4090.6000977,2390.9899902z"/>
	<path class="st0" d="M4413.4902344,3025.5800781L4409.0302734,3023c0,48.7399902-0.0102539,97.4899902-0.0102539,146.2299805
		L3800.9199219,3520h9.9599609l598.1401367-345.3198242C4409,3243.0200195,4408.9902344,3311.3500977,4409,3379.6899414
		L4165.9697266,3520h9.4404297L4409,3385.1401367v0.0097656c0,44.9602051,0.0097656,89.9001465,0.0400391,134.8500977H4415
		v-224.2800293l227.2299805-131.1999512h0.0102539l224.25,129.4699707L4475.0400391,3520h11.9501953l391.4296875-226
		L4413.4902344,3025.5800781z M4411.6201172,3378.1801758l-2.5400391,1.4599609l2.5400391-1.4702148V3378.1801758z
		 M4414.9902344,3288.8300781v-255.5100098l221.2797852,127.75L4414.9902344,3288.8300781z"/>
	<path class="st0" d="M5701.0083008,3419.0200195c58.2700195,33.670166,116.5600586,67.3300781,174.8500977,100.9799805h9.4902344
		l-181.9799805-105.0700684l-2.3603516,1.3601074V3419.0200195z"/>
	<path class="st0" d="M6065.5083008,3200.4101562L5880.8886719,3307l1.199707,0.6901855l-2.3701172,4.0898438l-1.0947266-0.6352539
		l1.0917969,0.6303711l2.3691406-4.0820312l-1.1982422-0.6916504L5880.8886719,3307l-362.1601562-209.0998535
		c0,0.0100098,0,0.0100098,0,0.0100098c-0.0102539,1.8200684-0.0102539,3.6298828,0,5.4499512l357.4301758,206.3598633
		l-175.1503906,101.130127v2.7199707l2.3603516,1.3598633l357.4296875-206.3498535V3520h0.0200195h4.7202148v-101.1398926
		L6240.71875,3520h9.449707l-184.6376953-106.5791016
		C6065.5219727,3342.4174805,6065.5083008,3271.4138184,6065.5083008,3200.4101562z"/>
	<path class="st0" d="M5518.7299805,3097.8999023c-0.0200195-68.3198242-0.0102539-136.6499023,0.0297852-204.9897461
		c121.3701172,70.3598633,243,140.3098145,364.5102539,210.4499512v-426.3500977L5518.75,2466.5600586
		c0-71.0500488-0.0400391-142.1201172,0.0097656-213.1699219l-185.7900391,107.2597656l-3.5498047,2.0500488
		c61.5302734,35.5500488,123.0703125,71.0900879,184.6201172,106.5900879
		c-0.0097656,91.9499512-0.1098633,183.8999023-0.1098633,275.8500977c0,47.4399414,0.0297852,94.8798828,0.1098633,142.3198242
		l-363.3203125,209.7600098l-3.5498047,2.0500488c122.2700195,70.6298828,244.5600586,141.2600098,366.8701172,211.8100586
		c0,46.1699219-0.0200195,92.3198242-0.0200195,138.4799805c0,23.0800781,0.0102539,46.1599121,0.0200195,69.2399902V3520h7.3598633
		l147.8598633-85.3701172l27.0302734-15.6098633V3520h4.6899414c0.0102539-33.6599121,0.0102539-67.3198242,0.0297852-100.9799805
		v-2.7299805l2.3603516-1.3598633l-2.3603516-1.3601074v-2.7199707l-2.3496094,1.3598633h-0.0102539L5518.75,3308.3601074
		c0-68.3300781-0.0200195-136.670166-0.0200195-205c-0.0102539-1.8200684-0.0102539-3.630127,0-5.4499512
		C5518.7299805,3097.9101562,5518.7299805,3097.9101562,5518.7299805,3097.8999023z M5878.5302734,3095.1801758
		l-357.4101562-206.3701172l357.4101562-206.3400879V3095.1801758z M5518.7597656,2884.7299805v-202.2700195
		l175.1704102,101.1401367L5518.7597656,2884.7299805z M5518.75,2472.0100098l357.4399414,206.3601074l-177.5400391,102.5
		L5518.75,2677V2472.0100098z M5514.0400391,3305.6298828l-357.4301758-206.369873l357.4301758-206.3601074V3305.6298828z
		 M5518.75,3313.7900391l175.1699219,101.1401367l-175.1601562,101.1398926L5518.75,3313.8000488V3313.7900391z
		 M5514.0400391,2463.8300781l-175.1801758-101.130127l175.1801758-101.1398926V2463.8300781z"/>
	<path class="st0" d="M6317.1801758,3055.2099609l-189.340332,109.3200684l185.800293,107.25l3.5400391,2.0500488
		C6317.1801758,3200.9599609,6317.2197266,3128.0900879,6317.1801758,3055.2099609z M6312.4697266,3265.6699219
		l-175.1796875-101.1398926l175.1796875-101.1398926V3265.6699219z"/>
	<path class="st0" d="M5952.3198242,2758.6298828v421.300293l364.8603516-210.6501465L5952.3198242,2758.6298828z
		 M6060.8100586,3116.7099609v-0.0100098c31.5600586-18.2099609,63.1201172-36.4099121,94.6699219-54.6298828
		C6123.9301758,3080.2900391,6092.3701172,3098.5100098,6060.8100586,3116.7099609z M6060.8100586,3111.5100098
		c0,0.0100098,0,0.0100098,0,0.0100098l-103.4902344,59.75v-403.9799805l349.8603516,201.9899902l-61.5400391,35.5200195
		L6060.8100586,3111.5100098z"/>
</g>
</svg>
