<?xml version="1.0" encoding="utf-8"?>
<!-- Generator: Adobe Illustrator 28.1.0, SVG Export Plug-In . SVG Version: 6.00 Build 0)  -->
<svg version="1.1" id="Layer_1" xmlns="http://www.w3.org/2000/svg" xmlns:xlink="http://www.w3.org/1999/xlink" x="0px" y="0px"
	 viewBox="0 0 175 175" style="enable-background:new 0 0 175 175;" xml:space="preserve">
<style type="text/css">
	.st0{opacity:0.5;}
	.st1{fill:#FFFFFF;}
</style>
<g class="st0">
	<circle cx="87.5" cy="87.5000229" r="86.1538467"/>
</g>
<g>
	<path class="st1" d="M87.5,175C39.2522163,175,0,135.7477875,0,87.5S39.2522163,0,87.5,0S175,39.2522163,175,87.5
		S135.7477875,175,87.5,175z M87.5,2.6923077C40.7369308,2.6923077,2.6923077,40.7369308,2.6923077,87.5
		S40.7369308,172.3076935,87.5,172.3076935S172.3076935,134.2630768,172.3076935,87.5S134.2630768,2.6923077,87.5,2.6923077z"/>
</g>
<g>
	<g>
		<polygon class="st1" points="59.5131454,131.5026703 59.5131454,71.8375549 62.205452,71.8375549 62.205452,127.0140839 
			136.2441711,87.5 62.205452,47.9859161 62.205452,60.2490616 59.5131454,60.2490616 59.5131454,43.4973335 141.9621735,87.5 		"/>
	</g>
</g>
</svg>
