<?xml version="1.0" encoding="utf-8"?>
<!-- Generator: Adobe Illustrator 28.1.0, SVG Export Plug-In . SVG Version: 6.00 Build 0)  -->
<svg version="1.1" id="Layer_1" xmlns="http://www.w3.org/2000/svg" xmlns:xlink="http://www.w3.org/1999/xlink" x="0px" y="0px"
	 viewBox="0 0 600 315" style="enable-background:new 0 0 600 315;" xml:space="preserve">
<style type="text/css">
	.st0{fill:#CC1C1C;}
	.st1{fill:#5A5A5A;}
</style>
<g>
	<path class="st0" d="M277.1696777,112.4522476c-1.192749-0.3781891-4.3928223,1.3091202-6.5165405,2.1527786
		c-7.3310852,2.8800735-14.6040039,5.8765259-21.9351196,8.8147812c-2.6764374,1.0473022-5.440155,1.8909531-7.9711304,3.2291718
		c-10.1529999,5.2365036-20.3059845,10.4439163-31.3026428,13.7603683
		c-3.7819214,1.1345673-7.7965698,2.3564301-10.589386,5.5856018c-2.1527863,2.4727936-4.9746704,3.8982849-7.9711151,5.0037689
		c-3.2582703,1.1927643-6.1965332,2.7637177-8.4365997,5.4692383c-0.3490906,0.4072876-0.9309235,0.6109314-1.9200439,1.2800446
		c-1.3381958-3.7237396-2.6473236-7.1274719-3.7237244-10.6184692c-0.145462-0.4945679,0.4945679-1.5127716,1.047287-1.9200592
		c11.0257568-7.6220093,22.226059-15.0113068,34.3863831-20.8005447c5.5274048-2.618248,11.1130219-5.1783142,15.7676849-9.251152
		c0.4654694-0.40728,0.9018402-1.3091278,0.9891205-1.7164078s-1.3673096-0.5236435-1.9200439-0.3781891
		c-2.2982483,0.5236511-4.6546631,0.960022-6.8074493,1.9200516c-5.5856171,2.4437027-11.1130371,5.0619507-16.5822601,7.7965698
		c-7.0983734,3.5782776-14.1385498,7.3020172-21.1787415,10.9966583c-1.8036957,0.960022-3.5491943,2.0364075-5.2655945,3.1128082
		c-0.960022,0.5818329-1.8618622,1.2218475-2.9673462,1.9491425c-0.3781891-2.7637024-0.5818329-5.2074127-1.0764008-7.5638275
		c-0.3781891-1.7164154,0.2036438-2.5309906,1.6873169-3.3164597c6.0510712-3.2000809,12.3639679-6.0801544,18.0368347-9.8620758
		c10.734848-7.0983658,22.0514984-13.0912552,33.5427094-18.7932281c2.1527863-1.0473022,5.6437988-2.8509827,6.3128967-3.6364594
		c0.6691132-0.7854767,0.1745453-2.2982407-0.8727417-2.4146042c-1.0473022-0.1163635-4.4801331,0.7563858-6.400177,1.4836807
		c-6.0801697,2.4146042-12.1894226,4.7128525-18.124115,7.4474716c-4.276474,1.9782257-8.0874786,4.8583145-12.3639679,6.8947296
		c-7.7383728,3.6655502-15.5349579,7.1274643-22.400589,12.3930588c-0.3199921,0.2036438-0.8145599,0.2036438-1.5127716,0.3781891
		c-0.9309387-5.9637985-1.6873169-11.782135-2.8218994-17.5422821c-1.1054688-5.6437836-1.8909607-11.4621201-5.4401398-16.4077072
		c-0.9309387-1.3382187-1.2218628-3.2582703-1.3963928-4.974678c-0.4654694-3.7819214-1.6000519-7.2729187-2.0364227-11.0548401
		c-0.3200073-2.76371,0.2618256-3.8110123,0.4654541-5.1492233c0.8436737-5.2074127,1.3382111-4.3346596,2.6764374-9.4547997
		c0.5818329-2.2691498,2.210968-4.4801178,0.5818329-7.1856422c-1.8036804,3.5782776-3.2582703,6.3419876-5.2946777,10.8802872
		c-0.3491058-2.3564301-0.4363861-13.6149101-0.4945679-15.709507c-0.1163635-2.8800774-0.7272949-6.1383476,0.3200073-8.669323
		c2.2982483-5.7019691,5.5856018-11.0257473,8.2620392-16.5822582c1.3673096-2.8218937,2.3564148-5.8765202,3.4037323-8.8438711
		c0.2036438-0.5818338,0.8436584-2.8218927-0.3200073-2.5309763c-1.1345825,0.3200083-13.934906,24.2915554-21.2660217,36.5391541
		c-0.1163635-0.0581856-2.9673462,6.7783623-3.2582703,7.5056534c-3.4618988,9.8620758-7.1565552,18.0950241-10.3857269,28.0443802
		c-1.5127716,4.7128525-1.9200592,9.803894-3.2000885,14.63311c-2.1527863,8.0293045-4.6837616,15.9422379-6.8656387,23.9715424
		c-1.9200516,7.1274643-3.6364594,14.3712921-5.4110565,21.5569305c-1.3673096,5.6437836-2.6473389,11.3166656-4.0146484,16.9604492
		c-0.4363708,1.7745819-4.0437393,5.1201324-6.2256165,5.9347076c-0.0581894-0.17453-0.2036438-0.4072876-0.1745529-0.5527496
		c1.9782333-9.1347809,4.0437469-18.2404785,6.0219803-27.3752594c1.3964005-6.5165405,3.723732-12.7130737,5.9928894-18.9677811
		c3.3455429-9.2802429,5.6728821-18.9677734,8.6984177-28.3643875c2.210968-6.894722,4.7710266-13.6439972,7.2438202-20.4514465
		c2.065506-5.7310638,4.2473907-11.433033,6.4292603-17.135006c0.3781891-0.9891167,3.4328156-8.2038536,3.9855652-9.425705
		c4.1310272-9.3384285,9.2802429-18.2695751,10.7639313-28.5971222c0.1745453-1.2800331,0.3781891-2.9382591,0.1163635-3.5782766
		c-0.2618256-0.6400166-0.2618256-0.930934-0.9309387-0.7854748c-0.6691132,0.1454582-2.7346191,1.5127668-3.316452,2.7055264
		c-1.9782257,3.8982849-3.5782776,8.0002117-5.381958,12.0439548c-3.4619141,7.7674789-7.1565552,15.4185925-10.3566437,23.2733479
		c-2.4436951,6.0510674-4.1310272,12.4221458-6.400177,18.531395c-2.2691345,6.1092529-4.8001175,12.1021423-7.2729111,18.1532135
		c-0.4363785,1.0763931-1.105484,2.1236877-1.3382187,3.2291794c-0.8145676,4.1601105-1.4254913,8.3784027-2.2109756,12.5385132
		c-0.7272873,3.7528305-1.8618622,5.9928894-3.3164444,9.7457123c-0.8436584,2.2109756-1.1927643,3.2873611-1.3091278,4.4510269
		c-0.3491058,2.8218994-0.5818329,4.4510269-1.8327713,6.9529114c-2.3564301,4.7419357-4.5383072,9.571167-6.6329041,14.4294739
		c-0.6400146,1.5127716-1.3382187,3.2582703-1.2509384,4.8292236c0.4072876,6.4583588-1.2218475,12.6257782-2.4436951,18.7932129
		c-0.5236511,2.6473389-6.4292679,13.5858154-8.0293045,15.1858673c-3.1128159,3.0837097-6.1383514,6.1965179-9.2220688,9.2802429
		c-3.5200958,3.5200958-7.2729187,6.8074646-10.3857269,10.589386c-2.4727936,2.9964447-5.2946854,5.4110413-8.4947739,7.592926
		c-2.1818771,1.4836578-3.9273758,3.6655426-5.6437836,5.7019501c-2.3855171,2.8509827-4.0146523,6.254715-7.3020134,8.465683
		c-2.3564262,1.5418549-4.3928452,3.7237244-6.1965294,5.9347076c-5.1201324,6.3128967-10.1239052,12.7130737-15.0403976,19.1714172
		c-3.520092,4.6255951-7.0692768,9.2511597-10.1529961,14.1385498c-4.3928261,6.8947144-8.4365692,13.9058228-12.2184877,21.0332642
		c-0.930933,1.7455139-0.930933,4.2764893-0.4945583,6.3128967c0.3491001,1.5127869,3.7528267,2.5018921,5.6437864,2.2982483
		c2.2982426-0.2618103,4.0146503-0.960022,5.4692345-2.7927856c2.7055264-3.3746338,5.4692364-6.6911011,8.4074974-9.8620911
		c2.76371-2.9673462,5.9056129-5.556488,8.6402283-8.552948c3.0837173-3.3746338,5.4983292-7.4474792,8.9020538-10.443924
		c6.9238243-6.1092529,14.1094666-11.9566803,21.4987526-17.5131989c6.0219803-4.5382996,11.9857788-6.4583588,16.931366-12.3930511
		c0.0872726-0.1163788,1.4545822-1.3382111,1.9782333-1.4255066c-0.3781891,1.5127716-0.8436584,2.8218994-1.0473022,4.1601105
		c-1.1345749,7.1274719-1.7745972,14.3421936-3.2873611,21.4114685c-1.9200592,9.0475159-2.7055283,11.956665-4.1019287,26.8516235
		c-0.7854767,8.4365845-0.9600296,17.164093-0.8436584,25.6588745c0.0290909,1.8327637-0.7563858,5.4110413,0.1163635,5.7019653
		c0.8727493,0.3199768,6.080162-1.1345825,6.6619949-1.3673401c0.5818329-0.17453,1.7745972-1.2800293,1.7455063-2.6182251
		c-0.0290985-5.5274353-0.1163712-11.0257568,0-16.5240784c0.2036438-9.6293335,0.6400146-18.9386902,2.210968-28.4225769
		c0.7272873-4.4510193,1.6873093-7.2729187,2.1818771-10.6475525c1.1054764-7.7383728,2.4436951-15.4185944,3.723732-23.1278839
		c0.3200073-1.9491425,0.0581818-4.4801331,1.2218475-5.6728821c1.9491501-2.1236877,5.0910492-3.8401031,7.7965698-5.6437836
		c0.0872726,0.7272797-3.0546265,17.6004639-4.0728378,25.6588593c-0.8145599,6.254715-0.960022,12.6257935-1.3963928,18.9677734
		c-0.4654694,7.272934-0.8436584,14.5458527-1.3673172,21.8187714c-0.4654617,6.4583435-1.3382187,12.9167175-1.6000366,19.375061
		c-0.0872726,2.4727783,0.7272873,7.6510925,1.5709457,7.8838196c0.8727493,0.2618408,2.8800735-1.4545898,3.8110123-2.3273315
		c0.7272949-0.6400146,1.3673096-1.7164001,1.4545822-2.6473389c0.7854843-7.2729187,1.4545898-14.5167542,2.0655136-21.7896729
		c0.6691055-8.2329407,1.2218552-16.4658813,1.8327713-24.6988373c0.5236511-6.6910858,0.8436584-13.4694519,1.7164078-20.1314545
		c0.9018478-6.9238129,2.9964371-13.7894592,3.316452-20.6841736c0.2618179-5.294693,2.8218918-8.4075012,6.34198-11.4330292
		c0.6691055-0.5818329,2.9091721-2.3273315,3.1128159-2.2400665c-0.3491058,2.1818848-0.9891205,5.440155-1.2509384,7.592926
		c-0.4654694,4.189209-0.7563858,8.4075012-1.2218552,12.5966949c-1.3673096,11.927597-3.0546265,23.8260956-4.1019287,35.7827606
		c-0.7272949,8.1166077-0.5236435,16.3495483-0.7563858,24.5534058c-0.1745529,8.0292969-0.7854767,15.2440491-1.0182114,23.2442322
		c-0.0581818,1.8618774-1.0763931,6.5747375-0.4363708,6.8656311c0.6691055,0.2909241,3.1418991-1.4254761,4.4510193-2.0073242
		c1.3673172-0.6109009,1.9491501-1.4836731,1.8327713-3.1128235c-0.1163635-2.1236877,0.0872726-4.2473755,0.320015-6.4001465
		c0.4945602-5.3237915,1.1927567-10.6475525,1.5127716-16.0004272c0.3490982-5.4692383,0.2618179-10.9093933,0.5818329-16.3786316
		c0.4363708-6.8656311,1.1054764-13.6730804,1.7164078-20.5096283c0.6691055-7.9711151,1.3091202-15.8840485,3.6073685-23.7097168
		c1.7454987-5.9056091,2.210968-12.1894226,3.0837097-18.2986755c0.4363861-3.1418915,0.4072876-6.34198,0.7563934-9.4547882
		c0.087265-0.7854767,0.4945679-1.8618774,1.0764008-2.2400665c5.1783142-3.1128082,10.3566284-6.254715,15.7386017-8.9602356
		c3.6946411-1.8618774,3.8401031-1.5418549,4.7128448,2.3273315c0.0290985,0.145462,0.0872803,0.2909241,0.1163635,0.4363861
		c2.0655212,7.5638275,4.1601105,15.1567535,6.1965332,22.7205963c2.1527863,7.9420166,4.6837463,15.825882,6.1674347,23.8842621
		c2.0073395,10.7929993,5.8474274,20.9459991,9.6584473,31.1280823c3.2582703,8.7565918,6.8074493,17.3968201,10.1529999,26.1243286
		c0.6400146,1.6873169,1.047287,4.1601257,1.6873169,4.2764893c0.6109161,0.1163635,2.6764374-1.5709534,2.3855133-3.6073914
		c-0.7563782-5.0328369-1.192749-10.1239014-2.2691498-15.0403748c-1.1054688-4.9455872-2.7927856-9.7748108-4.3928223-14.5749512
		c-3.7528381-11.2584686-7.9420319-22.3714905-11.2875824-33.7172546
		c-3.2000732-10.8511963-5.4110413-22.0223999-8.4075012-32.9608612
		c-1.5127716-5.4983368-2.6473389-10.9966583-2.7637024-16.6986389c0-0.4654541,0.087265-1.2509308,0.4072876-1.3963928
		c2.3273315-1.2800446,4.3637543-3.2873535,7.302002-3.2000885c0.8145599,3.4619141,1.4836731,6.8365479,2.3855286,10.1239014
		c2.0364075,7.4183807,4.131012,14.8076782,6.3128967,22.1678619c1.4836731,5.0328522,3.316452,9.9493561,4.8292084,14.9822235
		c1.3963928,4.6837463,2.3855286,9.51297,3.9273834,14.1385498c1.6873016,4.9164886,3.9273682,9.6293335,5.7019501,14.5167542
		c2.4727936,6.8365326,4.5092163,13.8476257,7.1565552,20.5678101c2.2109528,5.5565186,6.6329041,15.5058594,7.8547516,16.4077148
		c1.192749,0.9018555,4.1601105-4.9746704,2.6182556-8.4365845c-0.5236511-1.1345825-0.872757-2.3273315-1.2800446-3.5200806
		c-1.8036957-5.207428-3.4619141-10.4439087-5.440155-15.6222229c-2.3855133-6.3419952-5.4401398-12.4221649-7.4765625-18.8223419
		c-4.1019135-12.7421417-7.7674713-25.6588593-11.4621277-38.5755615
		c-2.3564148-8.2038574-4.3928375-16.4658813-6.6910858-24.6988373c-0.5818329-2.065506-1.4836731-4.1019135-2.2691498-6.0801697
		c2.3564301-1.3963928,2.9382629-1.2218475,3.6655426,1.0473022c2.4437103,8.0292816,4.7710419,16.1167908,7.360199,24.0879059
		c2.4727936,7.7092896,5.294693,15.3022156,7.8838348,22.9533386c1.9782257,5.9347076,3.5491943,12.0148621,5.8765259,17.8041077
		c3.7819214,9.3675232,8.0002136,18.5604858,12.1021271,27.782547c2.9091644,6.6038208,5.3237762,11.840332,8.3493195,18.3859558
		c0.2618256,0.5236511,1.250946,2.6182556,1.8327789,2.6764526c0.5818329,0.0581665,1.047287-1.3091431,1.5709534-2.2400818
		c1.4836731-2.7346191,1.4836731-3.7819214,0.2909088-6.6910706c-3.4619141-8.4365845-6.4001617-17.1059265-9.9202576-25.5134125
		c-1.9200287-4.5964813-17.3677368-38.517395-19.0841217-52.1904907c-0.4654694-3.6946411-0.8436737-7.8256683-2.7346344-10.822113
		c-3.8691864-6.3128967-5.381958-13.1494293-6.8656311-20.1314392c-0.2909088-1.3673096,0.0872803-2.1527863,1.3964081-2.7928009
		c4.131012-2.1527863,8.2038574-4.3928223,12.2475891-6.6328888c13.1203308-7.1565552,26.1243134-14.5749359,39.41922-21.4114838
		c11.5202942-5.9056091,23.3897095-11.083931,35.055481-16.6986237c2.1236877-1.0182037,3.9273682-2.5891571,5.8474121-3.9855652
		C277.3442383,114.3141098,278.3624573,112.8304367,277.1696777,112.4522476z M87.3464737,211.0148621
		c-8.8438644,6.6620026-17.7459259,13.2367096-26.2406921,20.335083
		c-4.6546707,3.8401031-8.5529556,8.5238647-12.8294296,12.8585358c-0.552742,0.5818329-1.3673096,1.4545746-1.8036842,1.4545746
		s-0.7854729-1.3673096-0.0872765-2.1236877c2.8218918-2.9964447,5.4983253-6.1965179,8.5529518-8.9020386
		c11.0257454-9.7457275,22.1678581-19.2877808,33.2226982-28.9171448c0.5236435-0.4654541,1.1927567-0.7854767,2.2400589-1.4545898
		C89.790184,207.0583954,89.5574417,209.3275452,87.3464737,211.0148621z M90.8956604,194.2871399
		c-15.7676849,12.829422-30.4589844,26.8516235-44.7430038,41.3101807c-1.3964005,1.4255066-2.7055244,2.9091797-4.1019249,4.334671
		c-0.3200073,0.3200073-0.7854729,0.4945679-1.1345749,0.7563782c-0.2909164,0-0.6109276-0.2618256-0.6109276-0.5236511
		c0-0.2618103,3.2582703-4.7128448,5.2365036-6.7201691c10.7639236-10.9675598,21.5569382-21.8769379,32.4663162-32.6699524
		c3.4037247-3.3746338,7.2729263-6.254715,10.7930069-9.4838867c1.8327789-1.6873016,3.4328156-3.5782623,5.4110565-5.6146851
		C94.9684982,189.6324768,93.6593704,192.0470734,90.8956604,194.2871399z M100.5831909,202.1128082
		c-1.4836807-4.3928375,0.4945602-7.7383728,5.4983215-10.2984619
		C106.8378983,197.1963043,105.4124069,199.901825,100.5831909,202.1128082z M103.5505447,185.8214722
		c-0.0290909-5.207428,0.0581894-10.0657196,5.2655945-12.7130737
		C110.678009,178.4321747,109.3688812,181.7486267,103.5505447,185.8214722z M155.5955658,78.0949707
		c1.9491425,7.7674789,7.0401764,35.7245865,8.9893188,43.4920578c0.4654694,1.8909607,0.3200073,3.3455429-2.4437103,3.7528305
		c-1.6873169-9.6002579-3.316452-19.1714172-5.0037689-28.7716751c-0.2909088-1.5127716-2.4727936-16.6404343-2.1818695-16.7277145
		C154.9555511,78.4440689,155.4210052,77.4258575,155.5955658,78.0949707z M151.9881897,51.0978889
		c0,0,3.2873535,15.5640526,2.9382629,16.407711c-0.4072876,0.9309311-1.3673096,4.3346558-1.9200439,4.0728378
		c-0.5818481-0.2618256-1.3964081-19.4914284-1.3964081-19.4914284L151.9881897,51.0978889z M141.1660767,75.0112457
		c1.8327789-4.8583069,3.8692017-9.6875305,5.8474426-14.5167427c0.1163635-0.3200111,0.6109161-2.8218918,0.8145599-2.7928047
		c0.3781891,2.7346153,1.0764008,7.4183807,1.3963928,10.1529922c0.3491058,3.2000885,0.8436584,6.4292679,0.7854767,9.6584396
		c-0.0290833,1.803688-1.0182037,3.6073685-1.6873169,5.3237762c-1.4836731,3.9855652-3.0837097,7.912941-4.8001251,12.3930588
		c-0.5818329-0.6109238-0.8145599-1.1927567-0.9018402-1.658226c-0.8436584-4.4801178-1.7745972-8.9311523-2.3273315-13.4694519
		C140.0606079,78.4731598,140.5842438,76.61129,141.1660767,75.0112457z M138.8096619,150.5332489
		c1.5127716-1.0473022,2.8800812-2.2691498,4.3346558-3.4037323c1.4836884-1.192749,2.2982483-0.9891052,2.6473541,0.7854919
		c0.4072723,2.1818695,0.6109161,4.363739,0.8145599,6.5747223c0.0290985,0.4945526-0.1745453,1.3091125-0.5527344,1.5418549
		c-3.6946564,2.5018768-7.4474792,4.9455872-11.2003021,7.3601837c-0.145462,0.0872803-0.4072876,0.0872803-1.250946,0.2036438
		C134.6786499,158.7662048,134.2131805,153.7333374,138.8096619,150.5332489z M137.3841705,144.0167236
		c1.2218475-7.0111084,3.4328156-19.1132431,3.4618988-20.102356c0-0.960022,0.0872803-1.6582336,0.3781891-1.6873169
		c0.6109314,2.0655136,1.7454987,5.7601471,2.3273315,7.8547516c0.1745605,0.7272949,0.2909241,1.4545898,0.3781891,2.1818848
		C144.715271,138.4893036,143.7261505,140.3511658,137.3841705,144.0167236z M115.3035812,192.6289062
		c-0.8145599-8.0292969,1.6582336-11.7530365,7.6220245-14.2549133
		C123.7983551,184.1923218,121.2673798,188.9924469,115.3035812,192.6289062z M126.6784286,166.5918579
		c-0.1163635,0.4654541-0.3781891,0.9891205-0.7563858,1.2800446c-2.4727936,1.8036804-5.0037689,3.5491791-8.0583954,5.7019501
		c0.1745529-2.0073242,0.0872726-3.5782623,0.552742-4.9455719c0.8145599-2.5018768,1.9200516-4.9455872,3.0546265-7.3311157
		c0.2909164-0.5818329,0.960022-1.2509308,1.5709457-1.3963928c1.7454987-0.5236511,3.5491867-0.8145599,5.4692383-1.2218628
		C127.8420944,161.2971649,127.28936,163.944519,126.6784286,166.5918579z M130.3730774,147.1586151
		c-0.2909241,0.9891205-1.2218475,1.9491425-2.065506,2.5309753c-1.6873169,1.1345825-3.5491943,2.0073242-5.5565186,3.1128235
		c1.3382187-7.1856537,2.4146042-14.1094666,3.8982849-20.9460144c1.5127716-6.8656387,3.5491943-13.6148987,5.2074127-20.4514465
		c1.6873169-6.8074493,4.5382996-19.7532501,4.7710266-20.480545c0.2327271-0.7272873,0.2036438-1.5127716,0.4363708-1.4545822
		c0.7563934,5.4401474,2.6473541,12.3057785,0.8145752,17.9204788c-0.7854767,2.4146042-0.7272949,5.0910416-1.1345825,7.6220245
		c-0.9309387,5.5565109-2.4145966,11.1130219-2.7637024,16.6986237
		C133.6604309,137.1510773,131.8276672,142.0966644,130.3730774,147.1586151z M146.0825806,174.8829803
		c-4.2473755,2.7637177-8.407486,5.7019653-12.6257782,8.5529633c-0.5818329,0.4072876-1.1927643,0.7854767-1.6873169,1.0764008
		c0-3.5782776-0.0581818-6.9238129,0.0290985-10.2402802c0.0290833-0.7272949,0.4363708-1.6582336,0.9891052-2.0364075
		c3.8691864-2.9382629,7.8256683-5.7601624,11.7530365-8.6402435c1.4545898-1.047287,2.4146118-1.2509308,3.6073761,0.7854767
		C150.6499786,168.5700836,150.0390472,172.3229218,146.0825806,174.8829803z M149.5735931,134.8237457
		c-0.2909241-2.065506-0.4654694-3.8401031-0.7563934-5.6146851c-1.1927643-7.2729263-2.210968-14.545845-3.6655579-21.7605896
		c-0.7272797-3.5200958,0.3781891-6.5747223,1.3964081-9.6875229c0.8145599-2.4146042,2.0364075-4.7128601,3.17099-7.0401917
		c0.1745453-0.4363785,0.5818329-3.4328156,1.3963928-3.8982849c0.6400146,3.083725,1.250946,8.2620392,1.6582336,10.9675674
		c0.4363708,2.76371,1.0182037,5.5856094,0.8436584,8.3202209c-0.4072876,6.3419876,1.3382111,12.2476044,2.9091644,18.2113953
		c1.2218475,4.5673981,1.3382111,4.5673981-2.3564301,7.2438354
		C152.8027496,132.6127777,151.3772583,133.5727997,149.5735931,134.8237457z M159.7556763,135.5510406
		c0.6109161,2.9382629,1.2800446,5.8765259,1.8618774,8.7565918c0.0581818,0.2618256-0.058197,0.6109314-0.2618408,0.8145599
		c-2.6473389,2.6764526-5.52742,4.9455872-9.2220612,6.545639
		C150.5336151,142.1257629,152.308197,138.2856598,159.7556763,135.5510406z M164.7012634,165.3699951
		c-2.9964447,1.3091278-6.1092529,2.4146118-9.3384399,3.6655579c-0.4363708-2.7346344-0.960022-5.7892609-1.3673096-8.9020538
		c-0.0581818-0.3781891,0.4072876-0.9309387,0.7854767-1.192749c2.6182556-1.7454987,5.2655945-3.4037323,8.2038574-5.294693
		c0.3781891,0.7854767,0.960022,1.6873169,1.2509308,2.6764374c0.6109161,2.3273315,1.192749,4.6837616,1.5418549,7.0692749
		C165.8358307,164.0317993,165.2539978,165.1081848,164.7012634,165.3699951z M167.2904053,141.8057556
		c-0.2036438,0-1.8618774-1.0764008-1.9782257-1.7745972c-0.3781891-1.9200592-0.5527496-7.0110931-0.3781891-7.4474792
		c0.145462-0.4072723,0.6690979-1.0182037,0.9891205-1.0182037c0.3200073,0,0.7272949,0.5527344,0.8145599,0.9309387
		c0.5818481,2.4145966,1.2218628,4.8292236,1.5709686,7.3311005
		C168.4249878,140.3802643,167.5231628,141.8057556,167.2904053,141.8057556z M172.1778259,160.56987
		c-0.8436584,0-1.3382111-1.047287-1.5127716-1.7454987c-0.8436584-3.2873535-1.5127716-6.5747223-2.1818695-9.8911743
		c-0.0872803-0.4945526,1.3382111-1.4545746,1.4254913-1.2509308c1.5127716,3.4618988,2.9673615,6.9529114,4.6837616,11.0257568
		C174.2142487,159.7262268,172.9923859,160.56987,172.1778259,160.56987z"/>
	<g>
		<path class="st1" d="M259.6188354,186.7585449c-0.2943115-8.139389,3.3392334-13.6673279,6.6838379-16.8674316
			c7.7112732-7.2671204,22.6843262-8.8671722,32.8625793-8.8671722c9.45047,0,25.1566467,1.7445374,32.5736084,9.0170135
			c5.5226135,5.3780975,6.2503662,12.2117615,6.2503662,17.1564026v28.5012512c0,2.7612915,0,5.8169098,1.3110962,7.4116058
			c1.1612244,1.4555664,2.9057617,1.6000519,3.7780457,1.6000519c1.0167542,0,1.8890381-0.1444855,2.6167908-0.4334564v13.0840302
			c-3.4890747,0.7277832-5.9613953,0.8722687-9.7394409,0.8722687c-4.0723572,0-8.0002441-0.1444855-11.3448181-2.0335083
			c-3.9225464-2.1833496-5.2336121-5.2336121-5.6670837-7.5614471c-5.0891418,5.522583-10.6170654,7.8504181-12.3616028,8.4337158
			c-1.1612549,0.4334564-6.9781494,2.4723206-18.322998,2.4723206c-5.9613953,0-15.8453064-0.4388123-22.5344849-5.3834534
			c-3.927887-2.905777-8.1447449-8.139389-8.1447449-17.0119171c0-5.6670685,1.7445374-10.1782532,5.3780823-13.9562988
			c4.0723877-4.2168579,9.0170288-5.8169098,14.5449524-6.9781494c5.9613953-1.1665955,11.0505066-1.4555664,15.9951477-1.8943787
			l5.8115845-0.5779419c9.161499-0.8722687,13.5228271-1.7445374,15.7061768-3.7834015
			c1.6000366-1.4555664,1.8890381-3.3445892,1.8890381-4.7947998c0-4.0723724-1.8890381-6.4002075-5.5226135-8.1447449
			c-3.7833862-1.7445374-8.8724976-2.3278351-12.506073-2.3278351c-8.4337158,0-12.6505737,2.3278351-12.9395447,2.4723206
			c-2.9111328,1.6000519-5.5279236,4.5058289-5.3834534,9.5949554H259.6188354z M316.9049683,202.0259247
			c-1.7445374,1.4555664-3.2001038,1.8943787-5.0891418,2.3278351c-3.4890747,0.8722687-6.6891785,1.1665955-10.0337524,1.4555664
			l-6.6891785,0.5832977c-4.7947998,0.4334564-8.8671875,1.0167542-11.7729797,2.905777
			c-2.9111023,1.8890228-3.9278564,4.5058289-3.9278564,7.5614471c0,2.7612915,1.1612244,5.0891266,3.4890747,6.8336639
			c3.2001038,2.4723206,7.5614319,2.7612915,10.6170349,2.7612915c4.6503296,0,10.4672546-0.5779419,15.556366-4.5058289
			c5.9613953-4.6503143,7.8504333-11.3394928,7.8504333-19.0454254V202.0259247z"/>
		<path class="st1" d="M410.7942505,177.7468872h-1.1665955c-8.7226868,0-17.8841858,0.8722687-24.134552,6.9781494
			c-5.6724243,5.6724243-7.2724609,13.8118134-7.2724609,24.1399078v28.9347076h-21.0842896V163.929718h20.3565063v12.800415
			h0.2943115c3.0502625-5.5279388,7.2671204-9.0170135,11.4839783-11.0505219
			c5.2336121-2.4723206,11.7783203-3.3445892,19.0507812-3.3445892h2.4723206V177.7468872z"/>
		<path class="st1" d="M417.7670593,186.7585449c-0.2889709-8.139389,3.344574-13.6673279,6.6891785-16.8674316
			c7.7059326-7.2671204,22.6843262-8.8671722,32.8625793-8.8671722c9.45047,0,25.1566772,1.7445374,32.5682678,9.0170135
			c5.5279541,5.3780975,6.2557373,12.2117615,6.2557373,17.1564026v28.5012512c0,2.7612915,0,5.8169098,1.3057251,7.4116058
			c1.1665955,1.4555664,2.9111328,1.6000519,3.7833862,1.6000519c1.0167542,0,1.8890381-0.1444855,2.6168213-0.4334564v13.0840302
			c-3.4890747,0.7277832-5.9613953,0.8722687-9.744812,0.8722687c-4.0723572,0-7.9949036-0.1444855-11.3394775-2.0335083
			c-3.927887-2.1833496-5.2336121-5.2336121-5.6724243-7.5614471c-5.0891418,5.522583-10.6117249,7.8504181-12.3562622,8.4337158
			c-1.1665955,0.4334564-6.98349,2.4723206-18.322998,2.4723206c-5.9613953,0-15.8506775-0.4388123-22.539856-5.3834534
			c-3.9225159-2.905777-8.1393738-8.139389-8.1393738-17.0119171c0-5.6670685,1.7445374-10.1782532,5.3780823-13.9562988
			c4.0723877-4.2168579,9.0170288-5.8169098,14.5396118-6.9781494c5.9613953-1.1665955,11.0505066-1.4555664,15.9951477-1.8943787
			l5.816925-0.5779419c9.161499-0.8722687,13.5228271-1.7445374,15.7061768-3.7834015
			c1.594696-1.4555664,1.8890381-3.3445892,1.8890381-4.7947998c0-4.0723724-1.8890381-6.4002075-5.5279541-8.1447449
			c-3.7780457-1.7445374-8.867157-2.3278351-12.506073-2.3278351c-8.4337158,0-12.6505737,2.3278351-12.9395447,2.4723206
			c-2.9057922,1.6000519-5.522583,4.5058289-5.3781128,9.5949554H417.7670593z M475.0585327,202.0259247
			c-1.7445374,1.4555664-3.2001038,1.8943787-5.0891418,2.3278351c-3.4890747,0.8722687-6.6891785,1.1665955-10.0337524,1.4555664
			l-6.6891785,0.5832977c-4.8001709,0.4334564-8.8725281,1.0167542-11.7783203,2.905777
			c-2.9057617,1.8890228-3.927887,4.5058289-3.927887,7.5614471c0,2.7612915,1.1665955,5.0891266,3.4944458,6.8336639
			c3.1947327,2.4723206,7.5560913,2.7612915,10.6116943,2.7612915c4.6556702,0,10.4672241-0.5779419,15.556366-4.5058289
			c5.9667358-4.6503143,7.8557739-11.3394928,7.8557739-19.0454254V202.0259247z"/>
		<path class="st1" d="M532.1252441,215.2597961v0.2889709c0,2.1833496,0.583313,6.255722,5.3834229,8.8725281
			c1.4502563,0.7277832,4.7947998,2.3278351,13.0840454,2.3278351c7.1226196,0,10.3227539-0.8722687,12.0672607-1.7445374
			c4.5112305-2.1833496,4.9446411-5.6724243,4.9446411-7.4169617c0-3.7834015-2.3278198-5.9613953-5.3780518-7.2724762
			c-0.583313-0.2889709-3.638916-1.6000519-12.9449463-3.0502625l-9.0116577-1.4555664
			c-10.7615356-1.7445374-15.7061768-3.0556183-18.90625-4.9446411c-4.3613892-2.4723206-9.0116577-7.4169617-9.0116577-16.1396484
			c0-5.8169098,2.0335083-13.3783569,11.1950073-18.611969c4.9446411-2.7612915,12.5060425-5.0891266,25.8843994-5.0891266
			c9.0116577,0,18.9009399,1.0167542,25.3011475,4.0723724c10.0284424,4.7947998,11.7729492,12.3562469,11.9227905,18.611969
			h-20.9397583v-0.1444855c0-3.0556183-1.1612549-5.3834534-4.6557007-7.2724762
			c-3.6335449-1.8890228-9.1561279-2.1833496-12.211731-2.1833496c-4.8001709,0-8.2892456,0.7277832-10.9060669,2.3278351
			c-3.055603,1.8890228-4.3613281,4.6556702-4.3613281,7.2724762c0,2.905777,1.7445068,4.6503143,4.3613281,5.8169098
			c3.3446045,1.6000519,8.1447754,2.1779938,16.5784912,3.6335602l10.0337524,1.7445374
			c7.2670898,1.3110809,13.9562988,2.905777,18.6119385,6.544693C587.9611206,205.2260284,590,210.4596405,590,216.5708771
			c0,7.2671204-2.7666626,12.2117615-5.5279541,15.2673798c-7.5614014,8.2892303-21.2287598,8.8671722-33.2960205,8.8671722
			c-11.0505371,0-25.8844604-0.5779419-33.8793335-8.7226868c-5.5279541-5.5279388-6.1112671-12.2171173-6.1112671-16.2841339
			v-0.4388123H532.1252441z"/>
	</g>
</g>
</svg>
