<?xml version="1.0" encoding="utf-8"?>
<!-- Generator: Adobe Illustrator 28.2.0, SVG Export Plug-In . SVG Version: 6.00 Build 0)  -->
<svg version="1.1" id="Layer_1" xmlns="http://www.w3.org/2000/svg" xmlns:xlink="http://www.w3.org/1999/xlink" x="0px" y="0px"
	 viewBox="0 0 135.8605347 135.8605347" style="enable-background:new 0 0 135.8605347 135.8605347;" xml:space="preserve">
<style type="text/css">
	.st0{fill:#CE2127;}
</style>
<path class="st0" d="M67.9302979,0C30.4134521,0,0,30.4133911,0,67.9302368s30.4134521,67.9302979,67.9302979,67.9302979
	s67.9302368-30.4134521,67.9302368-67.9302979S105.4471436,0,67.9302979,0z M45.5927124,107.4332275h-15.781189V55.3566895
	h15.781189V107.4332275z M37.7020874,46.8153687c-5.0776978,0-9.1940308-4.116333-9.1940308-9.1940308
	c0-5.0777588,4.116333-9.1940918,9.1940308-9.1940918c5.0777588,0,9.1940918,4.116333,9.1940918,9.1940918
	C46.8961792,42.6990356,42.7798462,46.8153687,37.7020874,46.8153687z M107.352478,107.4332275H91.5713501V80.3669434
	c0-7.942627-3.1828613-13.5518799-8.3092041-13.5518799c-8.8902588,0-11.4534912,5.6764526-11.4534912,17.4632568v23.1549072
	h-15.781189V71.5149536c0-5.4852905,0-12.1227417-0.1246948-16.9292603h15.2963257
	c0.3394165,1.7244263,0.5541382,5.6107788,0.6095581,7.6262817c2.2924194-4.4664307,7.2259521-9.1671143,18.8053589-9.1671143
	c12.6265259,0,16.7384644,9.1209717,16.7384644,25.5141602V107.4332275z"/>
</svg>
