<?xml version="1.0" encoding="utf-8"?>
<!-- Generator: Adobe Illustrator 28.1.0, SVG Export Plug-In . SVG Version: 6.00 Build 0)  -->
<svg version="1.1" id="Layer_1" xmlns="http://www.w3.org/2000/svg" xmlns:xlink="http://www.w3.org/1999/xlink" x="0px" y="0px"
	 viewBox="0 0 515 500" style="enable-background:new 0 0 515 500;" xml:space="preserve">
<style type="text/css">
	.st0{fill:none;stroke:#8C8F9F;stroke-width:8;stroke-miterlimit:10;}
</style>
<g>
	<path class="st0" d="M290.4713745,446.9414062v44.2262878c0,2.3971863,1.9433289,4.3405151,4.3405457,4.3405151h211.5663147
		c2.3971863,0,4.3405151-1.9433289,4.3405151-4.3405151V8.8323174c0-2.3972034-1.9433289-4.3405209-4.3405151-4.3405209h-44.7698669
		c-3.0895691,0-5.858551,1.9069228-6.9602966,4.7933693L293.1568604,432.3749084
		C291.3815002,437.0261841,290.4713745,441.9628296,290.4713745,446.9414062z"/>
	<path class="st0" d="M4.2812462,446.9414062v44.2262878c0,2.3971863,1.9433179,4.3405151,4.3405218,4.3405151h211.56633
		c2.3972015,0,4.3405151-1.9433289,4.3405151-4.3405151V8.8323174c0-2.3972034-1.9433136-4.3405209-4.3405151-4.3405209h-44.7698822
		c-3.0895538,0-5.8585358,1.9069228-6.9602814,4.7933693L6.9667335,432.3749084
		C5.1913686,437.0261841,4.2812462,441.9628296,4.2812462,446.9414062z"/>
</g>
</svg>
