<?xml version="1.0" encoding="utf-8"?>
<!-- Generator: Adobe Illustrator 28.2.0, SVG Export Plug-In . SVG Version: 6.00 Build 0)  -->
<svg version="1.1" id="Layer_1" xmlns="http://www.w3.org/2000/svg" xmlns:xlink="http://www.w3.org/1999/xlink" x="0px" y="0px"
	 viewBox="0 0 50 51" style="enable-background:new 0 0 50 51;" xml:space="preserve">
<style type="text/css">
	.st0{fill:#4F4F4F;}
</style>
<path class="st0" d="M40.3114548,21.9033356c0,4.3921299-1.425766,8.4493484-3.8275642,11.7410545l12.1142426,12.1238098
	c1.1961098,1.1961136,1.1961098,3.1386032,0,4.3347168c-1.1961098,1.1961098-3.1386032,1.1961098-4.3347168,0L32.1491737,37.9791069
	c-3.2917042,2.4113693-7.3489227,3.8275642-11.7410526,3.8275642c-10.9946814,0-19.9033375-8.9086571-19.9033375-19.9033356
	S9.4134398,2,20.4081192,2S40.3114548,10.9086561,40.3114548,21.9033356z M20.4081192,35.6825676
	c7.6100597,0,13.779232-6.1691723,13.779232-13.779232s-6.1691723-13.779232-13.779232-13.779232
	s-13.779232,6.1691723-13.779232,13.779232S12.7980595,35.6825676,20.4081192,35.6825676z"/>
</svg>
