<?xml version="1.0" encoding="utf-8"?>
<!-- Generator: Adobe Illustrator 28.2.0, SVG Export Plug-In . SVG Version: 6.00 Build 0)  -->
<svg version="1.1" id="Layer_1" xmlns="http://www.w3.org/2000/svg" xmlns:xlink="http://www.w3.org/1999/xlink" x="0px" y="0px"
	 viewBox="0 0 1930.1837158 4681.1616211" style="enable-background:new 0 0 1930.1837158 4681.1616211;" xml:space="preserve">
<style type="text/css">
	.st0{fill:#4E515C;}
</style>
<g>
	<polygon class="st0" points="1454.4842529,838.4898071 725.4804077,417.628479 727.828125,413.5405884 1456.828125,834.4038696 
		1454.4842529,838.4898071 	"/>
</g>
<g>
	<polygon class="st0" points="1454.4842529,1048.940918 725.484314,628.0698853 727.8325195,623.9819946 1456.828125,1044.8530273 
		1454.4842529,1048.940918 	"/>
</g>
<g>
	<polygon class="st0" points="363.3164062,838.5131836 0,1048.2729492 0,1042.8297119 360.968689,834.4331665 
		363.3164062,838.5131836 	"/>
</g>
<g>
	<polygon class="st0" points="1272.2070312,1995.9482422 907.7109375,1785.5014648 910.0800171,1781.4194336 
		1274.5683594,1991.8588867 1272.2070312,1995.9482422 	"/>
</g>
<g>
	<polygon class="st0" points="1456.828125,1259.3979492 1092.3183594,1469.8453369 1089.9746094,1465.7613525 
		1454.4842529,1255.3100586 1456.828125,1259.3979492 	"/>
</g>
<g>
	<polygon class="st0" points="545.574707,1154.190918 0,1469.1695557 0,1463.7260742 543.2265015,1150.0953369 
		545.574707,1154.190918 	"/>
</g>
<g>
	<polygon class="st0" points="1272.2070312,2416.8623047 1089.9570312,2311.6386719 1092.3260498,2307.5527344 
		1274.5760498,2412.7734375 1272.2070312,2416.8623047 	"/>
</g>
<g>
	<path class="st0" d="M725.4609375,2313.6791992l-185.7974243-107.2675781
		c63.0961914-36.453125,126.2017212-72.9013672,189.3286133-109.3105469c0,72.8730469-0.0410156,145.7431641,0.0039062,218.6201172
		L725.4609375,2313.6791992L725.4609375,2313.6791992z M549.0981445,2206.4155273l175.1791382,101.140625l-0.0062866-202.2802734
		L549.0981445,2206.4155273L549.0981445,2206.4155273z"/>
</g>
<g>
	<polygon class="st0" points="907.718689,2412.7734375 1272.2324219,2202.3310547 1274.5760498,2206.421875 
		910.0664062,2416.8623047 907.718689,2412.7734375 	"/>
</g>
<g>
	<path class="st0" d="M1272.2324219,2627.3154297L906.531189,2416.1826172v-426.3529053
		c123.0742798,71.052124,246.2930298,141.8997803,369.2246704,213.1810303
		c0.2537842,142.1054688,0.0087891,284.2363281,0.0087891,426.3417969L1272.2324219,2627.3154297L1272.2324219,2627.3154297z
		 M911.2675171,2413.4716797l359.7852173,207.7148438l-0.0078125-415.4443359l-359.7774048-207.7275391V2413.4716797
		L911.2675171,2413.4716797z"/>
</g>
<g>
	<path class="st0" d="M1454.4920654,3574.3305664l-368.0585938-212.4873047l371.5743408-214.5395508
		c0.0887451,143.0273438,0.0146484,286.0478516,0.0146484,429.0683594L1454.4920654,3574.3305664L1454.4920654,3574.3305664z
		 M1095.875,3361.8466797l357.4256592,206.3598633l-0.0067139-412.7231445L1095.875,3361.8466797L1095.875,3361.8466797z"/>
</g>
<g>
	<path class="st0" d="M1458.015625,3147.3076172l175.1757812-101.1328125l-175.1757812-101.140625V3147.3076172
		L1458.015625,3147.3076172z M1639.0838623,3048.2158203l-185.789917,107.2641602
		c0.0419922-72.8706055,0.0067139-145.7470703,0.0067139-218.6196289
		c63.1210938,36.4121094,126.2286377,72.8564453,189.3321533,109.3100586L1639.0838623,3048.2158203L1639.0838623,3048.2158203z"/>
</g>
<g>
	<path class="st0" d="M1275.7646484,2831.6357422l175.1767578-101.1386719l-175.1767578-101.1376953V2831.6357422
		L1275.7646484,2831.6357422z M1456.8349609,2732.5400391l-185.7900391,107.2617188
		c0.0410156-72.8710938,0.0078125-145.7480469,0.0078125-218.6181641
		c63.1201172,36.4140625,126.2285156,72.8544922,189.3300781,109.3076172L1456.8349609,2732.5400391L1456.8349609,2732.5400391z"/>
</g>
<g>
	<path class="st0" d="M1275.7646484,2200.2919922l357.4267578-206.3603516l-357.4267578-206.3637695V2200.2919922
		L1275.7646484,2200.2919922z M1639.0838623,1995.9765625l-368.0389404,212.484375
		c0.0820312-143.0244141,0.0078125-286.0454102,0.0078125-429.0687256
		c123.8768311,71.4647217,247.7362061,142.9920654,371.5800781,214.5366211L1639.0838623,1995.9765625L1639.0838623,1995.9765625z"
		/>
</g>
<g>
	<path class="st0" d="M1272.2324219,1785.519043l-185.7989502-107.2576904l189.3311768-109.3164062
		c0.039917,72.875,0,145.7401123,0,218.6171875L1272.2324219,1785.519043L1272.2324219,1785.519043z M1095.875,1678.2613525
		l175.1777344,101.1386719l-0.0078125-202.2792969L1095.875,1678.2613525L1095.875,1678.2613525z"/>
</g>
<g>
	<path class="st0" d="M1093.5058594,1674.1733398l539.6933594-311.5780029l-539.6778564-311.5957031L1093.5058594,1674.1733398
		L1093.5058594,1674.1733398z M1639.0917969,1364.6381836l-550.296875,317.7071533
		c0.1210938-213.1757812,0.0078125-426.3496094,0.0078125-639.515625
		c184.6503906,106.5174561,369.2518311,213.125,553.8378906,319.765625L1639.0917969,1364.6381836L1639.0917969,1364.6381836z"/>
</g>
<g>
	<polygon class="st0" points="1089.9980469,1259.4039307 907.7363281,1154.1850586 910.0839233,1150.0953369 
		1092.3417969,1255.3178711 1089.9980469,1259.4039307 	"/>
</g>
<g>
	<path class="st0" d="M546.75,1568.9449463l175.1738281-101.1348877l-175.1699219-101.1365967L546.75,1568.9449463
		L546.75,1568.9449463z M727.8203125,1469.8453369l-185.7852173,107.2655029
		c0-72.8729248-0.0390625-145.7460938,0.0039062-218.6171875l189.3262329,109.3106689L727.8203125,1469.8453369
		L727.8203125,1469.8453369z"/>
</g>
<g>
	<path class="st0" d="M729.0004272,1884.6168213l357.4330444-206.3554688l-357.4295654-206.3634033L729.0004272,1884.6168213
		L729.0004272,1884.6168213z M1092.3260498,1680.3022461l-368.0404053,212.484375
		c0-143.0273438-0.0786133-286.0408936,0.0083008-429.0683594
		c123.8603516,71.4981689,247.7353516,142.9921875,371.5712891,214.5430908L1092.3260498,1680.3022461L1092.3260498,1680.3022461z"
		/>
</g>
<g>
	<path class="st0" d="M907.7363281,1364.6303711l-368.0527954-212.4921875
		c123.8378906-71.5506592,247.6958618-143.0664062,371.5839844-214.5332031
		c0,143.0175781-0.0820312,286.0411377,0.0039062,429.0684814L907.7363281,1364.6303711L907.7363281,1364.6303711z
		 M549.1206055,1152.1479492L906.5507202,1358.50354l-0.0039062-412.7285767L549.1206055,1152.1479492L549.1206055,1152.1479492z"/>
</g>
<g>
	<path class="st0" d="M725.4804077,1048.9643555l-368.054718-212.5
		C723.4375,625.0053711,1089.5917969,413.7749939,1455.6445312,202.3940735
		c123.1865234,70.8398132,246.2197266,142.0292969,369.2304688,213.1679993L1456.828125,628.050354l-2.3438721-4.0820923
		l360.9667969-208.406189L1455.6639404,207.839386L366.8652039,836.4741821l360.9629211,208.4081421L725.4804077,1048.9643555
		L725.4804077,1048.9643555z"/>
</g>
<g>
	<polygon class="st0" points="1458.015625,205.1108856 1458.0078125,1257.3549805 1453.2939453,1257.3549805 
		1453.3006592,205.1108856 1458.015625,205.1108856 	"/>
</g>
<g>
	<path class="st0" d="M1818.9980469,1259.4039307l-185.7988281-107.2559814l189.3320312-109.3182373
		c0.0408936,72.8768311,0,145.7518311,0,218.6170654L1818.9980469,1259.4039307L1818.9980469,1259.4039307z
		 M1642.640625,1152.1479492l175.1796875,101.140625v-202.28125L1642.640625,1152.1479492L1642.640625,1152.1479492z"/>
</g>
<g>
	<path class="st0" d="M1818.9980469,4198.8222656l-185.7988281-107.2556152L1822.53125,3982.248291
		c0.0408936,72.8769531,0,145.751709,0,218.6169434L1818.9980469,4198.8222656L1818.9980469,4198.8222656z
		 M1642.640625,4091.5666504l175.1796875,101.1403809v-202.2810059L1642.640625,4091.5666504L1642.640625,4091.5666504z"/>
</g>
<g>
	<path class="st0" d="M360.9648132,417.6186829L0,209.2124786v-5.4512024l363.3338928,209.7714996L360.9648132,417.6186829
		L360.9648132,417.6186829z M0,1253.2750244l543.2225952-313.6211548l2.347229,4.0878906L0,1258.722168V1253.2750244L0,1253.2750244
		z"/>
</g>
<g>
	<polygon class="st0" points="872.4758911,3197.6938477 421.655426,3457.9675293 416.9025879,3455.2668457 
		870.1276855,3193.5981445 872.4758911,3197.6938477 	"/>
</g>
<g>
	<path class="st0" d="M870.1237793,2983.1567383l2.347168,4.0878906l-630.9467773,364.2722168l-6.3114471-2.1262207"/>
</g>
<g>
	<polygon class="st0" points="725.4804077,417.628479 543.2225952,312.3999939 545.5698242,308.3178711 727.828125,413.5405884 
		725.4804077,417.628479 	"/>
</g>
<g>
	<path class="st0" d="M364.5057983,621.9389648L724.296814,414.2260742l-0.0028687-204.9960938L544.3984375,313.0854797
		L364.5097046,209.2202759L364.5057983,621.9389648L364.5057983,621.9389648z M727.828125,417.628479L359.7894897,630.1109009
		c0-143.0273132-0.0766907-286.0430298,0.003418-429.0703125l184.6055298,106.5976105l184.6112671-106.5877991
		c0,71.9647827-0.1190796,143.9295959,0.0078125,215.8924866L727.828125,417.628479L727.828125,417.628479z"/>
</g>
<g>
	<polygon class="st0" points="725.484314,628.0698853 543.2265015,522.8510742 545.574707,518.7631836 727.8325195,623.9819946 
		725.484314,628.0698853 	"/>
</g>
<g>
	<polygon class="st0" points="1456.8349609,3363.8896484 1274.59375,3469.1113281 1272.2246094,3465.0249023 
		1454.4648438,3359.8007812 1456.8349609,3363.8896484 	"/>
</g>
<g>
	<path class="st0" d="M906.5057373-5.3129139v5h0.0003662c0.0137329,105.7597656,0.0407104,211.5087891,0.0407104,317.2592773
		L1456.0479736-0.3060777l8.777832-4.9990234L906.5057373-5.3129139z M911.2713623-0.3129137l535.3560791,0.0075684
		L911.2675171,308.7764282L911.2713623-0.3129137z"/>
</g>
<g>
	<polygon class="st0" points="1454.4842529,3948.0927734 725.4804077,4368.9541016 727.828125,4373.0419922 
		1456.828125,3952.1784668 1454.4842529,3948.0927734 	"/>
</g>
<g>
	<path class="st0" d="M727.8336182,4158.5229492l-4.7199707-2.7299805v-411.3898926L366.863678,3950.1130371
		l356.2499695,205.6799316v5.5102539c-121.9099121-70.380127-243.8097839-140.7700195-365.6899109-211.1901855
		l370.3998718-213.8598633v5.4299316L727.8336182,4158.5229492z"/>
</g>
<g>
	<path class="st0" d="M1824.8736572,4371.0229492c-123.0100098,71.1401367-246.0400391,142.3300781-369.2299805,213.1699219
		c-243.3999023-140.5600586-486.8598633-281.0600586-730.2800293-421.5898438c-0.75-0.4301758-1.5-0.8701172-2.25-1.2998047
		v-5.5102539l4.7199707,2.7299805l727.8300781,420.2202148l359.7900391-207.7202148l-360.9699707-208.4101562l2.3398438-4.0795898
		L1824.8736572,4371.0229492z"/>
</g>
<g>
	<polygon class="st0" points="1458.0137939,4732.902832 1453.303833,4732.902832 1453.2935791,3743.7929688 
		729.2523804,4161.7915039 726.9025269,4157.7016602 1453.2935791,3738.3430176 1458.0037842,3735.6230469 
		1458.0037842,3741.072998 	"/>
</g>
<g>
	<polygon class="st0" points="727.8336182,4158.5229492 727.8336182,4162.6030273 723.1136475,4162.6030273 
		723.1136475,4155.7929688 	"/>
</g>
<g>
	<path class="st0" d="M360.9648132,4368.9638672l2.3690796,4.0859375L0,4582.8212891v-5.4511719L360.9648132,4368.9638672
		L360.9648132,4368.9638672z"/>
</g>
<g>
	<polygon class="st0" points="725.4804077,4368.9541016 543.2225952,4474.1826172 545.5698242,4478.2646484 
		727.828125,4373.0419922 725.4804077,4368.9541016 	"/>
</g>
<g>
	<path class="st0" d="M364.5057983,4164.6435547l0.0039062,412.71875l179.8887329-103.8652344l179.8955078,103.8554688
		l0.0028687-204.9960938L364.5057983,4164.6435547L364.5057983,4164.6435547z M727.828125,4368.9541016l1.1893921,0.6855469
		c-0.1268921,71.9628906-0.0078125,143.9277344-0.0078125,215.8925781l-184.6112671-106.5878906l-184.6055298,106.5976562
		c-0.0801086-143.0273438-0.003418-286.0429688-0.003418-429.0703125L727.828125,4368.9541016L727.828125,4368.9541016z"/>
</g>
<g>
	<polygon class="st0" points="725.484314,4158.5126953 543.2265015,4263.7314453 545.574707,4267.8193359 727.8325195,4162.6005859 
		725.484314,4158.5126953 	"/>
</g>
<g>
	<path class="st0" d="M1319.6290283,4716.8061523l-8.77771-4.9990234l-549.5011597-317.2524414
		c0,105.7504883-0.0269775,211.4995117-0.0407104,317.2592773h-0.0003662v5L1319.6290283,4716.8061523z M766.0708618,4402.7246094
		l535.3598022,309.081543l-535.355957,0.0078125L766.0708618,4402.7246094z"/>
</g>
<g>
	<polygon class="st0" points="-118.6517181,2090.8078613 -118.6517181,2096.2492676 323.9791565,2351.784668 
		326.3231506,2347.6987305 	"/>
</g>
<g>
	<polygon class="st0" points="-118.6517181,2301.2507324 -118.6517181,2306.6931152 323.9791565,2562.2358398 
		326.3231506,2558.1479492 	"/>
</g>
<g>
	<polygon class="st0" points="-118.6517181,3353.473877 -118.6517181,3358.9243164 141.7017975,3509.2431641 
		144.0631256,3505.1538086 	"/>
</g>
<g>
	<polygon class="st0" points="326.3230591,2772.6928711 -38.1867332,2983.1401367 -40.5304222,2979.0561523 
		323.9792786,2768.6049805 326.3230591,2772.6928711 	"/>
</g>
<g>
	<polygon class="st0" points="141.7019653,3930.1572266 -40.5480232,3824.9335938 -38.1789246,3820.8476562 
		144.0710754,3926.0683594 141.7019653,3930.1572266 	"/>
</g>
<g>
	<polygon class="st0" points="-118.6517181,3871.3930664 144.0709381,3719.7167969 141.7271881,3715.6259766 
		-118.6517181,3865.9489746 	"/>
</g>
<g>
	<path class="st0" d="M145.2506256,3716.3056641c-87.8730469-50.9528809-175.8930664-101.6838379-263.9023438-152.4267578v5.5065918
		l259.1914062,149.6516113l0.0078125,415.4443359l-259.1992188-149.6435547v5.4460449l260.3789062,150.326416l3.5322266,2.0371094
		C145.2594147,4000.5419922,145.5045319,3858.4111328,145.2506256,3716.3056641z"/>
</g>
<g>
	<path class="st0" d="M145.2595673,3713.5869141l357.4268188-206.3603516L145.2595673,3300.862793V3713.5869141
		L145.2595673,3713.5869141z M508.5788574,3509.2714844l-368.0390015,212.484375
		c0.0820007-143.0244141,0.0077972-286.0454102,0.0077972-429.0688477
		c123.8768921,71.4648438,247.7362976,142.9921875,371.5800781,214.5366211L508.5788574,3509.2714844L508.5788574,3509.2714844z"/>
</g>
<g>
	<path class="st0" d="M141.7273712,3298.8139648l-185.7988892-107.2578125l189.3310852-109.3164062
		c0.0400085,72.875,0,145.7402344,0,218.6171875L141.7273712,3298.8139648L141.7273712,3298.8139648z M-34.630024,3191.5561523
		l175.1776886,101.1386719l-0.0077972-202.2792969L-34.630024,3191.5561523L-34.630024,3191.5561523z"/>
</g>
<g>
	<path class="st0" d="M-36.9992256,3187.4682617l539.6933594-311.578125l-539.6777954-311.5957031L-36.9992256,3187.4682617
		L-36.9992256,3187.4682617z M508.5867615,2877.9331055l-550.296875,317.7070312
		c0.1211014-213.1757812,0.0078011-426.3496094,0.0078011-639.515625
		c184.6503906,106.5175781,369.2518921,213.125,553.8378906,319.765625L508.5867615,2877.9331055L508.5867615,2877.9331055z"/>
</g>
<g>
	<path class="st0" d="M78.4524002,4418.9746094l175.1737976-101.1347656L78.4562988,4216.703125L78.4524002,4418.9746094
		L78.4524002,4418.9746094z M259.5226746,4319.875L73.7375031,4427.140625
		c0-72.8730469-0.0391006-145.7460938,0.0038986-218.6171875l189.3262024,109.3105469L259.5226746,4319.875L259.5226746,4319.875z"
		/>
</g>
<g>
	<path class="st0" d="M325.1395569,1715.6889648c-147.9192047,85.4174805-295.8552246,170.8100586-443.7912598,256.2033691
		v5.4829102l443.8105469-256.2409668l359.7870789,207.7226562l-360.9667664,208.40625l2.3439941,4.0820312l368.0468445-212.4882812
		C571.3592529,1857.7182617,448.3260803,1786.5288086,325.1395569,1715.6889648z"/>
</g>
<g>
	<polygon class="st0" points="327.5105591,1718.4057617 327.5027771,2770.6499023 322.7888794,2770.6499023 
		322.7956543,1718.4057617 327.5105591,1718.4057617 	"/>
</g>
<g>
	<path class="st0" d="M688.492981,2772.6987305l-185.7988281-107.2558594l189.3320312-109.3183594
		c0.0409546,72.8769531,0,145.7519531,0,218.6171875L688.492981,2772.6987305L688.492981,2772.6987305z M512.1355591,2665.4428711
		l175.1796875,101.140625v-202.28125L512.1355591,2665.4428711L512.1355591,2665.4428711z"/>
</g>
<g>
	<path class="st0" d="M837.4801025,2455.1833496l-364.8632812-210.6445312l364.8632812-210.6542969V2455.1833496z
		 M482.6168213,2244.5388184l349.8632812,201.984375v-403.9785156L482.6168213,2244.5388184z"/>
</g>
<g>
	<g>
		<path class="st0" d="M871.9882812,2841.0075684l464.9301758,268.4130859l-469.3712158,271.0053711
			c-0.1121826-180.6713867-0.0184326-361.3344727-0.0184326-541.9973145L871.9882812,2841.0075684L871.9882812,2841.0075684z
			 M1324.9919434,3109.4162598l-451.4987183-260.6728516l0.008606,521.3500977L1324.9919434,3109.4162598L1324.9919434,3109.4162598
			z"/>
	</g>
	<g>
		<path class="st0" d="M867.5374146,3380.4211426l-221.2813721,127.7504883l221.2813721,127.760498V3380.4211426
			L867.5374146,3380.4211426z M638.8126221,3505.5935059l234.689209-135.4956055
			c-0.0530396,92.0498047-0.008606,184.1071777-0.008606,276.1594238
			c-79.734314-45.9956055-159.451416-92.0319824-239.1635132-138.0800781L638.8126221,3505.5935059L638.8126221,3505.5935059z"/>
	</g>
	<g>
		<polygon class="st0" points="869.0288696,3106.8356934 1099.2352295,2973.9199219 1102.2279053,2979.0817871 
			872.0227661,3112.0007324 869.0288696,3106.8356934 		"/>
	</g>
</g>
<g>
	<polygon class="st0" points="137.5945282,3717.7565918 137.5945282,3712.3095703 683.1643677,4027.2897949 
		680.8171387,4031.3776855 137.5945282,3717.7565918 	"/>
</g>
<g>
	<polygon class="st0" points="727.0211182,4052.6062012 680.8170166,4025.9306641 680.8170166,4031.3776855 
		727.0211182,4058.0529785 	"/>
</g>
</svg>
